<svg width="60" height="60" viewBox="0 0 60 60" fill="none" xmlns="http://www.w3.org/2000/svg">
<path d="M22.7256 54.8917C18.6823 53.7545 15.1263 51.6607 12.0216 48.7365C11.0469 49.0794 10.0541 49.4224 9.04328 49.7473C8.57396 49.8917 8.10465 49.8375 7.61728 49.657C6.75086 49.3321 6.22739 48.7004 5.84833 47.9242C5.32486 46.8953 4.65699 45.9567 4.13353 44.9278C3.66421 43.9711 2.97829 43.1408 2.58118 42.148C2.38263 41.6607 1.85916 41.3357 1.85916 40.722C1.38985 39.9639 1.84111 39.296 2.11187 38.6282C2.18407 38.4477 2.27432 38.213 2.43678 38.1408C3.0866 37.852 3.41151 37.2022 3.95302 36.8051C4.20573 36.6245 4.47649 36.426 4.7653 36.2094C4.35014 34.1336 3.98912 32.0578 3.98912 29.9278C3.98912 27.8159 4.36819 25.7762 4.7653 23.7545C4.06133 23.1047 3.41151 22.4729 2.72559 21.8773C2.02162 21.2635 1.60645 20.5054 1.69671 19.7112C1.75086 19.278 1.87721 18.8087 2.09382 18.4477C2.76169 17.3827 3.37541 16.2635 4.02523 15.1805C4.54869 14.3141 4.99995 13.4116 5.57757 12.5632C5.88443 12.13 6.06494 11.6245 6.3718 11.1733C6.96746 10.3249 8.1588 9.90975 9.13353 10.1986C9.99995 10.4513 10.8122 10.8303 11.6967 10.9928C11.787 11.0108 11.8592 11.1372 11.9494 11.2274C15.0722 8.3213 18.6281 6.24549 22.7075 5.0361C22.87 4.54874 22.9061 4.02527 23.1046 3.51986C23.2491 3.14079 23.213 2.67148 23.2852 2.25632C23.4837 1.17329 24.1516 0.541516 25.1083 0.216606C25.4512 0.108303 25.7942 0 26.2093 0C28.7364 0.0361011 31.2635 0.0361011 33.7906 0C34.5126 0 35.1263 0.288809 35.7039 0.613718C36.2274 0.884477 36.5162 1.46209 36.6606 2.00361C36.9133 2.99639 37.0577 4.00722 37.2563 5.05415C41.3176 6.20939 44.8736 8.2852 47.9783 11.2094C48.953 10.8664 49.9458 10.5235 50.9566 10.1986C51.426 10.0542 51.8953 10.1083 52.3826 10.2888C53.2491 10.6137 53.7725 11.2455 54.1516 12.0217C54.675 13.0505 55.3429 13.9892 55.8664 15.0181C56.3357 15.9747 57.0216 16.8051 57.4187 17.7978C57.6173 18.2852 58.1408 18.6101 58.1408 19.2238C58.6101 19.982 58.1588 20.6498 57.888 21.3177C57.8158 21.4982 57.7256 21.7329 57.5631 21.8051C56.9133 22.0939 56.5884 22.7437 56.0469 23.1408C55.7942 23.3213 55.5234 23.5199 55.2346 23.7365C55.6498 25.8123 56.0108 27.8881 56.0108 30.018C56.0108 32.13 55.6859 34.1697 55.2346 36.1913C55.9386 36.8412 56.5884 37.4729 57.2743 38.0686C57.9783 38.6823 58.3935 39.4404 58.3032 40.2347C58.2491 40.6679 58.1408 41.1372 57.9061 41.4982C57.2563 42.5451 56.6426 43.6282 56.0108 44.6931C55.2166 46.0108 54.5667 47.4368 53.6462 48.6823C53.4837 49.3682 52.8339 49.4224 52.3646 49.6751C51.8592 49.9458 51.3537 49.8736 50.7942 49.7112C49.9639 49.4765 49.1696 49.0614 48.3032 48.9531C48.213 48.935 48.1408 48.8087 48.0505 48.7184C44.9278 51.6607 41.3899 53.7545 37.2563 54.9278C37.0577 55.9025 36.8772 56.9134 36.6606 57.9061C36.444 58.8809 35.7942 59.4946 34.8736 59.7834C34.5306 59.8917 34.1696 60 33.7725 60C31.2454 59.9639 28.7184 59.9639 26.1913 60C25.4693 60 24.8556 59.7112 24.2779 59.3863C23.7545 59.1155 23.4476 58.5379 23.3393 57.9964C23.1407 56.9314 22.9422 55.9386 22.7256 54.8917ZM23.8989 38.9892C24.2599 38.7906 24.675 38.6643 24.6931 38.231C24.7292 37.5812 24.8195 36.9134 24.675 36.2996C24.4223 35.2527 23.9711 34.2419 23.7003 33.1949C23.5198 32.5271 23.1227 31.8953 23.1407 31.1733C22.5631 29.7473 22.2021 28.2491 21.7148 26.8051C21.3176 25.6137 21.0288 24.3863 20.5956 23.213C20.361 22.5632 20.3068 21.8412 19.8736 21.2635C19.8375 21.2094 19.8195 21.1733 19.8195 21.1733C19.3321 20.8484 18.8267 20.9567 18.3935 20.9567C18.1408 21.1913 17.9241 21.3899 17.7256 21.5704C17.7075 22.148 17.2924 22.5993 17.3646 23.1588C16.7328 24.5668 16.462 26.083 15.9386 27.5271C15.6678 28.2671 15.5054 29.0253 15.2888 29.7834C15.0902 30.5415 14.657 31.2274 14.657 32.0397C13.9711 33.574 13.6281 35.2166 13.1227 36.8231C12.9963 37.2202 12.9241 37.5993 13.1769 37.9783C13.2491 38.0866 13.213 38.2491 13.213 38.231C13.5018 38.5379 13.7184 38.7545 13.8989 38.9711C14.2418 38.9711 14.6028 38.9711 14.9819 38.9711C15.2346 38.6462 15.4873 38.3394 15.722 38.0325C15.6678 37.0036 15.8844 36.3177 16.3537 35.2166C18.1227 35.2166 19.8917 35.2166 21.6606 35.2166C21.805 35.7942 21.8772 36.3538 22.0758 36.8773C22.166 37.0939 22.2563 37.3105 22.2202 37.5271C22.166 38.1949 22.3826 38.7184 23.1407 38.9711C23.3213 38.9892 23.592 38.9892 23.8989 38.9892ZM28.1227 38.9892C28.6101 38.9531 29.1696 39.0975 29.5667 38.7004C29.7111 38.5199 29.8375 38.3394 30.018 38.0866C30.018 36.2816 30.018 34.3863 30.018 32.491C31.3357 32.491 32.6353 32.4368 33.9169 32.509C34.6931 32.5451 35.3249 32.3105 35.9386 31.9314C36.2274 31.7509 36.4801 31.4801 36.7328 31.2274C37.4007 30.5776 37.7256 29.7834 37.7436 28.8448C37.7436 27.3646 37.7436 25.9025 37.7436 24.4224C37.7436 24.2058 37.6895 23.9711 37.6353 23.7545C37.4368 22.9783 37.0216 22.4007 36.462 21.8953C35.8122 21.2996 35.0541 20.9386 34.1516 20.9386C32.1299 20.9386 30.1263 20.9386 28.0866 20.9386C27.888 21.1552 27.6895 21.3718 27.4548 21.5884C27.4548 27.148 27.4548 32.7437 27.4548 38.3574C27.6895 38.556 27.9061 38.7726 28.1227 38.9892ZM41.1191 38.9892C42.3646 38.9892 43.6281 38.9892 44.8736 38.9892C45.0902 38.7726 45.3068 38.556 45.5234 38.3574C45.5234 38.0144 45.5234 37.6895 45.5234 37.3466C45.5234 37.3105 45.5234 37.2924 45.5234 37.2744C45.2527 36.769 44.8375 36.4621 44.296 36.4079C44.296 32.0939 44.296 27.7978 44.296 23.5921C44.6931 23.3935 45.0361 23.213 45.4332 22.9964C45.4873 22.5271 45.5234 22.0397 45.5595 21.6968C45.2707 21.3718 45.0722 21.1372 44.9097 20.9567C43.6101 20.9567 42.3465 20.9567 41.2274 20.9567C40.9205 21.2274 40.7039 21.426 40.4332 21.6787C40.4873 22.1119 40.5595 22.5993 40.6137 23.0144C41.0469 23.231 41.3898 23.4116 41.6967 23.574C41.6967 27.87 41.6967 32.1661 41.6967 36.426C41.5162 36.4621 41.3176 36.426 41.2454 36.5162C40.9927 36.769 40.5595 36.8412 40.4693 37.2563C40.4693 37.6173 40.4693 37.9783 40.4693 38.3394C40.6859 38.556 40.9025 38.7726 41.1191 38.9892Z" fill="white"/>
<path d="M20.7038 32.4546C19.6388 32.4907 18.5197 32.5088 17.4006 32.5449C17.3645 32.5449 17.3103 32.6171 17.202 32.7073C17.2201 31.5882 17.8518 30.6857 17.924 29.6568C18.4656 28.7543 18.5197 27.6893 18.8807 26.6785C18.989 26.7868 19.1515 26.8951 19.1515 26.9853C19.1695 27.7615 19.6208 28.4294 19.7652 29.1694C19.8735 29.6749 20.1623 30.1622 20.2345 30.6676C20.3067 31.3175 20.7399 31.8048 20.7038 32.4546Z" fill="white"/>
<path d="M35.2348 28.9534C35.1085 29.1519 35.0002 29.3505 34.8557 29.531C34.603 29.8198 34.2781 29.9823 33.863 29.9642C32.5994 29.9462 31.3359 29.9642 30.0363 29.9642C30.0363 27.8162 30.0363 25.6682 30.0363 23.466C31.3539 23.466 32.7077 23.448 34.0435 23.466C34.6752 23.4841 35.2168 24.1339 35.2348 24.8198C35.2348 25.957 35.2348 27.0942 35.2348 28.2314C35.2348 28.4841 35.2348 28.7187 35.2348 28.9534Z" fill="white"/>
</svg>
