<svg width="60" height="60" viewBox="0 0 60 60" fill="none" xmlns="http://www.w3.org/2000/svg">
<path d="M3.51154 0.0105726C3.51154 0.243169 3.50096 0.401758 3.51154 0.560346C3.91364 4.95854 4.31573 9.35673 4.70725 13.7655C5.25749 20.0033 5.79714 26.2411 6.34738 32.4684C6.97169 39.4674 7.60658 46.4559 8.20973 53.4549C8.25205 53.9624 8.43194 54.1844 8.90811 54.3113C15.6803 56.1721 22.4313 58.0434 29.2034 59.8936C29.6584 60.0205 30.2087 60.0416 30.6637 59.9148C37.457 58.054 44.2397 56.1615 51.0331 54.2902C51.5516 54.1421 51.7315 53.9095 51.7738 53.3809C51.9854 50.7378 52.2394 48.0841 52.4722 45.4409C52.8637 41.0639 53.2446 36.6868 53.6361 32.3098C54.0911 27.1715 54.5567 22.0438 55.0117 16.9055C55.3503 13.0783 55.7101 9.26157 56.0487 5.4343C56.2074 3.63696 56.345 1.83963 56.4931 0H3.51154V0.0105726ZM46.2714 15.2774C45.9222 19.1469 45.573 23.0271 45.2238 26.8966C44.8217 31.3477 44.4196 35.7987 44.0175 40.2392C43.9011 41.5185 43.7318 42.7978 43.7001 44.0876C43.6789 44.7748 43.3826 44.9546 42.8112 45.1132C38.7268 46.2127 34.6529 47.344 30.579 48.4647C30.3991 48.5175 30.2298 48.581 30.05 48.6338C29.9865 48.6021 29.923 48.581 29.8489 48.5492C25.4893 47.3651 21.1297 46.1704 16.7702 44.9651C16.5903 44.9123 16.3575 44.6268 16.3363 44.4259C16.0295 41.1273 15.7543 37.8287 15.4581 34.4666H22.1138C22.2302 35.7882 22.3572 37.1309 22.463 38.4842C22.5582 39.7317 22.5477 39.7317 23.7222 40.0489C25.8279 40.6092 27.9442 41.159 30.05 41.7088L30.0288 41.6559C32.3356 41.0427 34.6423 40.4401 36.9491 39.7846C37.1607 39.7212 37.4041 39.3828 37.4358 39.1502C37.5734 38.1353 37.6475 37.1097 37.7321 36.0948C37.8697 34.456 38.0072 32.8173 38.1554 31.1045H30.0288L30.05 31.0622C29.997 31.0622 29.9336 31.0622 29.8806 31.0622H15.1512C14.9501 28.8737 14.7597 26.7063 14.5586 24.4755H29.8912C29.9441 24.4755 30.0076 24.4755 30.0605 24.4755L30.0394 24.4332H38.7479C38.949 22.1601 39.15 19.9399 39.3511 17.6773H30.0288L30.05 17.635C29.997 17.635 29.9336 17.635 29.8806 17.635C24.664 17.6456 19.4473 17.6456 14.2306 17.6562C14.1565 17.6562 14.0825 17.6245 13.9449 17.5822C13.7544 15.4254 13.5534 13.2686 13.3629 11.0483H29.8806C29.9336 11.0483 29.997 11.0483 30.05 11.0483L30.0288 11.006H46.6206C46.5042 12.4862 46.3878 13.8818 46.2714 15.2774Z" fill="white"/>
</svg>
