<svg width="60" height="60" viewBox="0 0 60 60" fill="none" xmlns="http://www.w3.org/2000/svg">
<path d="M58.8823 27.3573L32.6471 1.12561C31.1461 -0.375204 28.6662 -0.375204 27.1651 1.12561L21.7484 6.5416L28.6662 13.4584C30.2977 12.9364 32.125 13.2626 33.365 14.5677C34.6702 15.8728 34.9965 17.6998 34.4744 19.3312L41.1311 25.987C42.7627 25.4649 44.59 25.7912 45.8952 27.0963C47.7225 28.8581 47.7225 31.7945 45.8952 33.6215C44.0679 35.4486 41.1964 35.4486 39.3691 33.6215C37.9986 32.2512 37.6722 30.2936 38.3901 28.5971L32.1903 22.398V38.7113C32.6471 38.907 33.0387 39.2333 33.4302 39.5595C35.2576 41.3214 35.2576 44.2578 33.4302 46.0848C31.6029 47.8467 28.7314 47.8467 26.9041 46.0848C25.0768 44.2578 25.0768 41.3866 26.9041 39.5595C27.3609 39.1028 27.883 38.7765 28.4051 38.5808V22.0718C27.883 21.876 27.3609 21.4845 26.9041 21.093C25.5336 19.7227 25.2073 17.7651 25.9252 16.0685L19.0727 9.28222L1.12576 27.2268C-0.375254 28.7276 -0.375254 31.2072 1.12576 32.708L27.2957 58.8744C28.7967 60.3752 31.2766 60.3752 32.7776 58.8744L58.817 32.8385C60.3833 31.2724 60.3833 28.8581 58.8823 27.3573Z" fill="white"/>
</svg>
