<svg width="60" height="60" viewBox="0 0 60 60" fill="none" xmlns="http://www.w3.org/2000/svg">
<path fill-rule="evenodd" clip-rule="evenodd" d="M58.7259 16.6769L53.4084 24.1119L48.091 16.6769H50.9902C50.7692 11.1526 46.2058 6.73319 40.6284 6.73319C35.922 6.73319 31.9306 9.89177 30.6695 14.1942C29.1354 13.7003 27.5493 13.3883 25.9371 13.2453C26.1191 12.5564 26.3532 11.8675 26.6392 11.2046C27.4063 9.39783 28.4983 7.77305 29.8895 6.38223C31.2806 4.99142 32.9057 3.88657 34.7129 3.13267C36.585 2.32677 38.5742 1.92383 40.6284 1.92383C42.6825 1.92383 44.6717 2.32677 46.5439 3.11967C48.351 3.88657 49.9761 4.97842 51.3673 6.36924C52.7584 7.76005 53.8505 9.38483 54.6175 11.1916C55.3586 12.9334 55.7616 14.7791 55.8006 16.6769H58.7259Z" fill="white"/>
<path fill-rule="evenodd" clip-rule="evenodd" d="M51.2893 58.0761V54.8785H32.9578C33.0878 54.8136 33.2178 54.7616 33.3478 54.6966C35.337 53.7477 37.1701 52.5129 38.8083 51.0051C39.0293 50.7971 39.2373 50.6021 39.4323 50.4071C39.6533 50.1862 39.8873 49.9522 40.1084 49.7052C40.3684 49.4193 40.6284 49.1203 40.8624 48.8213H51.2893V45.6238L60 51.8499L51.2893 58.0761Z" fill="white"/>
<path fill-rule="evenodd" clip-rule="evenodd" d="M44.5287 34.9784C44.5287 37.747 43.9827 40.4376 42.9166 42.9723C42.0065 45.13 40.7324 47.1057 39.1463 48.8345C38.9382 49.0555 38.7302 49.2765 38.5222 49.4974C38.3272 49.6924 38.1322 49.8744 37.9372 50.0694C36.403 51.4862 34.6869 52.643 32.8147 53.5399C32.5547 53.6699 32.2817 53.7869 32.0087 53.9038C31.9957 53.9038 31.9957 53.9168 31.9827 53.9168C30.4225 54.5798 28.7454 54.9047 27.0422 54.9047H0V48.8605H25.1051C32.6977 48.8605 38.9252 42.7903 39.0292 35.1993C39.0292 35.1343 39.0292 35.0694 39.0292 35.0044C39.0292 26.7115 32.2947 19.9784 24 19.9784C15.7053 19.9524 8.97075 26.6725 8.97075 34.9784H12.455L6.22752 43.6872L0 34.9784H3.48429C3.48429 32.2097 4.03034 29.5191 5.09642 26.9844C6.13651 24.5408 7.60563 22.344 9.49079 20.4593C11.3759 18.5746 13.5731 17.0927 16.0173 16.0659C18.5525 15 21.2438 14.4541 24.013 14.4541C24.572 14.4541 25.1181 14.4801 25.6641 14.5191C27.2763 14.6491 28.8494 14.961 30.3835 15.468C30.9296 15.6499 31.4626 15.8449 31.9957 16.0789C34.4399 17.1187 36.637 18.5875 38.5222 20.4723C40.4074 22.357 41.8895 24.5538 42.9166 26.9974C43.9827 29.5191 44.5287 32.2097 44.5287 34.9784Z" fill="white"/>
</svg>
