<svg width="60" height="62" viewBox="0 0 60 62" fill="none" xmlns="http://www.w3.org/2000/svg">
<path d="M59.9454 5.7519C59.5084 3.45786 57.7333 1.60079 55.4665 1.10921C55.3573 1.0819 55.2481 1.0819 55.1115 1.05459C55.0842 1.05459 55.0569 0.999966 55.0296 0.972656H4.9431C4.91579 0.999966 4.88848 1.05459 4.83386 1.05459C2.56714 1.43693 0.655439 3.23938 0.13655 5.53342C0.10924 5.61535 0.0546199 5.72459 0 5.83383V56.0569C0.02731 56.1115 0.0819299 56.1388 0.0819299 56.1934C0.628129 58.7059 2.15749 60.2626 4.64269 60.8907C4.72462 60.918 4.77924 60.9727 4.83386 61.0273H55.1115C55.1661 61 55.1934 60.9453 55.2481 60.918C57.7333 60.3445 59.2626 58.8425 59.8908 56.3573C59.9181 56.2753 59.8908 56.1661 59.9181 56.0842C59.9181 56.0569 59.9727 56.0296 60 56.0022V5.91576C60 5.86114 59.9454 5.83383 59.9454 5.7519ZM34.8202 34.2635H34.5198C32.2531 34.2635 29.959 34.2635 27.6923 34.2635C27.5831 34.2635 27.4738 34.2635 27.3646 34.2635C27.3646 34.2908 27.3373 34.2908 27.3373 34.3181C27.3373 34.4274 27.3373 34.5366 27.3373 34.6458V55.7018H21.3564V34.2908H13.8462V29.5116H34.7929V34.2635H34.8202ZM54.975 48.5466C54.9203 49.4752 54.7838 50.3764 54.4015 51.2503C54.2922 51.5234 54.2103 51.7692 54.0737 52.0423C53.5822 53.0801 52.7629 53.8174 51.807 54.4183C50.7146 55.101 49.513 55.4834 48.2567 55.7291C46.8639 56.0022 45.4711 56.0842 44.051 56.0296C43.3682 56.0022 42.6855 56.0022 42.0027 55.9203C40.3914 55.7291 38.8075 55.3741 37.3327 54.6641C37.2508 54.6367 37.1416 54.5002 37.1416 54.4183C37.1416 52.6431 37.1416 50.868 37.1416 49.0928C37.1416 49.0655 37.1416 49.0382 37.1416 48.9836C37.5785 49.284 38.0155 49.5844 38.4524 49.8302C39.5175 50.4583 40.6919 50.8953 41.8935 51.1684C42.9313 51.4142 43.9691 51.4415 45.0068 51.3869C45.7988 51.3596 46.5908 51.1684 47.3009 50.8134C47.929 50.4856 48.4479 50.0487 48.5844 49.3113C48.721 48.6559 48.6664 48.0004 48.284 47.4269C47.7378 46.6076 46.9731 46.0887 46.1265 45.6518C45.1707 45.1875 44.2148 44.7778 43.2317 44.3409C41.7843 43.6854 40.3641 42.9754 39.1898 41.883C38.234 40.9818 37.5239 39.9167 37.1962 38.6331C37.005 37.8684 36.9504 37.1037 36.9777 36.3391C37.005 34.4547 37.6878 32.8434 39.0259 31.5052C40.1183 30.4128 41.4565 29.7574 42.9313 29.375C43.9417 29.1292 44.9522 28.9381 45.99 28.9108C46.7274 28.9108 47.4647 28.8288 48.1748 28.8561C49.2945 28.8834 50.3869 28.9381 51.4793 29.2112C52.1894 29.4023 52.9267 29.5935 53.6368 29.7574C53.7733 29.7847 53.8279 29.8666 53.8279 30.0305C53.8279 31.7237 53.8279 33.4442 53.8279 35.1374C53.8279 35.192 53.8279 35.2467 53.8006 35.3286C53.5822 35.192 53.391 35.0828 53.1998 34.9736C52.3259 34.482 51.3974 34.1543 50.4415 33.9085C49.3764 33.6627 48.3113 33.4988 47.2189 33.5261C46.4816 33.5534 45.7169 33.6627 45.0341 33.9085C44.1875 34.2089 43.5048 34.7005 43.2044 35.6017C42.9586 36.3118 43.1498 36.9126 43.5867 37.4861C44.1329 38.1961 44.8703 38.6877 45.6623 39.0701C46.7274 39.589 47.8198 40.0259 48.8575 40.5175C50.0592 41.091 51.2608 41.6645 52.2713 42.5111C53.1452 43.2485 53.9372 44.0678 54.3741 45.1602C54.6199 45.8156 54.8384 46.4984 54.8384 47.2357C54.9477 47.6727 55.0023 48.1097 54.975 48.5466Z" fill="white"/>
</svg>
