<svg width="60" height="60" viewBox="0 0 60 60" fill="none" xmlns="http://www.w3.org/2000/svg">
<path d="M30 1.80018C33.8074 1.80018 37.4977 2.54725 40.9811 4.0144C42.6553 4.72547 44.2664 5.59856 45.7696 6.61566C47.2637 7.62376 48.6679 8.78488 49.946 10.063C51.2241 11.3411 52.3852 12.7453 53.3933 14.2394C54.4104 15.7426 55.2835 17.3627 55.9946 19.0279C57.4617 22.5023 58.2088 26.1926 58.2088 30.009C58.2088 33.8254 57.4617 37.5068 55.9946 40.9901C55.2835 42.6643 54.4104 44.2754 53.3933 45.7786C52.3852 47.2727 51.2241 48.6769 49.946 49.955C48.6679 51.2331 47.2637 52.3942 45.7696 53.4023C44.2664 54.4194 42.6463 55.2925 40.9811 56.0036C37.5068 57.4707 33.8164 58.2178 30 58.2178C26.1926 58.2178 22.5023 57.4707 19.0189 56.0036C17.3447 55.2925 15.7336 54.4194 14.2304 53.4023C12.7363 52.3942 11.3321 51.2331 10.054 49.955C8.77588 48.6769 7.61476 47.2727 6.60666 45.7786C5.58956 44.2754 4.71647 42.6553 4.0054 40.9901C2.54725 37.5068 1.80018 33.8074 1.80018 30C1.80018 26.1926 2.54725 22.5023 4.0144 19.0189C4.72547 17.3447 5.59856 15.7336 6.61566 14.2304C7.62376 12.7363 8.78488 11.3321 10.063 10.054C11.3411 8.77588 12.7453 7.61476 14.2394 6.60666C15.7426 5.58956 17.3627 4.71647 19.0279 4.0054C22.5023 2.54725 26.1926 1.80018 30 1.80018ZM30 0C13.4293 0 0 13.4293 0 30C0 46.5707 13.4293 60 30 60C46.5707 60 60 46.5707 60 30C60.009 13.4293 46.5707 0 30 0Z" fill="white"/>
<path d="M5.00244 30.0001C5.00244 39.8921 10.754 48.452 19.0979 52.5024L7.17166 19.8291C5.77652 22.9344 5.00244 26.3818 5.00244 30.0001ZM46.8836 28.74C46.8836 25.6527 45.7765 23.5105 44.8224 21.8453C43.5533 19.7841 42.3652 18.0379 42.3652 15.9857C42.3652 13.6905 44.1114 11.5483 46.5596 11.5483C46.6676 11.5483 46.7756 11.5573 46.8836 11.5663C42.4372 7.48889 36.5056 5.00464 29.9979 5.00464C21.2671 5.00464 13.5803 9.48709 9.10685 16.2738C9.69191 16.2918 10.25 16.3008 10.718 16.3008C13.3283 16.3008 17.3787 15.9857 17.3787 15.9857C18.7288 15.9047 18.8818 17.8849 17.5407 18.0469C17.5407 18.0469 16.1816 18.209 14.6784 18.281L23.7873 45.3647L29.2599 28.956L25.3625 18.281C24.0123 18.2 22.7432 18.0469 22.7432 18.0469C21.3931 17.9659 21.5551 15.9047 22.9052 15.9857C22.9052 15.9857 27.0366 16.3008 29.4939 16.3008C32.1042 16.3008 36.1546 15.9857 36.1546 15.9857C37.5047 15.9047 37.6577 17.8849 36.3166 18.0469C36.3166 18.0469 34.9574 18.209 33.4543 18.281L42.4822 45.1577L45.0654 36.9848C46.2086 33.4115 46.8836 30.8822 46.8836 28.74ZM30.439 32.1874L22.9322 53.9875C25.1735 54.6446 27.5407 55.0046 29.9979 55.0046C32.9052 55.0046 35.7045 54.5006 38.2968 53.5915C38.2338 53.4835 38.1708 53.3665 38.1168 53.2495L30.439 32.1874ZM51.9421 18.0109C52.0501 18.803 52.1132 19.6581 52.1132 20.5852C52.1132 23.1235 51.6361 25.9767 50.214 29.5411L42.5722 51.6113C50.0069 47.2819 55.0024 39.2261 55.0024 30.0001C55.0024 25.6527 53.8953 21.5663 51.9421 18.0109Z" fill="white"/>
</svg>
