<?xml version="1.0" encoding="utf-8"?>
<!-- Generator: Adobe Illustrator 26.1.0, SVG Export Plug-In . SVG Version: 6.00 Build 0)  -->
<svg version="1.1" id="Layer_1" xmlns="http://www.w3.org/2000/svg" xmlns:xlink="http://www.w3.org/1999/xlink" x="0px" y="0px"
	 viewBox="0 0 117.4 100.6" style="enable-background:new 0 0 117.4 100.6;" xml:space="preserve">
<style type="text/css">
	.st0{fill:#31657A;}
</style>
<g>
	<path class="st0" d="M33.7,55.6c-0.6,0-1.2,0-1.7-0.1V43.8c0.6,0.1,1.1,0.2,1.7,0.2h4.3v11.7C37.9,55.6,33.7,55.6,33.7,55.6z"/>
	<path class="st0" d="M102.2,34.9v5.9h-6v-5.9c0-7.3-5.9-13.2-13.2-13.2H34.9c-7.3,0-13.2,5.9-13.2,13.2c0,4.9,3,9.2,7.3,11v6.3
		c-7.7-2-13.3-9-13.3-17.3c0-10.6,8.6-19.2,19.2-19.2h48.2C93.6,15.7,102.2,24.3,102.2,34.9z"/>
	<path class="st0" d="M33.7,52.8c-0.6,0-1.1,0-1.7-0.1v-6.1c0.6,0.1,1.1,0.1,1.7,0.1h4.3v6C37.9,52.8,33.7,52.8,33.7,52.8z"/>
	<path class="st0" d="M102.2,66v0.7c0,10.6-8.6,19.2-19.2,19.2H34.9c-10.6,0-19.2-8.6-19.2-19.2V60h6v6.7c0,7.2,5.9,13.2,13.2,13.2
		h48.2c7.2,0,13.2-5.9,13.2-13.2V66c0-7.3-5.9-13.2-13.2-13.2H40.8v-6h42.3C93.6,46.8,102.2,55.4,102.2,66z"/>
</g>
<g>
	<path class="st0" d="M78.8,61h6c0,5.2-4.2,9.4-9.4,9.4H38.6c-3.7,0-6.7-3-6.7-6.7V39.3c0-3.7,3-6.7,6.7-6.7h38
		c4.5,0,8.2,3.7,8.2,8.2h-6c0-1.2-1-2.2-2.2-2.2h-38c-0.4,0-0.7,0.3-0.7,0.7v24.4c0,0.4,0.3,0.7,0.7,0.7h36.8
		C77.3,64.4,78.8,62.9,78.8,61z"/>
</g>
</svg>
