<svg width="48" height="48" viewBox="0 0 48 48" fill="none" xmlns="http://www.w3.org/2000/svg">
<g clip-path="url(#clip0_105118_3858)">
<path d="M24.005 9C30.435 9 35.675 14.23 35.675 20.67C35.675 27.68 26.545 36.39 24.005 38.67C21.465 36.39 12.335 27.68 12.335 20.67C12.335 14.23 17.565 9 24.005 9ZM24.005 8C17.005 8 11.335 13.67 11.335 20.67C11.335 29.34 24.005 40 24.005 40C24.005 40 36.675 29.33 36.675 20.67C36.665 13.67 30.995 8 24.005 8Z" fill="#70E61C"/>
<path d="M24.005 16C26.025 16 27.675 17.64 27.675 19.67C27.675 21.7 26.035 23.34 24.005 23.34C21.975 23.34 20.335 21.7 20.335 19.67C20.335 17.64 21.975 16 24.005 16ZM24.005 15C21.425 15 19.335 17.09 19.335 19.67C19.335 22.25 21.425 24.34 24.005 24.34C26.585 24.34 28.675 22.25 28.675 19.67C28.675 17.09 26.585 15 24.005 15Z" fill="#70E61C"/>
</g>
<defs>
<clipPath id="clip0_105118_3858">
<rect width="25.33" height="32" fill="white" transform="translate(11.335 8)"/>
</clipPath>
</defs>
</svg>
