<svg width="48" height="48" viewBox="0 0 48 48" fill="none" xmlns="http://www.w3.org/2000/svg">
<path d="M28.5141 34.5V35C28.5141 37.4849 26.4957 39.4998 24.0004 39.5C21.505 39.5 19.4858 37.485 19.4858 35V34.5H28.5141ZM24.0004 8.5C29.8171 8.50023 34.5305 13.2022 34.5307 19.0059C34.5307 21.0921 33.921 23.0307 32.8686 24.666L32.6528 24.9893C32.4982 25.2112 32.3401 25.4317 32.1801 25.6523L31.6948 26.3164L31.6938 26.3184C30.5407 27.9001 29.318 29.5608 28.6528 31.4941H19.35C18.7778 29.8189 17.7808 28.3423 16.769 26.9463L16.3061 26.3105H16.3051C16.1418 26.0882 15.9798 25.8672 15.8198 25.6465L15.3471 24.9834V24.9824L15.1303 24.6602C14.0787 23.03 13.4692 21.0865 13.4692 19C13.4692 13.2025 18.1832 8.5 24.0004 8.5ZM24.0004 11.5C19.846 11.5 16.4799 14.8538 16.4799 19C16.4799 19.8273 17.1566 20.4998 17.9828 20.5C18.8092 20.5 19.4858 19.8275 19.4858 19C19.4858 16.515 21.505 14.5 24.0004 14.5C24.8266 14.4998 25.5024 13.8273 25.5024 13C25.5024 12.1727 24.8266 11.5002 24.0004 11.5Z" stroke="#70E61C"/>
</svg>
