<svg width="33" height="32" viewBox="0 0 33 32" fill="none" xmlns="http://www.w3.org/2000/svg">
<mask id="mask0_152555_290" style="mask-type:alpha" maskUnits="userSpaceOnUse" x="0" y="0" width="33" height="32">
<rect x="0.75" width="32" height="32" fill="#D9D9D9"/>
</mask>
<g mask="url(#mask0_152555_290)">
<path d="M22.3167 17.3332H7.41666C7.03888 17.3332 6.72222 17.2055 6.46666 16.9499C6.21111 16.6943 6.08333 16.3777 6.08333 15.9999C6.08333 15.6221 6.21111 15.3055 6.46666 15.0499C6.72222 14.7943 7.03888 14.6666 7.41666 14.6666H22.3167L15.7833 8.13323C15.5167 7.86657 15.3889 7.55546 15.4 7.1999C15.4111 6.84435 15.55 6.53324 15.8167 6.26657C16.0833 6.02212 16.3944 5.89435 16.75 5.88324C17.1056 5.87212 17.4167 5.9999 17.6833 6.26657L26.4833 15.0666C26.6167 15.1999 26.7111 15.3443 26.7667 15.4999C26.8222 15.6555 26.85 15.8221 26.85 15.9999C26.85 16.1777 26.8222 16.3443 26.7667 16.4999C26.7111 16.6555 26.6167 16.7999 26.4833 16.9332L17.6833 25.7332C17.4389 25.9777 17.1333 26.0999 16.7667 26.0999C16.4 26.0999 16.0833 25.9777 15.8167 25.7332C15.55 25.4666 15.4167 25.1499 15.4167 24.7832C15.4167 24.4166 15.55 24.0999 15.8167 23.8332L22.3167 17.3332Z" fill="#70E61C"/>
</g>
</svg>
