<svg width="33" height="32" viewBox="0 0 33 32" fill="none" xmlns="http://www.w3.org/2000/svg">
<mask id="mask0_152555_283" style="mask-type:alpha" maskUnits="userSpaceOnUse" x="0" y="0" width="33" height="32">
<rect x="0.75" width="32" height="32" fill="#D9D9D9"/>
</mask>
<g mask="url(#mask0_152555_283)">
<path d="M11.1833 17.3332L17.7167 23.8666C17.9833 24.1332 18.1111 24.4443 18.1 24.7999C18.0889 25.1555 17.95 25.4666 17.6833 25.7332C17.4167 25.9777 17.1056 26.1055 16.75 26.1166C16.3944 26.1277 16.0833 25.9999 15.8167 25.7332L7.01667 16.9332C6.88333 16.7999 6.78889 16.6555 6.73333 16.4999C6.67778 16.3443 6.65 16.1777 6.65 15.9999C6.65 15.8221 6.67778 15.6555 6.73333 15.4999C6.78889 15.3443 6.88333 15.1999 7.01667 15.0666L15.8167 6.26657C16.0611 6.02212 16.3667 5.8999 16.7333 5.8999C17.1 5.8999 17.4167 6.02212 17.6833 6.26657C17.95 6.53324 18.0833 6.8499 18.0833 7.21657C18.0833 7.58324 17.95 7.8999 17.6833 8.16657L11.1833 14.6666H26.0833C26.4611 14.6666 26.7778 14.7943 27.0333 15.0499C27.2889 15.3055 27.4167 15.6221 27.4167 15.9999C27.4167 16.3777 27.2889 16.6943 27.0333 16.9499C26.7778 17.2055 26.4611 17.3332 26.0833 17.3332H11.1833Z" fill="#70E61C"/>
</g>
</svg>
