<svg width="60" height="60" viewBox="0 0 60 60" fill="none" xmlns="http://www.w3.org/2000/svg">
<g clip-path="url(#clip0_101559_3949)">
<path d="M43.6305 10.5097L36.1276 18.0878C33.9435 16.8917 31.4502 16.3428 28.9397 16.5363C26.5302 16.7212 24.2363 17.5793 22.3064 18.9863C20.5527 18.4691 18.7268 18.2033 16.9067 18.2033H16.8316C13.8617 18.2207 10.987 18.914 8.37244 20.2285C9.49339 17.6082 11.0853 15.2131 13.07 13.1532C15.8522 10.2728 19.3133 8.15228 23.1298 6.99665C26.9462 5.84103 30.9938 5.68791 34.8853 6.54885C38.0489 7.248 41.0217 8.60008 43.6305 10.5097Z" fill="white"/>
<path d="M59.2402 42.7171C58.1597 46.2273 55.99 49.2897 53.0518 51.4565C50.1136 53.6233 46.563 54.779 42.9256 54.7501H32.187V44.2194H42.9256C43.7808 44.2194 44.6273 44.049 45.4189 43.7168C46.2076 43.3874 46.927 42.902 47.5308 42.2924C48.1346 41.6829 48.6171 40.9577 48.9436 40.1574C49.27 39.3601 49.4405 38.5049 49.4405 37.6411C49.4405 36.7772 49.27 35.9221 48.9436 35.1247C48.6171 34.3273 48.1346 33.6022 47.5308 32.9897C46.927 32.3801 46.2076 31.8947 45.4189 31.5654C44.6273 31.2331 43.7808 31.0627 42.9256 31.0627V29.751C42.9603 27.7634 42.5501 25.793 41.7238 23.9874C41.3598 23.19 40.9178 22.4359 40.4064 21.7339C39.7881 20.8816 39.063 20.1045 38.254 19.4226C38.2194 19.3938 38.1818 19.362 38.1471 19.3331L45.364 12.0469L45.468 11.9429C46.1787 12.5785 46.8461 13.2545 47.4701 13.9681C49.8565 16.6896 51.5986 19.9369 52.5491 23.4702C55.5653 25.5272 57.8419 28.5116 59.0466 31.9785C60.2513 35.4454 60.3178 39.2098 59.2402 42.7171Z" fill="white"/>
<path d="M30.3525 27.2202L22.7947 34.8502C22.3585 33.8824 21.6998 33.033 20.8677 32.3772C20.0386 31.7214 19.0621 31.2793 18.0278 31.0887C16.9906 30.898 15.9217 30.9644 14.9163 31.2822C13.9109 31.5971 12.995 32.1576 12.2497 32.9088C11.5043 33.6599 10.9525 34.5844 10.6376 35.6014C10.3227 36.6154 10.2591 37.6931 10.4469 38.7418C10.6376 39.7876 11.0738 40.7728 11.7239 41.6106C11.7845 41.6857 11.8452 41.7637 11.9088 41.836C12.5299 42.5698 13.3013 43.1563 14.1738 43.555H14.1709L6.63333 51.1676L6.61599 51.185C5.92551 50.6476 5.27836 50.0582 4.68321 49.4255C2.86599 47.5014 1.50814 45.1671 0.733869 42.5987C-0.291748 39.1896 -0.239745 35.5407 0.886989 32.1634C1.5717 30.1093 2.63487 28.2169 4.01006 26.5788C4.88834 25.5243 5.89951 24.5796 7.02046 23.7591C7.21403 23.6176 7.41049 23.4789 7.60983 23.346H7.61272C10.3487 21.5201 13.5555 20.5349 16.8462 20.5147C17.9584 20.5118 19.065 20.6187 20.1512 20.8325H20.1541C21.0469 21.0087 21.9251 21.2572 22.7803 21.5779C23.3234 21.7801 23.8579 22.0112 24.3779 22.2684C26.721 23.4327 28.7664 25.1285 30.3525 27.2202Z" fill="white"/>
<path d="M29.8758 44.1443V54.6749H16.8461C13.9282 54.6894 11.0738 53.9382 8.55164 52.5139L16.8432 44.1443H29.8758Z" fill="white"/>
</g>
<defs>
<clipPath id="clip0_101559_3949">
<rect width="60" height="48.75" fill="white" transform="translate(0 6)"/>
</clipPath>
</defs>
</svg>
