<svg width="60" height="60" viewBox="0 0 60 60" fill="none" xmlns="http://www.w3.org/2000/svg">
<g clip-path="url(#clip0_101559_3875)">
<path fill-rule="evenodd" clip-rule="evenodd" d="M36.9898 0H27.1656V14.8293C25.6989 14.4536 24.4853 14.3283 22.8921 14.3283C12.6253 14.3283 6 20.766 6 30.6856C6 40.9809 12.246 46.3415 24.245 46.354C28.2532 46.354 31.9577 45.9795 36.9898 45.0277V0ZM24.1972 22.4427C25.4111 22.4427 26.3593 22.568 27.5099 22.9438V38.5633C26.1065 38.7512 25.2214 38.8124 24.1342 38.8124C19.102 38.8124 16.3582 35.9569 16.3582 30.7853C16.3582 25.4737 19.2283 22.4427 24.1972 22.4427Z" fill="white"/>
<path d="M53.0563 38.0819V15.5373H43.2446V34.7251C43.2446 43.1918 42.8021 46.4108 41.3988 49.19C40.0585 51.9078 37.9597 53.6887 33.6229 55.7041L42.739 60C47.0758 57.8446 49.1746 55.8932 50.7678 52.7984C52.4747 49.5795 53.0563 45.8458 53.0563 38.0819Z" fill="white"/>
<path d="M52.0788 0H42.2546V9.98224H52.0788V0Z" fill="white"/>
</g>
<defs>
<clipPath id="clip0_101559_3875">
<rect width="60" height="60" fill="white"/>
</clipPath>
</defs>
</svg>
