<svg width="60" height="60" viewBox="0 0 60 60" fill="none" xmlns="http://www.w3.org/2000/svg">
<path d="M59.4169 24.3418C59.2496 24.2021 57.7468 23.058 54.5189 23.058C53.6838 23.058 52.8213 23.1416 51.9862 23.2813C51.3745 19.0099 47.8397 16.944 47.701 16.8318L46.8385 16.3291L46.2818 17.1387C45.5865 18.2278 45.0573 19.4565 44.7514 20.7128C44.1672 23.1416 44.5292 25.4308 45.7537 27.3856C44.2783 28.2227 41.8854 28.4185 41.3848 28.4461H1.86848C0.838713 28.4461 0.00368188 29.2832 0.00368188 30.3172C-0.0524102 33.779 0.532853 37.2409 1.72878 40.508C3.09192 44.082 5.12394 46.7342 7.7391 48.3535C10.6887 50.1685 15.5031 51.2015 20.9292 51.2015C23.3782 51.2015 25.8272 50.9781 28.2476 50.5315C31.6142 49.9177 34.8432 48.745 37.8203 47.0422C40.2693 45.6187 42.4675 43.8036 44.3323 41.6817C47.4767 38.1362 49.3414 34.1717 50.7046 30.6538H51.2613C54.684 30.6538 56.7996 29.2853 57.968 28.1127C58.7469 27.3867 59.3311 26.4934 59.7492 25.488L60 24.762L59.4158 24.3429L59.4169 24.3418Z" fill="white"/>
<path d="M5.56646 27.3232H10.8539C11.1048 27.3232 11.327 27.1274 11.327 26.848V22.0939C11.327 21.842 11.1323 21.6187 10.8539 21.6187H5.56646C5.31564 21.6187 5.09338 21.8145 5.09338 22.0939V26.848C5.1209 27.1274 5.31564 27.3232 5.56646 27.3232ZM12.8563 27.3232H18.1438C18.3946 27.3232 18.6169 27.1274 18.6169 26.848V22.0939C18.6169 21.842 18.4221 21.6187 18.1438 21.6187H12.8563C12.6055 21.6187 12.3832 21.8145 12.3832 22.0939V26.848C12.4108 27.1274 12.6055 27.3232 12.8563 27.3232ZM20.2869 27.3232H25.5744C25.8252 27.3232 26.0475 27.1274 26.0475 26.848V22.0939C26.0475 21.842 25.8528 21.6187 25.5744 21.6187H20.2869C20.0361 21.6187 19.8139 21.8145 19.8139 22.0939V26.848C19.8139 27.1274 20.0086 27.3232 20.2869 27.3232ZM27.6054 27.3232H32.8928C33.1437 27.3232 33.3659 27.1274 33.3659 26.848V22.0939C33.3659 21.842 33.1712 21.6187 32.8928 21.6187H27.6054C27.3545 21.6187 27.1323 21.8145 27.1323 22.0939V26.848C27.1323 27.1274 27.3545 27.3232 27.6054 27.3232ZM12.8563 20.5286H18.1438C18.3946 20.5286 18.6169 20.3053 18.6169 20.0535V15.2994C18.6169 15.0475 18.4221 14.8242 18.1438 14.8242H12.8563C12.6055 14.8242 12.3832 15.02 12.3832 15.2994V20.0535C12.4108 20.3053 12.6055 20.5286 12.8563 20.5286ZM20.2869 20.5286H25.5744C25.8252 20.5286 26.0475 20.3053 26.0475 20.0535V15.2994C26.0475 15.0475 25.8528 14.8242 25.5744 14.8242H20.2869C20.0361 14.8242 19.8139 15.02 19.8139 15.2994V20.0535C19.8139 20.3053 20.0086 20.5286 20.2869 20.5286ZM27.6054 20.5286H32.8928C33.1437 20.5286 33.3659 20.3053 33.3659 20.0535V15.2994C33.3659 15.0475 33.1437 14.8242 32.8928 14.8242H27.6054C27.3545 14.8242 27.1323 15.02 27.1323 15.2994V20.0535C27.1323 20.3053 27.3545 20.5286 27.6054 20.5286ZM27.6054 13.7045H32.8928C33.1437 13.7045 33.3659 13.5087 33.3659 13.2293V8.4752C33.3659 8.22331 33.1437 8 32.8928 8H27.6054C27.3545 8 27.1323 8.19579 27.1323 8.4752V13.2293C27.1323 13.4812 27.3545 13.7045 27.6054 13.7045ZM34.9788 27.3232H40.2663C40.5171 27.3232 40.7394 27.1274 40.7394 26.848V22.0939C40.7394 21.842 40.5446 21.6187 40.2663 21.6187H34.9788C34.728 21.6187 34.5058 21.8145 34.5058 22.0939V26.848C34.5333 27.1274 34.728 27.3232 34.9788 27.3232Z" fill="white"/>
</svg>
