<svg width="60" height="60" viewBox="0 0 60 60" fill="none" xmlns="http://www.w3.org/2000/svg">
<path d="M17.9298 51.0844C15.6441 49.2706 13.2059 47.5316 11.5398 45.0829C8.03395 40.7647 5.33464 35.7651 3.48928 30.5112C2.37388 27.0948 1.99188 23.4321 0.553988 20.1477C-0.95019 17.7623 0.811749 15.1546 3.40169 14.3963C4.55478 14.1731 6.58228 13.0758 4.13488 13.8601C1.94071 15.4842 1.72836 12.3858 3.97831 12.1896C5.5138 11.9837 6.07905 10.7155 5.55396 9.57388C3.9057 8.48948 9.55075 7.2977 6.71039 5.67962C3.75149 2.45894 10.8492 1.83895 9.09812 5.49666C8.67896 8.30928 14.0577 4.98116 12.8097 8.22913C14.0782 9.78891 17.5598 8.58414 17.4734 10.7724C19.3212 10.9005 19.9554 12.4691 21.69 12.5895C23.4877 13.4086 26.7468 14.054 27.3585 16.0979C25.5749 17.5225 21.4448 13.1552 21.2464 17.0986C21.7852 22.924 21.6479 28.9249 23.7605 34.4724C24.7597 37.8314 27.1821 40.4756 29.3698 43.0918C31.4629 45.654 34.2982 47.4577 37.188 48.9765C39.723 50.1826 42.4561 50.9826 45.2188 51.4846C46.3394 50.6199 48.3177 47.4051 50.0658 48.7607C50.1487 50.2838 46.5962 51.9448 49.8986 51.7764C51.8378 51.1862 53.1828 53.2894 54.7797 51.3923C56.2509 53.1505 60.8946 50.269 59.8478 53.8627C58.4323 54.784 56.3679 54.2273 54.9501 55.4948C52.6125 54.3168 50.7514 56.5487 48.1635 56.2665C45.2896 56.7858 42.3658 56.9954 39.452 57C34.6719 56.619 29.7905 56.4584 25.243 54.7793C22.6813 54.0283 20.1813 52.5567 17.9298 51.0844ZM21.9669 52.8491C24.4683 53.9405 26.9143 55.0907 29.6557 55.4377C34.005 56.048 38.4965 56.9867 42.8614 56.1304C40.8859 55.2304 38.8436 56.481 36.8755 55.4869C34.5151 55.9993 31.982 55.3563 29.5824 55.0398C26.8536 53.8135 23.9087 52.9702 21.3533 51.3785C18.1602 50.2018 23.0047 52.8874 23.8671 53.1049C25.8631 54.248 21.672 52.519 21.0811 52.0438C19.4093 51.0976 19.1962 51.2954 20.9156 52.2562C21.2619 52.4607 21.6041 52.675 21.9669 52.8491ZM17.2071 49.4554C19.6311 50.3613 17.1964 47.7357 16.0856 47.8883C15.5935 47.0269 14.2054 46.4827 15.1846 46.02C13.4233 46.6369 13.3395 43.6741 12.5116 44.0974C10.6483 43.5038 11.7864 41.401 9.56686 40.1097C9.36426 38.749 7.36165 37.5688 6.7229 35.5164C6.4408 34.4656 4.46039 31.448 5.67696 34.2564C6.7128 36.9599 8.5353 39.2751 10.052 41.5877C11.2296 43.7895 12.6202 46.0907 14.765 47.4643C15.488 48.164 16.1861 49.2361 17.2071 49.4554ZM10.2241 41.7205C10.3087 41.3512 10.6674 42.5199 10.2241 41.7205V41.7205ZM20.11 50.5413C19.3382 50.2358 20.6468 50.2988 20.11 50.5413V50.5413ZM21.4259 51.0255C20.8252 51.3994 21.2896 50.3569 21.4259 51.0255V51.0255ZM23.0729 51.7187C21.8645 51.2437 23.8571 50.9654 23.0729 51.7187V51.7187ZM25.8959 53.306C24.3708 53.0379 26.3724 52.5955 25.8959 53.306V53.306ZM20.475 49.4936C18.9019 49.4826 21.693 48.6987 20.475 49.4936V49.4936ZM21.7106 50.1152C21.2703 50.3034 21.6761 49.695 21.7106 50.1152V50.1152ZM27.886 54.0039C28.8788 54.6359 33.6832 55.3892 30.6747 54.263C30.1714 54.3701 25.0964 52.8148 27.886 54.0039ZM18.0824 46.3007C16.5415 45.8354 17.9859 45.8792 18.0824 46.3007V46.3007ZM20.9573 47.991C19.4043 47.585 21.7054 47.4646 20.9573 47.991V47.991ZM23.3754 49.4869C21.6337 49.0766 24.4491 49.0785 23.3754 49.4869V49.4869ZM16.9126 45.0153C18.0775 45.9166 21.6105 45.1308 18.6965 44.4772C17.3703 43.764 14.3811 43.2758 16.4186 44.9073L16.9126 45.0153L16.9126 45.0153ZM25.0133 50.0034C22.9784 49.5271 25.4985 49.1693 25.0133 50.0034V50.0034ZM22.5517 48.0297C25.4002 48.8426 20.1564 46.2124 21.8489 47.7305L22.224 47.9018L22.5517 48.0297L22.5517 48.0297ZM27.4869 50.9075C25.0503 50.5323 30.1846 50.9334 27.4869 50.9075V50.9075ZM15.8746 43.4406C15.2089 43.4831 15.7692 42.9337 15.8746 43.4406V43.4406ZM32.0502 53.4899C31.1699 54.1713 32.1222 52.5743 32.0502 53.4899V53.4899ZM20.4783 46.2849C19.6354 46.2652 20.3151 45.8028 20.4783 46.2849V46.2849ZM16.1304 43.1226C14.0101 42.4341 17.6792 43.0287 16.1304 43.1226V43.1226ZM10.9798 39.7637C9.29458 38.4173 10.7871 39.0147 10.9798 39.7637V39.7637ZM24.5014 48.4211C24.2177 48.0947 24.3679 48.4925 24.5014 48.4211V48.4211ZM32.9176 53.6317C32.4592 53.8205 32.8906 53.1329 32.9176 53.6317V53.6317ZM23.7565 47.6451C22.4359 47.4505 23.908 47.0025 23.7565 47.6451V47.6451ZM17.4865 43.6361C15.6408 42.8503 18.6387 43.5117 17.4865 43.6361V43.6361ZM28.0928 50.2852C26.3428 49.9348 29.8883 49.5675 28.0928 50.2852V50.2852ZM22.5759 46.5069C24.6452 46.7761 20.1137 45.0869 22.1218 46.3558L22.5759 46.5069L22.5759 46.5069ZM29.7677 50.9683C31.6996 49.803 31.0627 53.6969 33.0453 51.2972C35.001 49.8566 31.3564 53.0783 33.7667 51.5541C35.5098 50.3779 38.0845 52.1116 39.711 52.6773C40.8807 52.6194 42.0178 53.6977 43.2169 53.0417C45.5252 52.4144 38.7031 52.1114 40.4914 50.9985C38.3793 51.6187 36.8188 50.2591 35.7795 48.8942C33.4103 48.3423 30.671 47.1203 29.4886 45.005C29.0065 44.2108 30.1851 45.1169 29.0725 43.8187C27.6449 42.5376 26.932 41.0835 25.9737 39.5262C24.8288 38.9101 24.6954 37.0963 24.5797 39.4654C24.5887 37.9703 23.1974 36.9639 22.8578 37.3822C22.8517 35.9423 24.3468 36.6641 23.3002 35.5987C23.0749 34.1063 22.3332 32.5511 22.1102 30.8661C21.7638 30.0538 22.0614 28.3142 20.928 30.1529C20.515 32.0962 20.7909 27.7649 21.4331 29.1932C22.276 27.7357 21.1305 27.9072 21.0836 28.1095C21.6326 26.8798 21.4311 25.1356 20.9403 25.801C21.2329 24.4976 21.4025 21.0043 20.5024 21.6234C21.048 20.2605 21.5372 15.387 19.1686 17.2451C18.2086 17.2587 16.5463 17.5966 15.7605 17.9909C18.2243 19.3611 15.5127 18.4857 14.5098 18.2679C14.3791 19.5358 13.3857 18.9874 12.1447 18.9999C14.1269 19.2473 11.1794 21.0452 10.0423 20.3468C8.5655 21.0589 11.3168 22.8364 10.0719 23.386C10.2249 24.2146 7.80946 23.0868 7.99917 25.0003C6.56547 24.3918 7.80175 27.2701 8.51903 26.2966C10.9575 26.9624 10.2356 28.4804 10.2977 29.9224C9.90043 30.7626 8.33618 27.9474 9.94936 28.0778C8.67669 25.992 8.54156 27.3239 7.48401 28.2928C7.23798 28.3632 10.1816 29.6715 8.33431 30.3184C9.95952 30.5714 10.0058 32.0063 10.3366 32.9142C11.3135 33.9407 11.1135 31.7808 12.2823 33.0144C11.5427 31.9154 8.36461 29.9179 10.9234 30.5585C10.9097 29.4525 10.4606 28.5605 11.2446 28.5822C12.0209 27.1638 10.4315 32.0794 12.1814 30.2767C12.6658 30.0633 12.7858 28.8565 13.6565 30.3907C14.9211 31.6458 14.1133 32.5553 12.3294 31.4061C12.6485 32.4984 14.7158 32.8887 14.3273 34.5969C14.7391 36.0993 15.3153 35.5459 15.8175 35.4591C16.2115 36.9188 16.4353 35.8454 16.454 35.1508C18.2579 35.5404 17.8354 36.6162 18.3998 37.3679C19.6429 37.9339 16.6205 33.5308 18.7547 36.0439C21 38.0891 19.5967 38.9428 17.5818 38.6152C18.8571 38.5112 19.2684 40.3546 20.8636 40.2898C22.3182 40.988 23.3031 43.6696 20.7957 42.5533C19.9261 41.7622 16.8485 40.7863 19.3622 42.291C21.6838 43.3757 23.5276 44.0245 25.7667 45.386C27.3692 46.5402 28.0615 47.8621 28.6688 48.1237C27.3221 48.7727 24.6102 47.6055 26.6239 47.2478C25.3679 47.0169 23.9552 46.3761 25.1582 47.955C26.1812 48.8167 28.7826 48.7254 29.2489 48.8231C28.8536 49.7018 28.1752 49.7716 29.2651 49.8398C28.0492 50.4935 29.655 50.5947 29.7677 50.9683H29.7677ZM27.2813 43.8845C26.5416 43.104 26.3503 41.6421 27.1499 42.9142C27.56 43.0803 28.4636 45.3032 27.2813 43.8845H27.2813ZM35.3784 49.0737C35.3918 49.4273 35.8398 49.0435 35.3784 49.0737V49.0737ZM26.1133 41.9708C26.0849 40.7908 26.3808 42.8809 26.1133 41.9708V41.9708ZM25.3085 40.8784C24.3781 39.0646 26.4815 41.3921 25.3085 40.8784V40.8784ZM15.5562 34.0876C15.8252 35.0308 16.1029 33.9405 15.5562 34.0876V34.0876ZM23.3178 38.332C23.6535 37.0601 23.7123 39.3992 23.3178 38.332V38.332ZM17.8345 34.4853C17.4479 33.7835 18.643 35.1436 17.8345 34.4853V34.4853ZM22.5403 36.0073C21.6588 34.0147 23.1644 34.9189 22.7354 36.3338L22.5403 36.0073ZM14.425 30.5471C14.0309 29.8934 13.379 27.9754 13.5889 27.3898C13.7788 28.3434 15.5989 31.4937 14.4817 28.6948C13.2471 26.3486 15.9575 29.4563 16.2363 30.0415C16.3661 30.6237 15.4746 29.8825 16.0787 31.2475C14.977 29.6934 15.4283 32.1059 14.425 30.5471ZM11.917 28.8035C12.0202 27.2836 12.4911 29.8458 11.917 28.8035V28.8035ZM13.0451 29.1953C13.5835 28.0481 13.9579 30.7946 13.0451 29.1953V29.1953ZM10.3313 27.0773C9.39755 26.1412 8.72182 25.2783 10.375 26.4963C11.012 26.5214 8.95974 24.534 10.5284 25.8652C12.1779 26.1686 11.3429 28.5938 10.3313 27.0773ZM11.7568 27.0397C12.0447 27.5734 12.2991 26.4976 11.7568 27.0397V27.0397ZM12.634 27.3234C11.8119 25.7688 13.6317 27.9752 12.634 27.3234V27.3234ZM10.8903 25.6422C8.17575 23.205 14.3012 26.9167 11.3337 26.0941L10.8903 25.6423L10.8903 25.6422ZM18.6678 30.2013C17.4931 29.4907 18.3565 25.1988 18.7571 28.1342C19.8991 27.7615 18.694 29.6501 19.5458 29.6326C19.4116 30.8243 19.0305 31.2527 18.6678 30.2013ZM21.5445 31.9166C21.6597 30.6232 21.787 32.8009 21.5445 31.9166V31.9166ZM21.0448 31.4185C21.0582 32.0692 21.1742 30.8659 21.0448 31.4185V31.4185ZM11.4228 24.8414C9.67887 22.4139 16.491 27.2968 12.5397 25.4571C12.1268 25.3481 11.63 25.3092 11.4228 24.8414ZM16.9624 27.8045C16.7974 25.7606 17.3309 28.1433 16.9623 27.8045L16.9624 27.8045ZM21.1682 30.5265C21.1925 31.2967 21.4937 29.3623 21.1682 30.5265V30.5265ZM11.6899 23.9149C12.7264 23.6913 15.9852 25.7514 12.9926 24.5034C12.6601 24.132 11.9512 24.3008 11.6899 23.9149ZM20.5904 28.3904C20.7012 26.3004 21.2092 27.142 20.5942 28.6895L20.5904 28.3904L20.5904 28.3904H20.5904ZM12.4614 23.1877C12.8838 22.5627 11.3404 20.3621 12.6839 22.3983C13.2644 22.8637 14.3648 23.1779 13.3933 23.3737C14.9211 24.7335 13.0206 23.7422 12.4614 23.1877ZM20.1502 27.7375C20.4074 29.1324 20.4419 25.3567 20.1502 27.7375V27.7375ZM11.5795 20.9887C11.7498 21.4223 11.902 20.8496 11.5795 20.9887V20.9887ZM13.585 22.193C14.1011 21.1004 14.5371 23.4116 13.585 22.193V22.193ZM19.2421 25.368C19.2367 24.9483 19.3489 25.9784 19.2421 25.368V25.368ZM18.9144 24.636C18.1292 22.6817 19.6448 25.6708 18.9144 24.636V24.636ZM18.4323 23.3547C18.3005 22.5471 18.8803 24.3692 18.4323 23.3547L18.4323 23.3547ZM19.2169 22.0679C18.6781 21.11 19.8973 17.8465 20.0334 19.8705C19.4647 21.4475 19.8693 22.3298 20.2661 20.2145C20.9987 18.5497 20.1078 23.4996 19.2169 22.0679L19.2169 22.0679ZM20.0232 17.2145C20.0754 17.5651 20.2581 16.9235 20.0232 17.2145V17.2145ZM18.6767 43.9834C18.3573 43.7022 18.7168 44.1624 18.6767 43.9834V43.9834ZM21.4507 45.3991C22.9937 45.7985 22.9858 45.1569 21.5912 44.9663C20.8411 44.2623 18.4743 43.5156 20.5927 44.8789C20.733 45.2375 21.1764 45.2291 21.4507 45.3991ZM15.9722 41.7281C16.8223 42.3676 19.1741 43.5406 17.1832 41.9715C17.8545 41.1847 15.8984 40.7659 16.5473 40.2395C14.8969 39.2207 15.2453 39.3113 16.4016 39.3434C14.4181 38.4489 16.6879 38.5158 16.581 38.0575C15.8162 37.9051 12.7822 36.6969 14.5671 38.1567C12.7526 37.2234 14.1347 38.5044 13.5863 38.369C11.7309 37.8586 15.2386 39.7947 13.2916 39.3141C14.356 40.1651 16.1567 41.494 13.7416 40.2147C13.4234 40.6768 15.4699 41.3773 15.9722 41.7281ZM18.8734 43.4096C17.144 42.0085 22.401 44.5564 18.8734 43.4096V43.4096ZM33.7249 52.4865C33.2427 53.0888 33.7704 51.7805 33.7249 52.4865V52.4865ZM35.2513 53.1347C36.0652 52.339 35.2846 54.402 36.5999 52.9399C36.6141 51.8932 36.5594 51.2749 35.0884 52.5464C34.6829 52.7733 34.5018 53.738 35.2513 53.1347ZM11.0206 37.7821C9.26861 36.796 10.7707 36.7909 11.0206 37.7821V37.7821ZM12.6506 38.8597C10.491 37.9431 12.0453 37.8472 12.6506 38.8597V38.8597ZM21.9235 44.5017C22.8289 45.313 26.0816 45.097 23.0231 44.6016C22.5701 43.9258 20.1467 44.0885 21.9235 44.5017ZM34.6707 52.4441C33.3207 52.9704 36.0641 51.2645 34.6707 52.4441V52.4441ZM37.5687 54.4533C36.9681 54.619 37.5774 54.0747 37.5687 54.4533V54.4533ZM37.5731 53.9233C39.1161 52.2739 36.078 54.0209 37.5731 53.9233H37.5731ZM7.01165 34.3961C5.69653 32.503 6.19414 31.652 4.92591 30.1063C4.68582 28.9243 2.75023 26.242 3.92478 29.0837C5.0006 30.7456 5.32029 33.3188 7.01165 34.3961ZM37.0891 53.399C35.9239 52.5926 39.9279 51.5478 37.0891 53.399V53.399ZM39.2561 54.2554C38.3569 53.9979 40.6777 53.024 39.2561 54.2554V54.2554ZM10.5375 35.6896C9.48676 35.6115 10.9443 35.079 10.5375 35.6896V35.6896ZM38.8037 53.6707C40.1801 52.7753 38.4865 52.9128 38.5542 53.753L38.8037 53.6707H38.8037ZM20.1238 41.792C19.3969 41.8434 20.0765 41.1875 20.1238 41.792V41.792ZM21.2782 42.4622C20.7141 42.5797 20.9113 41.7139 21.2782 42.4622V42.4622ZM41.0123 54.2757C42.7757 52.9923 39.9433 54.03 40.6421 54.5189L41.0123 54.2757ZM40.337 53.9465C38.8204 54.4846 41.7735 52.732 40.337 53.9465V53.9465ZM43.787 56.2644C42.6153 56.0536 44.7515 55.6126 43.787 56.2644V56.2644ZM11.422 35.2493C12.7149 35.5415 16.5885 38.4615 14.3032 35.4512C13.1328 35.1017 13.8348 32.2152 12.6409 32.7261C13.4422 34.0766 13.3002 34.6515 11.6178 33.8C9.50327 32.7587 10.4295 34.3161 10.8427 34.7453C10.2796 34.8744 11.5876 35.2384 11.422 35.2493ZM5.53191 30.5563C5.76336 29.5905 3.40076 25.243 4.41625 28.3779C4.78281 29.0346 4.74554 30.2791 5.53191 30.5563ZM16.3428 37.2806C15.6771 36.719 16.3112 37.2012 16.3428 37.2806V37.2806ZM17.9822 37.6655C16.1701 37.2501 17.9814 36.6425 17.9822 37.6655V37.6655ZM32.1886 46.701C31.9177 46.002 31.1176 46.6848 32.1887 46.701L32.1886 46.701ZM32.8708 47.2037C32.4773 47.2793 32.7701 46.8125 32.8708 47.2037V47.2037ZM38.5018 50.7821C37.826 50.7305 39.0434 50.3784 38.5018 50.7821V50.7821ZM8.47407 31.3141C6.81438 30.8826 10.0231 30.709 8.47407 31.3141V31.3141ZM30.938 45.5922C29.9505 45.8432 30.9208 44.5805 30.938 45.5922V45.5922ZM7.86204 29.8752C6.94156 29.6518 8.85708 29.5361 7.86204 29.8752V29.8752ZM10.7502 31.2866C10.4447 31.4125 10.7321 30.9541 10.7502 31.2866V31.2866ZM45.9768 53.08C47.2563 52.8183 50.1721 53.737 50.6433 52.7377C49.0895 52.6996 45.2675 51.6317 45.0867 52.9926L45.4268 53.0466L45.9768 53.08ZM11.6681 31.52C10.8757 31.4817 11.6903 30.4948 11.6681 31.52V31.52ZM4.07447 26.2057C2.76285 25.91 3.72961 24.2524 4.07447 26.2057V26.2057ZM5.88527 26.6649C4.22784 26.1005 5.90752 26.0377 5.88527 26.6649V26.6649ZM6.92009 27.1776C6.62097 26.9332 6.68596 27.4864 6.92009 27.1776V27.1776ZM13.4313 31.3917C12.7056 31.1813 13.7379 31.1076 13.4313 31.3917V31.3917ZM6.23085 26.0212C4.13354 25.8002 6.05583 24.5459 6.23085 26.0212V26.0212ZM2.51842 23.591C2.15664 23.8478 2.46562 22.9101 2.51842 23.591V23.591ZM3.07063 23.1702C2.59652 23.2729 2.98054 22.3629 3.07063 23.1702V23.1702ZM6.12174 25.0076C7.41192 24.4963 3.77168 23.95 5.85812 24.911L6.12174 25.0076ZM46.9561 50.4544C45.9066 50.2183 47.7819 49.6906 46.9561 50.4544V50.4544ZM51.8892 53.0343C51.056 53.1643 52.2201 52.0467 51.8892 53.0343V53.0343ZM6.43356 23.3943C5.41071 23.5839 6.56947 22.4389 6.43356 23.3943V23.3943ZM2.09257 20.46C1.85937 19.1113 1.89127 16.7439 4.12181 17.544C1.14441 18.1404 6.1825 21.2775 5.54628 18.8006C6.79821 18.8624 7.99535 18.0541 7.33835 19.2808C9.80502 19.0059 11.5151 16.848 13.8978 17.1504C15.7537 16.9026 17.783 16.7147 19.783 15.9609C21.4274 15.8414 23.0104 14.0552 22.109 12.9965C19.8665 12.8051 17.5191 13.0882 15.0405 13.5852C12.2939 14.1613 9.79912 15.2557 7.02789 15.7255C4.32671 16.0916 7.5712 16.7341 6.79748 16.8773C5.38797 17.3707 8.47843 17.7034 6.61475 18.2235C5.46377 18.0028 4.26575 17.6038 4.7574 16.3801C2.16991 16.7188 -0.103747 17.8023 1.94052 20.4588L2.09256 20.4599L2.09257 20.4598V20.46ZM8.32747 17.2564C8.93414 15.0016 11.5777 19.1118 9.32184 17.5559C9.05239 17.3524 8.60925 17.1864 8.32747 17.2564ZM8.4455 16.1632C8.91096 16.5321 9.3211 15.5051 8.4455 16.1632V16.1632ZM9.55731 16.181C9.63635 15.1434 12.1024 16.7303 9.96394 16.5545L9.55731 16.181ZM11.0782 15.5641C11.2378 16.1464 11.6336 14.9094 11.0782 15.5641V15.5641ZM11.4672 15.3012C12.392 14.1802 16.7044 14.5857 13.5479 15.1919C12.7018 14.5493 12.0533 15.5708 11.4672 15.3012ZM17.095 14.426C16.9543 11.3638 19.8909 15.5142 17.095 14.426V14.426ZM18.6919 14.4172C19.2757 12.8738 20.9574 13.7979 18.962 14.107C19.0054 14.2713 18.9035 14.9038 18.6919 14.4172ZM5.80387 22.6021C3.95203 21.6671 7.54824 21.5244 5.80387 22.6021V22.6021ZM7.09365 22.9636C5.76475 22.6975 7.70524 22.3076 7.09365 22.9636V22.9636ZM3.29336 20.2426C2.11387 19.9489 4.29009 19.4701 3.29336 20.2426V20.2426ZM54.801 52.752C54.0391 53.1559 54.8298 51.8558 54.801 52.752V52.752ZM49.5671 49.1486C48.8946 49.2385 49.716 48.1168 49.5671 49.1486V49.1486ZM56.2402 53.0995C57.6338 53.1043 60.4626 52.6629 57.4305 52.6643C56.9546 52.7391 54.658 52.7231 56.2402 53.0995L56.2402 53.0995ZM8.22817 22.3312C9.356 22.253 9.99272 21.0761 8.01004 21.1437C4.93722 20.8228 10.7211 22.2052 7.61585 21.8099C7.19859 22.0887 8.20393 22.4083 8.22817 22.3312ZM9.22146 22.8384C8.87269 23.2265 9.1037 22.1078 9.22146 22.8384V22.8384ZM10.3997 19.6686C9.72247 19.5049 10.8891 19.0562 10.3997 19.6686V19.6686ZM6.64887 13.3432C8.66171 12.6524 11.4142 11.8761 12.3646 13.6834C11.3974 12.5089 11.9743 11.3527 12.8879 13.0699C14.1796 14.8073 14.8263 12.2796 13.9861 11.6969C14.9436 12.8971 16.0326 13.4643 14.6272 11.7727C16.1544 9.91932 11.5692 12.0154 10.527 11.9943C10.0256 12.2214 5.3501 13.1973 6.64887 13.3432ZM7.82851 11.0639C8.97645 10.1898 11.7987 11.5839 9.98768 10.1952C9.81062 10.0374 6.02153 11.2483 7.82851 11.0639ZM12.0136 11.2382C13.3571 11.2728 11.434 9.41733 13.035 10.2581C12.7721 9.39153 11.171 9.22929 10.3883 8.88306C9.9456 9.67537 11.2894 11.2489 12.0136 11.2382ZM8.56234 7.40551C7.74777 7.72778 9.02713 6.76984 8.56234 7.40551V7.40551ZM10.2728 7.81855C12.4379 7.52884 9.72095 6.87789 9.83656 7.79527L10.2728 7.81855V7.81855V7.81855ZM7.079 5.29726C5.55455 3.28954 9.94593 5.63475 8.39709 3.5326C7.09349 2.48532 5.8408 4.71115 7.079 5.29726ZM26.6429 15.9285C27.3421 14.678 23.7562 14.2429 26.1718 15.4853C26.3942 15.5603 26.3438 16.015 26.6429 15.9285Z" fill="white"/>
</svg>
