<svg width="60" height="60" viewBox="0 0 60 60" fill="none" xmlns="http://www.w3.org/2000/svg">
<path d="M51.6 0H8.4C5.418 0 3 2.418 3 5.4V54.6C3 57.582 5.418 60 8.4 60H51.6C54.582 60 57 57.582 57 54.6V5.4C57 2.418 54.582 0 51.6 0ZM16.5 51V39L23.25 45L16.5 51ZM37.5 51V33.0825C37.4707 31.6823 36.7965 30 33.75 30C27.6495 30 20.8065 33.0682 20.7382 33.099L16.5 35.019V9H22.5V26.0332C25.4955 25.0582 29.6828 24 33.75 24C37.4588 24 39.6787 25.458 40.8877 26.6813C43.4685 29.2913 43.5037 32.616 43.5002 33V51H37.5ZM39 18.75H33C35.358 15.6562 36.8385 12.4005 37.5 9H43.5C43.095 12.408 41.7135 15.675 39 18.75Z" fill="white"/>
</svg>
