<svg width="60" height="60" viewBox="0 0 60 60" fill="none" xmlns="http://www.w3.org/2000/svg">
<g clip-path="url(#clip0_101559_3927)">
<path d="M54.233 47.6199C54.0219 47.2335 53.764 46.7879 53.3937 46.3963C52.8382 45.8132 52.4973 45.0753 52.2879 44.0031C52.0681 42.8701 51.6563 41.5386 50.4795 40.6318C51.2323 37.2587 50.7443 33.8996 48.9723 30.154C47.5896 27.2352 45.6168 24.7689 43.708 22.3845L43.3118 21.8884C41.5743 19.7111 40.8043 17.4241 40.889 14.6898C40.9617 12.3714 40.7783 9.9765 40.3405 7.57288C39.6015 3.51579 37.1909 0.901575 33.5499 0.214081C32.7954 0.0731007 31.9665 0 31.0892 0C30.3918 0 29.639 0.0452528 28.8499 0.135758C24.7711 0.60047 21.9469 3.24776 21.2945 7.21782C20.9536 9.30119 20.8636 11.5604 21.028 13.9361C21.3049 17.9462 20.386 21.0808 18.1311 23.8012C16.9232 25.2598 15.7759 26.9272 14.5178 29.0488C12.8842 31.804 11.0602 35.5287 11.3527 40.0122C11.2212 40.174 11.0966 40.3342 10.9737 40.4926C10.2573 41.4063 9.6914 42.1269 8.72578 42.4106C6.04349 43.1938 4.93423 45.0718 5.42569 47.9889C5.62124 49.1498 5.58663 50.0583 5.31667 50.9355C4.8477 52.4515 4.89962 53.6646 5.47242 54.6462C6.05733 55.6453 7.13025 56.298 8.75173 56.6408C9.08226 56.7105 9.41452 56.7627 9.73812 56.7992C12.2231 57.0725 14.1215 57.4293 15.9057 58.357C17.0634 58.9574 18.3768 59.1785 19.2646 59.2899C19.6799 59.3438 20.0831 59.3699 20.4621 59.3699C22.5941 59.3699 24.2536 58.5467 25.3992 56.9228C25.8025 56.8793 26.2057 56.8323 26.6089 56.787C28.2875 56.5973 30.0232 56.3989 31.7139 56.3189C31.7969 56.3136 31.8817 56.3119 31.9665 56.3119C32.5289 56.3119 33.1225 56.392 33.7524 56.4772C34.2179 56.5399 34.699 56.6043 35.1922 56.6408C36.2167 58.7782 38.1254 60 40.4547 60C40.7022 60 40.9565 59.9861 41.2109 59.9582C43.3602 59.7267 45.2742 58.6703 46.9008 56.8184C47.7921 55.8037 48.9152 54.9682 50.3324 54.2668L50.4484 54.2094C51.286 53.7951 52.1529 53.3652 52.9801 52.8274C54.9027 51.5725 55.3596 49.6737 54.233 47.6199ZM52.2256 51.6578C51.433 52.1765 50.5713 52.5959 49.7198 53.0189C48.2576 53.7429 46.9579 54.6515 45.8625 55.8977C44.5923 57.3423 43.0331 58.3605 41.0621 58.5745C38.9543 58.8008 37.2567 57.8592 36.3811 55.9081C36.1665 55.4329 35.9294 55.2902 35.4276 55.2606C34.1643 55.1858 32.8993 54.8673 31.6481 54.9282C29.3552 55.0378 27.0726 55.3442 24.7901 55.5896C24.6551 55.6035 24.5028 55.7636 24.4198 55.8942C23.2344 57.76 21.4346 58.162 19.4376 57.9097C18.4512 57.7843 17.4129 57.572 16.5408 57.1195C14.4365 56.0265 12.1851 55.6679 9.88868 55.4155C9.60315 55.3825 9.31761 55.3372 9.03727 55.278C6.69243 54.7837 5.931 53.635 6.63878 51.348C7.0143 50.1297 6.99354 48.9688 6.79107 47.7574C6.42766 45.6026 7.04372 44.3512 9.11168 43.7473C10.856 43.2373 11.6296 41.8171 12.6627 40.6057C12.7561 40.496 12.7613 40.2767 12.7492 40.1131C12.4377 36.2875 13.8256 32.9353 15.7067 29.7624C16.7519 27.9993 17.8923 26.2658 19.1954 24.6924C21.8327 21.509 22.691 17.9027 22.4089 13.8404C22.2618 11.7205 22.3172 9.53616 22.6616 7.44409C23.2205 4.02924 25.5792 1.90932 29.0056 1.51945C30.4195 1.35758 31.9077 1.32103 33.2956 1.58385C36.6683 2.21913 38.3988 4.63667 38.9786 7.82351C39.3852 10.06 39.5773 12.3766 39.5064 14.6462C39.4095 17.753 40.3353 20.3829 42.2319 22.7604C44.2514 25.2911 46.3177 27.787 47.7211 30.7528C49.308 34.1049 50.0054 37.5442 48.8702 41.3088C50.2476 41.8536 50.6855 43.0163 50.9295 44.2712C51.1579 45.4356 51.5628 46.4851 52.3918 47.3588C52.6461 47.6268 52.8417 47.9627 53.0217 48.2917C53.7917 49.6963 53.5598 50.7893 52.2256 51.6578Z" fill="white"/>
<path d="M29.5612 12.1226C29.6563 11.6474 29.8207 11.167 30.0492 10.7423C31.1204 8.74949 33.4565 8.71119 34.616 10.6466C35.5401 12.1904 35.4207 14.1676 34.2716 15.5705C33.8148 15.3808 33.396 15.2067 33.1087 15.0866C33.1797 14.246 33.3319 13.5097 33.2783 12.7874C33.2316 12.1434 32.9114 11.4855 32.1379 11.4821C31.4163 11.4768 31.1411 12.1017 30.9733 12.7004C30.866 13.0816 30.8694 13.4941 30.8244 13.8944C29.466 13.6211 29.3033 13.4175 29.5612 12.1226Z" fill="white"/>
<path d="M24.2779 10.248C24.894 9.65969 25.6502 9.59877 26.2992 10.1401C27.2648 10.9477 27.5901 12.0546 27.4482 13.2486C27.4102 13.5584 26.8495 13.8038 26.3926 14.1954C26.2767 13.4923 26.2594 12.3609 25.3664 12.126C24.6985 11.9519 24.5756 13.0067 24.5669 13.4348C24.5617 13.6854 25.0221 15.1753 24.8957 15.2763C24.8784 15.2902 24.6881 15.4468 24.5046 15.5982C23.0995 14.413 22.9974 11.4733 24.2797 10.248H24.2779Z" fill="white"/>
<path d="M33.9427 15.8489C32.7677 15.3163 31.6031 14.7541 30.4142 14.2546C29.8397 14.0127 29.2202 13.8822 28.6197 13.7029C27.552 13.7812 26.7109 14.2355 25.9426 14.8899C25.4182 15.3389 24.887 15.7828 24.3367 16.1987C22.973 17.2291 22.9557 18.1498 24.3159 19.2272C24.9008 19.6937 25.5342 20.0992 26.1018 20.5848C27.4862 21.7718 28.8516 21.9633 30.4748 21.1365C31.4975 20.6161 32.5203 20.0922 33.5291 19.5457C33.8545 19.3682 34.166 19.1454 34.4377 18.8913C35.6767 17.7304 35.4777 16.5468 33.9427 15.8489ZM27.8202 19.8712C26.1606 19.7337 24.9873 18.7225 23.9629 17.532C24.0148 17.4571 24.0667 17.3805 24.1204 17.3057C24.3799 17.5337 24.643 17.7582 24.9008 17.9897C26.8753 19.772 28.4259 19.9913 30.8019 18.7851C31.52 18.4214 32.1984 17.981 32.9062 17.5981C33.235 17.4188 33.5932 17.2953 33.9375 17.1473C33.9704 17.2361 34.005 17.3248 34.0379 17.4136C32.0201 18.3726 30.2948 20.0766 27.8202 19.8712Z" fill="white"/>
<path d="M23.7933 55.5862C23.0354 56.9386 21.7098 57.2101 19.7993 57.3232C19.0569 57.1161 17.759 56.9542 16.6532 56.4008C14.5628 55.3565 12.3598 54.9544 10.0877 54.7351C9.85753 54.7142 9.63083 54.6777 9.40414 54.6342C7.19255 54.206 6.66993 53.4489 7.37944 51.3168C7.81553 50.0027 7.64594 48.7513 7.46597 47.4633C7.23062 45.7751 7.6719 44.9274 9.28473 44.4105C10.6761 43.9632 11.6711 43.1313 12.5087 41.9547C13.9277 39.9636 15.5423 39.9026 17.079 41.8085C17.8335 42.7431 18.3613 43.8588 19.0085 44.8839C19.9603 46.3929 20.912 47.9019 21.8915 49.3935C22.3985 50.1646 22.9869 50.8834 23.4957 51.6544C24.3177 52.9006 24.5513 54.2321 23.7933 55.5862Z" fill="white"/>
<path d="M36.5369 50.5004C33.0932 52.7665 29.4712 53.6315 25.4841 51.9694C24.0685 51.3776 23.3711 50.1854 22.5682 49.0453C22.6374 48.9705 22.6686 48.9044 22.7135 48.8922C24.3766 48.4483 24.8663 47.5033 23.9353 46.0169C23.2431 44.9117 22.2705 43.9648 21.3343 43.0372C20.7685 42.475 20.0468 42.0642 19.3719 41.6221C16.6446 39.8277 15.7604 37.8209 16.3453 34.5871C16.8056 32.0372 18.0481 29.8338 19.3702 27.6703C19.4412 27.7034 19.5104 27.7347 19.5796 27.7678C19.2421 28.4501 18.9133 29.1376 18.5655 29.8146C17.5411 31.8005 16.79 33.8665 17.0963 36.1431C17.2157 37.0412 17.6016 37.9027 17.8664 38.7817C17.9495 38.7555 18.0342 38.7294 18.1173 38.7016C18.3042 37.5999 18.3734 36.4616 18.704 35.4051C19.2456 33.6716 19.8945 31.9641 20.6144 30.2968C21.8742 27.3745 23.2587 24.5044 23.8695 21.3471C23.9716 20.8128 24.0426 20.2733 24.1568 19.5597C24.7902 20.04 25.3283 20.409 25.8215 20.832C27.3704 22.1634 28.8292 22.4036 30.5978 21.4829C32.1673 20.6666 33.6971 19.7755 35.2096 18.9348C35.8724 20.7919 36.5023 22.8109 37.3104 24.7533C38.2985 27.1291 39.4787 29.4213 40.4911 31.7866C41.0137 33.005 41.3875 34.2912 41.7647 35.5652C42.0537 36.5434 42.0105 36.5556 43.2114 36.6983C44.293 32.6743 42.6663 29.5501 40.2298 26.6052C40.3544 26.6696 40.5067 26.7079 40.5984 26.8053C43.1699 29.5449 44.8468 32.6464 44.402 36.5695C44.3501 37.0377 44.5128 37.2169 44.89 37.4241C45.5944 37.8087 46.3281 38.1951 46.9147 38.7312C47.3318 39.1106 47.581 39.7146 47.7956 40.2628C47.8804 40.4839 47.671 40.8215 47.517 41.0791C46.7901 39.1141 44.5197 37.5355 42.3843 37.5476C41.4186 37.5529 40.8666 37.988 40.562 38.9522C40.4876 39.1889 40.4115 39.5231 40.235 39.6119C38.4041 40.5395 38.077 42.2644 37.8244 44.0501C37.5596 45.9368 37.2827 47.8218 36.9764 49.7015C36.9297 49.9887 36.7636 50.3507 36.5369 50.5004Z" fill="white"/>
<path d="M45.3832 41.0233C44.781 41.857 43.9452 42.4209 42.9294 42.4418C42.4673 42.4505 41.7526 42.1268 41.5796 41.7543C41.2231 40.9815 41.031 40.0782 41.0016 39.2201C40.915 36.7173 46.7521 39.1279 45.3832 41.0233Z" fill="white"/>
<path d="M51.7791 51.1182C51.1007 51.5499 50.3739 51.9119 49.6471 52.2565C48.0135 53.0328 46.5512 54.0144 45.3589 55.412C44.4071 56.5277 43.2165 57.3353 41.7802 57.7356C38.7657 58.5745 36.3568 56.4546 36.8171 53.3495C36.9019 52.7769 36.9971 52.1956 37.184 51.6543C38.0215 49.2228 38.3555 46.7113 38.5251 44.158C38.577 43.3922 38.7691 42.6037 39.0616 41.8936C39.2969 41.3193 39.7797 40.8493 40.2349 40.2175C40.5689 41.14 40.7263 41.7962 41.0309 42.3757C41.6176 43.4949 42.5918 43.9544 43.779 43.561C44.6356 43.2791 45.4818 42.8439 46.2086 42.3061C47.439 41.3976 49.1799 41.7352 49.8306 43.1276C49.8565 43.1798 49.8946 43.2286 49.9067 43.2843C50.303 45.2684 51.1181 47.0298 52.3658 48.6485C53.1427 49.6562 52.8693 50.4255 51.7791 51.1182Z" fill="white"/>
</g>
<defs>
<clipPath id="clip0_101559_3927">
<rect width="49.8387" height="60" fill="white" transform="translate(5)"/>
</clipPath>
</defs>
</svg>
