<svg width="60" height="60" viewBox="0 0 60 60" fill="none" xmlns="http://www.w3.org/2000/svg">
<path fill-rule="evenodd" clip-rule="evenodd" d="M31.3719 58.6293C32.4638 59.5323 33.744 59.9174 35.126 59.9887C35.6975 60.0186 36.2855 59.9905 36.848 59.8882C37.74 59.7261 38.6296 59.5226 39.4973 59.2612C41.2644 58.728 42.7914 57.8067 43.9314 56.3187C44.581 55.4705 45.1141 54.5535 45.4566 53.5395C45.7393 52.7029 46.005 51.8578 46.2164 51.0017C46.3834 50.3271 46.4663 49.6307 46.5674 48.9415C46.635 48.4858 46.6759 48.0251 46.7179 47.565C46.7862 46.8186 46.8574 46.0734 46.9068 45.3251C46.9415 44.8048 46.9403 44.282 46.9604 43.761C46.9671 43.602 46.9927 43.4441 47.0079 43.2863C47.0207 43.1395 47.0951 43.0889 47.245 43.0913C47.7714 43.0993 48.2991 43.1127 48.825 43.0889C49.4142 43.0627 50.0077 43.0371 50.5878 42.9402C51.4133 42.802 52.2322 42.6271 53.0422 42.4162C53.9976 42.1658 54.8744 41.7179 55.719 41.2085C56.7012 40.6144 57.5981 39.9179 58.3239 39.0204C58.9569 38.2392 59.2567 37.3338 59.1038 36.346C58.882 34.9111 57.6761 33.9709 56.2741 33.9069C55.7659 33.8837 55.2504 33.9373 54.7446 34.0013C54.1323 34.0793 53.529 34.217 52.9185 34.3078C52.4968 34.3712 52.0697 34.3992 51.6492 34.4431L51.6376 34.3883C52.4237 32.9033 53.2426 31.4354 53.986 29.9304C54.557 28.7751 55.0444 27.579 55.5483 26.3908C56.3831 24.4238 57.0491 22.3966 57.6012 20.3352C58.1295 18.3622 58.5816 16.3679 58.7248 14.3205C58.7821 13.5034 58.8217 12.6826 58.8162 11.8643C58.8125 11.2111 58.7419 10.5573 58.6767 9.90652C58.6023 9.16069 58.3769 8.45387 58.0649 7.77386C57.6542 6.87692 57.0162 6.14146 56.3454 5.44316C55.8085 4.88379 55.2175 4.37439 54.6319 3.86499C53.7965 3.13867 52.8569 2.55798 51.882 2.04309C50.7769 1.45609 49.6061 1.00202 48.3942 0.690373C47.6557 0.504173 46.9125 0.337362 46.1652 0.190111C45.8996 0.13649 45.6315 0 45.364 0H40.326C40.1438 0 39.9635 0.119429 39.7801 0.139537C38.5743 0.271143 37.3838 0.516995 36.2246 0.873782C35.792 1.00723 35.3971 0.929231 34.9858 0.890843C34.6702 0.861595 34.3601 0.780554 34.0444 0.764711C32.8434 0.704997 31.6412 0.618472 30.4396 0.631268C29.2892 0.643454 28.1504 0.833566 27.0371 1.1492C26.1054 1.41487 25.1933 1.73721 24.3573 2.22772C24.0002 2.43733 23.7162 2.39772 23.3464 2.2917C22.1042 1.9278 20.8513 1.60186 19.5892 1.31433C18.8026 1.13823 17.9928 1.04927 17.1891 0.9664C16.4178 0.886285 15.6434 0.838107 14.8681 0.821989C14.1113 0.805537 13.3497 0.806146 12.5959 0.873173C11.3962 0.979806 10.2195 1.22354 9.07522 1.61717C7.81381 2.04843 6.63514 2.69155 5.58984 3.51889C4.52351 4.36282 3.66801 5.39198 2.98129 6.5686C2.25679 7.80981 1.75897 9.13876 1.45065 10.5335C0.840495 13.287 0.888261 16.379 1.36412 19.1671C1.50671 20.0092 1.63527 20.8483 1.80832 21.6843C2.05023 22.8524 2.28117 24.0193 2.54927 25.1819C2.74426 26.0282 2.9557 26.8697 3.18785 27.7063C3.54127 28.9847 3.88615 30.2649 4.28648 31.528C4.65878 32.7022 5.08287 33.8594 5.50636 35.0171C6.08663 36.618 6.7979 38.1683 7.63293 39.6523C8.36108 40.9386 9.1916 42.1432 10.3067 43.1334C11.0421 43.7866 11.8593 44.2881 12.8104 44.5391C13.5534 44.7364 14.3322 44.7581 15.0851 44.6025C15.9578 44.4251 16.7731 44.0347 17.4584 43.4661C17.5388 43.4009 17.626 43.3503 17.7216 43.471C18.0836 43.9292 18.5674 44.2351 19.0737 44.4989C20.4399 45.2118 21.9285 45.4257 23.4402 45.5122C23.807 45.5329 24.1763 45.4805 24.5449 45.4708C25.2646 45.4507 25.9629 45.3105 26.6496 45.1119C27.0103 45.0077 27.3619 44.8749 27.7287 44.7518C27.7476 45.1423 27.772 45.5177 27.7841 45.8937L27.8347 47.9428C27.8445 48.2548 27.8567 48.5668 27.8853 48.8775C27.9596 49.6782 28.0321 50.4789 28.1278 51.2771C28.1936 51.8273 28.2631 52.3812 28.3923 52.9186C28.652 54.0017 29.0072 55.0596 29.4537 56.0799C29.8812 57.0702 30.5388 57.9442 31.3719 58.6293ZM29.1838 48.412C29.1405 47.4499 29.1082 46.4873 29.0869 45.5244C29.0613 44.3411 29.0528 43.1571 29.0363 41.9738L29.0333 41.9287C28.4319 42.2901 27.839 42.6849 27.212 43.0109C26.4765 43.393 25.6783 43.6141 24.8514 43.6769C24.2037 43.7257 23.5462 43.7701 22.9016 43.7189C21.8438 43.633 20.786 43.4679 19.8391 42.9463C19.4552 42.7349 19.0542 42.4771 18.7892 42.1402C18.1549 41.3304 18.4589 40.3073 19.4156 39.815C20.0767 39.4737 20.7982 39.3318 21.5147 39.166C22.1385 39.0246 22.7557 38.8559 23.3647 38.6603C23.9655 38.4635 24.3445 37.976 24.7192 37.4977L25.3127 36.7348L24.5992 36.6604C23.8911 36.5946 23.2154 36.399 22.5695 36.1127C22.0174 35.8683 22.0089 35.8415 21.6031 36.2814C20.9267 37.0157 20.2686 37.7682 19.6051 38.5153C19.117 39.0649 18.6326 39.6175 18.1457 40.169C17.6656 40.7143 17.2147 41.2902 16.6961 41.7971C15.9272 42.5502 14.9997 43.003 13.8932 42.9518C13.1833 42.9189 12.5338 42.6703 11.9488 42.2639C10.743 41.4242 9.93072 40.2482 9.19038 39.0143C8.24287 37.4325 7.51472 35.7477 6.89259 34.0172C6.46179 32.8204 6.02856 31.6231 5.65321 30.4093C5.24435 29.0901 4.88545 27.7557 4.53265 26.42C4.26576 25.4128 4.02934 24.397 3.80389 23.3795C3.54434 22.2228 3.30423 21.0618 3.08366 19.8971C2.93681 19.1105 2.85211 18.3123 2.73329 17.5207C2.57304 16.4526 2.54379 15.3759 2.60228 14.3041C2.65408 13.3383 2.7924 12.3755 2.93011 11.4164C3.12083 10.0893 3.55833 8.83714 4.18716 7.65443C4.57506 6.93371 5.05048 6.26365 5.60263 5.65947C6.51054 4.65469 7.60916 3.92897 8.83148 3.38362C9.68516 3.00279 10.5876 2.77429 11.5071 2.59454C12.872 2.32887 14.2491 2.33983 15.6261 2.36786C16.2282 2.38066 16.8284 2.48973 17.4298 2.55005C18.7252 2.67862 19.9944 2.9516 21.2478 3.28735C22.1618 3.5323 23.0569 3.85037 23.9624 4.12579C24.0526 4.15321 24.186 4.15077 24.261 4.10263C25.4888 3.30075 26.8299 2.77185 28.2576 2.46901C28.7993 2.35446 29.3587 2.30388 29.9125 2.26854C30.5852 2.2265 31.2646 2.18628 31.9361 2.22589C32.7435 2.2722 33.5484 2.39102 34.3509 2.5007C34.7409 2.55432 35.1211 2.68898 35.5111 2.72554C35.6988 2.74321 35.8968 2.60733 36.0942 2.56102C37.102 2.32765 38.1056 2.06868 39.1226 1.88527C39.8794 1.74878 40.6532 1.68419 41.4222 1.64032C42.2814 1.59097 43.1454 1.55501 44.0033 1.59645C45.0879 1.64885 46.1646 1.80301 47.2273 2.0504C48.5447 2.3569 49.8072 2.80171 51.0082 3.41957C51.9058 3.88205 52.7582 4.41705 53.5266 5.07512C54.0299 5.50714 54.5454 5.93306 54.9993 6.41444C55.5599 7.00793 56.1315 7.60081 56.4837 8.36064C56.7487 8.93402 56.9376 9.52751 56.99 10.1545C57.0546 10.9351 57.1332 11.7181 57.1265 12.4998C57.1198 13.2469 57.0174 13.9933 56.9455 14.7391C56.7804 16.4379 56.4118 18.1002 55.9627 19.7405C55.588 21.0954 55.1634 22.4361 54.6898 23.7597C54.2578 24.9802 53.7587 26.1781 53.2548 27.3718C52.8834 28.2556 52.4802 29.1257 52.0459 29.9803C51.2209 31.5963 50.3629 33.1958 49.3703 34.7191C49.1991 34.9817 49.0364 35.2511 48.8695 35.5198C49.3027 35.8116 49.7932 35.9146 50.2868 35.9682C50.7566 36.0188 51.2355 36.0499 51.7047 36.0146C52.456 35.9585 53.2049 35.8513 53.9519 35.7471C54.6916 35.6435 55.4161 35.4333 56.1766 35.4887C56.9346 35.5442 57.4781 36.1206 57.4263 36.8311C57.3934 37.2807 57.1868 37.6665 56.8883 37.9961C55.4777 39.5523 53.7069 40.4956 51.6815 40.9605C50.9119 41.1372 50.1186 41.228 49.3307 41.3017C48.6579 41.3611 47.982 41.377 47.3071 41.3493C46.8124 41.331 46.3218 41.2176 45.8161 41.1445C45.7649 41.607 45.7168 42.089 45.6583 42.5691L45.4225 44.4111C45.3512 44.9949 45.2957 45.5811 45.222 46.1648C45.1501 46.7315 45.0605 47.2951 44.985 47.8612C44.9149 48.3883 44.8631 48.9184 44.7839 49.4448C44.6638 50.2516 44.5487 51.0602 44.3909 51.8608C44.202 52.8175 43.9132 53.7437 43.4397 54.6071C42.8633 55.6606 42.0462 56.4631 41.0054 57.0572C39.933 57.6696 38.76 57.9883 37.5724 58.2552C36.7304 58.4447 35.8645 58.4751 35.012 58.3978C33.5344 58.2643 32.2731 57.6324 31.3195 56.4863C30.4098 55.3925 29.7937 54.1397 29.5738 52.7206C29.4702 52.0454 29.3897 51.3668 29.3325 50.6861C29.2665 49.9292 29.2169 49.171 29.1838 48.412ZM30.8448 38.6907C30.854 39.1965 30.8016 39.7022 30.804 40.208C30.8144 42.5618 30.8314 44.9163 30.8515 47.2707C30.8552 47.6552 30.8741 48.0409 30.9015 48.4248C30.9594 49.2291 31.0166 50.0341 31.0946 50.8359C31.1507 51.4057 31.2269 51.9736 31.3164 52.539C31.4444 53.3391 31.8088 54.052 32.2219 54.7338C32.5778 55.32 33.0415 55.8172 33.6514 56.1609C34.6885 56.744 35.8042 56.7928 36.929 56.5783C37.6888 56.4339 38.4359 56.2005 39.1732 55.9598C39.8988 55.7271 40.5614 55.3308 41.1096 54.8015C41.6269 54.3006 41.9938 53.6894 42.2411 53.0149C42.7207 51.7073 42.8712 50.3296 43.0692 48.9635C43.1436 48.4516 43.2082 47.9386 43.2758 47.4261C43.3532 46.843 43.4312 46.2605 43.5055 45.6773C43.5616 45.2423 43.6115 44.8078 43.6645 44.3734C43.7407 43.7494 43.8205 43.1261 43.893 42.5021C43.9485 42.0195 43.9948 41.5351 44.0448 41.0513C44.1081 40.4328 44.1758 39.8162 44.2312 39.1965C44.2727 38.7273 44.2556 38.249 44.3391 37.7877C44.492 36.9426 44.8917 36.2236 45.6412 35.758C45.9544 35.5643 46.309 35.4363 46.6564 35.2718L46.5966 35.181C46.2755 34.7642 45.9465 34.3541 45.6315 33.9325C45.1367 33.2707 44.7808 32.5328 44.4232 31.7913C44.0844 31.0881 43.67 30.4227 43.3136 29.7275C42.6914 28.5149 42.0577 27.3054 41.4844 26.0703C40.7635 24.5165 40.1956 22.909 40.0171 21.1883C39.9409 20.4608 39.9214 19.7332 40.0695 19.0124C40.3053 17.8607 40.9061 16.9601 41.9176 16.3423C42.856 15.7695 43.901 15.5843 44.9716 15.5264C45.6357 15.4904 46.3042 15.5197 46.9933 15.5197L46.9708 15.4033C46.5418 14.5064 46.1415 13.5942 45.6717 12.7192C45.01 11.4835 44.1618 10.3696 43.2185 9.33557C42.5225 8.5667 41.7576 7.86305 40.9335 7.23338C40.1182 6.61613 39.2591 6.06468 38.342 5.61438C37.2526 5.07249 36.1021 4.66334 34.9152 4.39572C33.7666 4.14102 32.6119 3.98503 31.4334 3.97223C30.4293 3.96127 29.4312 4.00758 28.4526 4.23364C26.9756 4.57547 25.6247 5.18359 24.4505 6.16827C23.8001 6.71341 23.2191 7.33634 22.7206 8.02307C22.1314 8.83044 21.6573 9.70422 21.2515 10.6188C20.6946 11.8747 20.3125 13.1805 20.0505 14.5234C19.9201 15.1937 19.8177 15.8682 19.7135 16.5427C19.677 16.7798 19.6745 17.0205 19.6526 17.2916L20.0986 17.0595L20.5337 16.8645C22.0065 16.1912 23.5316 15.7579 25.1707 15.8073C25.8678 15.828 26.5332 15.9663 27.1535 16.2716C28.3417 16.8578 29.0363 17.854 29.3385 19.1141C29.5469 19.9843 29.6901 20.8714 29.8291 21.7568C29.9375 22.4478 30.049 23.1461 30.0612 23.8432C30.0789 24.862 30.0277 25.8832 29.9723 26.9014C29.9248 27.7672 29.7457 28.6208 29.4409 29.4326C28.8901 30.9047 28.2759 32.3531 27.7025 33.8167C27.513 34.3005 27.3674 34.8008 27.1888 35.3327L27.9127 35.3333C28.0005 35.3352 28.09 35.3376 28.1747 35.3577C28.8334 35.5131 29.4056 35.8116 29.8741 36.3186C30.5005 36.9913 30.8284 37.7786 30.8448 38.6907ZM18.2639 31.7108C17.8906 30.8323 17.6653 29.8979 17.5973 28.9457C17.534 28.0475 17.6406 27.1543 17.7332 26.2598C17.8222 25.3939 17.8977 24.5238 17.9233 23.6549C17.9666 22.2248 17.8703 20.7983 17.8021 19.3694C17.7612 18.5188 17.86 17.6578 17.9355 16.8054C18.0038 16.0376 18.0891 15.268 18.2347 14.5112C18.4778 13.2414 18.8014 11.9898 19.2614 10.7766C19.6971 9.62622 20.1992 8.50688 20.906 7.49844C21.3916 6.80624 21.9413 6.16095 22.4695 5.4846L22.3123 5.42854C20.5922 4.88258 18.8434 4.45482 17.0441 4.26898C16.194 4.18063 15.3404 4.12944 14.4879 4.07826C14.2259 4.06302 13.9602 4.09837 13.6976 4.12335C13.0475 4.18611 12.3888 4.21048 11.749 4.33235C10.6601 4.53952 9.61508 4.88806 8.64807 5.45535C7.79229 5.95892 7.04202 6.62332 6.43864 7.41191C5.76411 8.28387 5.30894 9.26976 4.98294 10.3203C4.59785 11.5602 4.41383 12.8368 4.36447 14.1243C4.32121 15.2534 4.29988 16.3886 4.49487 17.5134C4.63928 18.35 4.73616 19.1964 4.89581 20.0306C5.11042 21.1679 5.35137 22.3002 5.61848 23.4264C6.00418 25.0374 6.3905 26.6497 6.84811 28.2413C7.28561 29.7653 7.77856 31.2758 8.31477 32.7686C8.75227 33.9867 9.25863 35.1822 9.79179 36.3613C10.1391 37.1296 10.5595 37.8694 11.0007 38.5884C11.4693 39.3525 12.0031 40.0776 12.7257 40.6321C13.6391 41.3316 14.3453 41.4407 15.2739 40.6723C15.6712 40.3439 16.007 39.9368 16.3531 39.5499C16.9021 38.9357 17.4322 38.3032 17.9794 37.686C18.6758 36.9005 19.3808 36.123 20.081 35.34C20.229 35.1749 20.3722 35.0043 20.516 34.8373L20.2766 34.6283C19.4133 33.8037 18.7283 32.8107 18.2639 31.7108ZM44.673 8.31068C45.2457 8.97592 45.7889 9.66594 46.3011 10.3787C47.283 11.7555 48.0732 13.2593 48.6501 14.8488C48.906 15.5526 49.1108 16.2631 49.0194 17.0327C48.956 17.5719 48.9603 18.1185 48.9133 18.6608C48.8737 19.1117 48.8018 19.5602 48.7439 20.0098C48.6562 20.6874 48.5294 21.3638 48.4917 22.0444C48.4551 22.6927 48.4935 23.3472 48.5343 23.9961C48.5751 24.656 48.6641 25.3129 48.7244 25.9709C48.7927 26.7186 48.8853 27.4644 48.906 28.2133C48.9231 28.8275 48.8682 29.4447 48.8152 30.0589C48.7471 30.7949 48.5684 31.5163 48.2851 32.1989C48.0883 32.6827 47.8537 33.1507 47.6325 33.6345L47.7215 33.7283L47.8568 33.8331L47.9939 33.5894C49.1445 31.779 50.1668 29.8901 51.0533 27.9366C51.6217 26.6758 52.1609 25.4019 52.6705 24.1161C53.465 22.1174 54.1068 20.0613 54.5905 17.9655C54.8098 17.0247 54.978 16.0693 55.1267 15.1139C55.2431 14.3668 55.3393 13.6113 55.3613 12.8575C55.3838 12.0581 55.34 11.2525 55.2662 10.4555C55.2108 9.8535 55.0621 9.24783 54.6855 8.75732C54.0786 7.96945 53.4242 7.21632 52.6193 6.61978C51.9411 6.1183 51.2647 5.6022 50.5378 5.18054C49.3843 4.51088 48.1358 4.06607 46.8312 3.76262C45.5571 3.46588 44.2678 3.33792 42.9699 3.3105C42.2046 3.29405 41.4356 3.37631 40.6721 3.44882C39.9799 3.51341 39.292 3.62431 38.5955 3.71571C39.3432 4.13614 40.0811 4.51027 40.7757 4.95082C42.2381 5.87701 43.5494 6.99147 44.673 8.31068ZM25.674 34.2457C26.1463 32.7345 26.7903 31.2904 27.4137 29.839C27.92 28.6611 28.196 27.4212 28.2881 26.1464C28.3338 25.5182 28.3216 24.8821 28.2905 24.252C28.2602 23.551 28.1959 22.8519 28.0979 22.1571C27.9669 21.2712 27.8183 20.3846 27.6087 19.5151C27.3814 18.5743 26.8086 17.9186 25.8264 17.6767C25.2286 17.5299 24.6339 17.536 24.0288 17.6316C22.5524 17.8638 21.2009 18.4079 19.942 19.2049C19.6886 19.3652 19.5484 19.495 19.5929 19.8575C19.6855 20.6277 19.7056 21.4101 19.702 22.187C19.6971 23.2868 19.6502 24.3867 19.6087 25.4859C19.5953 25.8436 19.5435 26.2007 19.5045 26.5571C19.446 27.1031 19.3321 27.6484 19.3358 28.1938C19.3394 28.7556 19.3967 29.3302 19.5332 29.8743C19.9664 31.5999 20.8828 33.0112 22.3861 34.0074C23.3104 34.6204 24.3329 34.9287 25.4559 34.9878C25.5302 34.7301 25.5991 34.487 25.674 34.2457ZM23.9094 19.4456C23.7114 19.0306 23.8247 18.6864 24.2829 18.5267C24.395 18.4883 24.5096 18.4457 24.6254 18.4347C24.7856 18.4189 24.9471 18.4305 25.1086 18.4305C25.6905 18.4341 26.2498 18.5152 26.7294 18.8844C27.0377 19.1221 27.1206 19.4359 26.9207 19.76C26.6374 20.2188 26.2066 20.4492 25.6765 20.493C24.8423 20.5619 24.2567 20.1731 23.9094 19.4456ZM47.0488 19.2939L47.2383 17.6335C47.2657 17.4117 47.1493 17.3507 46.9629 17.3452C46.3761 17.3294 45.7899 17.3081 45.2031 17.2983C44.5426 17.2861 43.8985 17.3922 43.2868 17.6432C42.608 17.9229 42.0913 18.3701 41.8798 19.1093C41.7251 19.6539 41.6763 20.2231 41.736 20.7861C41.8185 21.6573 42.0158 22.5137 42.3228 23.3331C42.7335 24.4257 43.1625 25.5176 43.6761 26.5644C44.3714 27.9811 45.1574 29.3533 45.8959 30.7487C46.0927 31.121 46.2597 31.5104 46.465 31.9448C46.8797 31.0805 47.1061 30.138 47.1292 29.1797C47.1493 28.3869 47.0866 27.5924 47.0402 26.7996C47.0116 26.3146 46.9428 25.832 46.8958 25.3482C46.8306 24.6743 46.7307 23.9998 46.7149 23.324C46.6996 22.6367 46.7484 21.9457 46.8069 21.259C46.8617 20.6021 46.9702 19.9495 47.0488 19.2939ZM45.7271 18.7613C45.509 19.3627 45.0435 19.7027 44.439 19.8021C43.876 19.8953 43.3824 19.6875 43.0156 19.2378C42.7542 18.9179 42.8541 18.5395 43.2459 18.3226C43.6956 18.074 44.1898 18.0112 44.7729 17.9735C44.932 18.0021 45.1696 18.0271 45.3963 18.0911C45.7247 18.1837 45.8466 18.4323 45.7271 18.7613ZM28.3015 37.2868C27.9797 37.0236 27.5532 37.0084 27.2473 37.2972C26.8671 37.6567 26.5326 38.0674 26.1981 38.472C25.8123 38.94 25.4492 39.4262 24.952 39.7888C24.2275 40.3158 23.3811 40.534 22.5317 40.7405C21.8566 40.9051 21.1778 41.058 20.5008 41.2152L20.4923 41.3029C20.6933 41.3956 20.8877 41.5119 21.0979 41.5784C22.1308 41.905 23.1819 42.0683 24.2738 41.9757C25.061 41.908 25.8117 41.7362 26.5228 41.3992C27.502 40.9355 28.2558 40.2001 28.8962 39.3458C29.0034 39.2032 29.0522 38.9924 29.0644 38.8083C29.1076 38.1588 28.778 37.6756 28.3015 37.2868ZM47.1572 37.0053C46.6509 37.1753 46.239 37.4343 46.1165 37.9821C46.033 38.3526 46.0026 38.7358 45.9703 39.1154C45.9642 39.1825 46.0476 39.3056 46.111 39.3226C46.501 39.4256 46.8934 39.5469 47.2919 39.5828C47.7824 39.6273 48.2808 39.6133 48.7744 39.5889C49.307 39.5621 49.8432 39.5274 50.3684 39.4396C51.6048 39.2312 52.8021 38.8937 53.8648 38.1917C54.2486 37.9388 54.6276 37.6805 55.0091 37.4233L54.9774 37.3691C54.571 37.4294 54.1658 37.5032 53.7575 37.5464C52.9264 37.6354 52.0947 37.7292 51.2605 37.7774C50.8577 37.8005 50.4495 37.7231 50.0436 37.6902C49.3624 37.6348 48.697 37.4837 48.1212 37.1193C47.7891 36.9097 47.5113 36.8865 47.1572 37.0053Z" fill="white"/>
</svg>
