<svg width="60" height="60" viewBox="0 0 60 60" fill="none" xmlns="http://www.w3.org/2000/svg">
<mask id="mask0_101559_3839" style="mask-type:luminance" maskUnits="userSpaceOnUse" x="0" y="0" width="60" height="60">
<path d="M60 0H0V60H60V0Z" fill="white"/>
</mask>
<g mask="url(#mask0_101559_3839)">
<path fill-rule="evenodd" clip-rule="evenodd" d="M6.52144 15.6517H29.9995V13.0429H15.6517V6.52144C15.6517 6.52144 15.6517 0 29.9995 0C44.3473 0 44.3473 6.52144 44.3473 6.52144C44.3473 6.52144 44.4552 18.1356 44.4012 22.1107C44.3473 26.0868 41.7385 28.6945 37.8174 28.6945H22.1742C16.9566 28.6945 13.0439 32.6072 13.0439 37.8248V44.3462H6.5225C6.5225 44.3462 0 44.3473 0 29.9995C0 15.6517 6.52144 15.6517 6.52144 15.6517ZM24.7819 6.5225C24.7819 7.96289 23.6135 9.13129 22.1731 9.13129C20.7327 9.13129 19.5643 7.96289 19.5643 6.5225C19.5643 5.08211 20.7327 3.91371 22.1731 3.91371C23.6135 3.91371 24.7819 5.08211 24.7819 6.5225Z" fill="white"/>
<path fill-rule="evenodd" clip-rule="evenodd" d="M53.4796 44.3474H30.0016V46.9562H44.3494V53.4776C44.3494 53.4776 44.3494 59.999 30.0016 59.999C15.6538 59.999 15.6538 53.4776 15.6538 53.4776V37.8259C15.6538 33.9122 18.2626 31.3045 22.1752 31.3045H37.828C43.0455 31.3045 46.9582 27.3918 46.9582 22.1743V15.6528H53.4796C53.4796 15.6528 60.0011 15.6528 60.0011 30.0006C60.0011 44.3484 53.4796 44.3484 53.4796 44.3484V44.3474ZM40.4346 53.4787C40.4346 54.9191 39.2662 56.0875 37.8259 56.0875C36.3855 56.0875 35.2171 54.9191 35.2171 53.4787C35.2171 52.0383 36.3855 50.8699 37.8259 50.8699C39.2662 50.8699 40.4346 52.0383 40.4346 53.4787Z" fill="white"/>
</g>
</svg>
