<svg width="60" height="60" viewBox="0 0 60 60" fill="none" xmlns="http://www.w3.org/2000/svg">
<path d="M2.50274 24.4735C5.6641 26.0034 23.315 33.1873 26.0812 34.5177C28.8474 35.848 30.8233 35.848 34.3798 34.052C37.8705 32.1895 54.4676 25.3382 57.629 23.6753C59.2755 22.8105 60 22.1453 60 21.5467V15.4936C60 14.8949 59.2097 14.3628 57.629 13.7641L34.9067 4.85073C31.7453 3.65341 30.494 3.71993 26.8057 5.05028C23.0516 6.38064 5.53238 13.365 2.43688 14.5623C0.922064 15.161 0.0658619 15.7596 0.0658619 16.3583H0V22.4114C0 23.0766 0.922063 23.7418 2.50274 24.4735ZM31.2184 25.3382L21.5368 21.2806L35.4336 19.1521L31.2184 25.3382ZM52.2283 15.6931L43.9956 18.9525L43.1394 19.2851L34.9726 16.0257L44.0615 12.3672L52.2283 15.6931ZM28.1888 9.70652L26.8716 7.17885L31.0209 8.84179L34.9726 7.51144L33.9188 10.1056L37.9363 11.6355L32.7333 12.1677L31.5478 14.9614L29.7036 11.9016L23.7102 11.3695L28.1888 9.70652ZM17.8485 13.232C21.9319 13.232 25.2909 14.5623 25.2909 16.1587C25.2909 17.7552 21.9978 19.0855 17.8485 19.0855C13.7651 19.0855 10.4061 17.7552 10.4061 16.1587C10.4061 14.5623 13.7651 13.232 17.8485 13.232ZM2.50274 34.8502C5.6641 36.3802 23.315 43.5641 26.0812 44.8944C28.8474 46.2248 30.8233 46.2248 34.3798 44.4288C37.8705 42.5663 54.4676 35.715 57.629 34.052C59.2755 33.1873 60 32.5221 60 31.9235V25.8703C60 26.469 59.2097 27.0677 57.6948 27.9324C54.5335 29.5953 37.9363 36.5132 34.4457 38.3092C30.955 40.1717 28.9791 40.1717 26.213 38.7748C23.4468 37.4444 5.72997 30.2605 2.56861 28.7306C0.987925 27.9989 0.0658619 27.3337 0.0658619 26.7351V32.8547C2.50261e-07 33.4534 0.922063 34.052 2.50274 34.8502ZM2.50274 44.8279C5.6641 46.3578 23.315 53.5417 26.0812 54.8721C28.8474 56.2024 30.8233 56.2024 34.3798 54.4065C37.8705 52.544 54.4676 45.6926 57.629 44.0297C59.2755 43.165 60 42.4998 60 41.9011V35.848C60 36.4467 59.2097 37.0453 57.6948 37.9101C54.5335 39.573 37.9363 46.4909 34.4457 48.2868C30.955 50.1493 28.9791 50.1493 26.213 48.7525C23.4468 47.4221 5.72997 40.2382 2.56861 38.7083C0.987925 37.9766 0.0658619 37.3114 0.0658619 36.7127V42.8324C2.50261e-07 43.3645 0.922063 44.0297 2.50274 44.8279Z" fill="white"/>
</svg>
