<svg width="60" height="60" viewBox="0 0 60 60" fill="none" xmlns="http://www.w3.org/2000/svg">
<g clip-path="url(#clip0_105805_1683)">
<path d="M52.8802 19.5994C52.9321 17.2451 51.4162 14.828 49.7064 12.8601C49.5861 12.7228 49.4641 12.5872 49.3438 12.4533C48.8658 11.9278 48.3794 11.4397 47.9165 11.0023C46.3855 9.55311 45.097 8.63272 45.097 8.63272C36.4446 2.12218 28.3003 2.17473 23.2864 3.19174C23.1426 3.22225 23.0006 3.25106 22.8619 3.28157C22.6529 3.32903 22.4507 3.37649 22.2552 3.42395C22.19 3.4409 22.1248 3.45785 22.0613 3.47311C21.9961 3.49006 21.9326 3.50701 21.8708 3.52396C21.3075 3.67312 20.7995 3.82906 20.3566 3.97992C20.2646 4.01212 20.1761 4.04263 20.0892 4.07314C20.0357 4.09179 19.9839 4.11043 19.9321 4.12908C19.8535 4.15789 19.7783 4.18671 19.7048 4.21383C19.6646 4.22908 19.6245 4.24434 19.5861 4.25959C19.5744 4.26298 19.5644 4.26637 19.5527 4.27146C19.4892 4.29519 19.429 4.31892 19.3705 4.34265C19.317 4.36299 19.2652 4.38333 19.2167 4.40367C19.1816 4.41892 19.1482 4.43248 19.1148 4.44604C19.063 4.46808 19.0145 4.48842 18.9677 4.50876C18.849 4.55791 18.7454 4.60537 18.6535 4.64606C18.468 4.73081 18.3376 4.79522 18.2658 4.83081C18.249 4.83929 18.234 4.84776 18.224 4.85285C18.224 4.85285 18.2206 4.85454 18.219 4.85624C18.2089 4.85963 18.2039 4.86302 18.2006 4.86471C18.1989 4.86641 18.1972 4.86641 18.1972 4.86641C7.14821 9.83279 3.88414 20.7029 3.88414 20.7029C3.36269 22.4064 2.88971 24.0861 2.58219 25.8371C2.5521 26.0184 2.52369 26.1998 2.49695 26.3812C1.89695 30.4153 2.26798 34.3223 3.44626 38.0378C3.67522 38.7683 3.93762 39.4904 4.2301 40.204C4.18999 40.0311 4.14319 39.826 4.14319 39.826C4.14319 39.826 3.15043 34.9783 4.073 30.3238C4.073 30.3238 4.8769 25.4777 8.14263 21.7335C8.14263 21.7335 13.4407 14.0805 23.3064 17.079C23.3064 17.079 25.4357 17.8468 26.1694 18.2316C26.9031 18.5909 28.18 19.1435 28.18 19.1435C35.1593 22.5742 41.0741 23.6539 41.0741 23.6539C53.5905 25.7896 52.8802 19.5994 52.8802 19.5994ZM29.5989 10.1548L20.8931 7.40892C20.8463 7.40892 20.6106 7.29027 20.1844 7.40892C20.1844 7.40892 15.4295 8.63272 16.2568 11.2735C16.2568 11.2735 16.7532 12.9279 18.102 14.5364L27.6919 14.1551L27.5749 14.4008C27.468 14.6229 27.2507 14.7687 27.0067 14.7805L18.1337 15.2128C18.1237 15.2144 18.112 15.2144 18.102 15.2144C17.9064 15.2144 17.7209 15.1263 17.5922 14.9755C16.1716 13.2804 15.6385 11.5431 15.6167 11.4702C15.3978 10.7735 15.468 10.0599 15.819 9.41921C16.8017 7.62588 19.6931 6.83601 20.019 6.75295C20.1894 6.7038 20.3716 6.67837 20.5471 6.67837C20.771 6.67837 20.9315 6.72075 21.0134 6.74278C21.0401 6.74787 21.0669 6.75465 21.0919 6.76143L29.1593 9.30564C29.3465 9.36497 29.497 9.50226 29.5755 9.68363C29.639 9.83279 29.6474 10.0006 29.5989 10.1548ZM38.3298 13.5754C38.3215 14.2771 37.7599 14.8449 37.063 14.8483H37.0529C36.3527 14.85 35.7844 14.2822 35.7744 13.5754V13.5516C35.7727 12.8397 36.3393 12.26 37.0429 12.2567H37.0529C37.7549 12.2533 38.3265 12.8279 38.3298 13.5415V13.5754Z" fill="white"/>
<path d="M2.43177 36.9446C1.86352 36.2649 1.33372 35.553 0.87912 34.7868C0.523131 34.1393 0.145415 33.4427 0.0267522 32.7003C-0.0919107 31.9562 0.192212 31.2358 0.618396 30.6358C0.925917 30.1798 1.3053 29.8204 1.49416 29.2679C1.52257 29.1916 1.54764 29.1153 1.56937 29.0374C1.45405 31.6951 1.74152 34.3377 2.43177 36.9446Z" fill="white"/>
<path d="M3.45795 38.0496C3.45795 38.0496 3.4496 38.0428 3.44626 38.0377C2.26798 34.3222 1.89695 30.4152 2.49695 26.3811C1.90364 30.4118 2.28135 34.3307 3.45795 38.0496Z" fill="white"/>
<path d="M18.6534 4.64608C18.7454 4.6054 18.849 4.55794 18.9676 4.50879C18.8507 4.55794 18.7454 4.6054 18.6534 4.64608Z" fill="white"/>
<path d="M27.0352 2.04081C21.7488 2.30015 18.2508 4.07483 17.9065 4.25619C12.0636 6.88685 8.39339 11.1532 6.34102 14.2703C4.11484 17.6536 3.27918 20.391 3.24576 20.5012C2.75105 22.1165 2.24966 23.8658 1.92375 25.7218C1.82515 26.3015 1.74659 26.8795 1.6881 27.4575C1.44409 24.9692 -0.635021 22.4182 0.737124 19.9588C1.2101 19.1435 1.84854 18.3756 2.60565 17.7993C4.40398 16.384 5.20788 15.6636 5.32654 13.1211C5.37334 12.2566 5.34994 11.3685 5.4452 10.5057C5.54047 9.40055 5.89478 8.44117 6.77055 7.72249C7.57445 7.0733 8.59228 6.71396 9.58503 6.54615C10.5544 6.37835 11.502 6.44954 12.448 6.09019C13.536 5.6817 14.482 4.96301 15.2625 4.09856C15.9494 3.33072 16.5644 2.49169 17.2981 1.72385C19.7349 -0.844096 23.7561 -0.244062 26.4536 1.57977C26.6274 1.69673 26.8363 1.86792 27.0352 2.04081Z" fill="white"/>
<path d="M1.688 27.4575C1.63117 27.9847 1.59273 28.5118 1.56934 29.0373C1.69636 28.605 1.72644 28.1576 1.70638 27.7084C1.70304 27.6253 1.69636 27.5406 1.688 27.4575Z" fill="white"/>
<path d="M59.3381 41.8651C59.3381 41.8651 57.4696 49.352 48.1721 55.8303C48.1721 55.8303 38.0707 63.3155 23.283 58.2287C23.283 58.2287 13.2986 55.0133 7.14814 45.7043C6.85734 45.2636 6.57823 44.8178 6.31082 44.3686C6.21723 44.0059 6.07182 43.6567 5.92308 43.3143C4.23004 39.4158 3.90581 34.6088 4.72809 30.4577C4.72976 30.4509 4.73143 30.4441 4.73143 30.4356C4.73979 30.3899 5.54035 25.7405 8.64397 22.1826C8.65901 22.164 8.67572 22.1437 8.68909 22.1233C8.72419 22.0742 12.2958 17.0603 18.8289 17.0603C20.2094 17.0603 21.6451 17.2841 23.0991 17.7231C23.6924 17.9383 25.2986 18.5384 25.8618 18.8333C25.8685 18.8367 25.8735 18.8401 25.8785 18.8418C26.2679 19.0333 26.7977 19.2723 27.2206 19.4604C24.8824 20.1673 19.205 22.4572 17.0139 28.4288C14.2228 36.0343 18.0785 42.7041 18.0785 42.7041C18.0785 42.7041 20.7041 47.9112 26.43 50.3113C26.43 50.3113 21.864 46.184 21.9827 41.7448L22.0061 41.7685C22.1715 42.0092 23.0239 42.9211 23.0239 42.9211C23.9699 43.9534 24.986 44.9127 26.0506 45.8009C31.7064 50.5741 38.5905 53.0471 45.9242 51.2944C45.9242 51.2944 40.3169 51.6538 36.5799 47.4078C36.5799 47.4078 45.4679 47.84 53.6757 38.8497C53.4534 39.0514 49.3186 42.7228 43.7481 41.6736C43.7481 41.6736 48.8824 38.9141 52.5025 31.1882C52.5025 31.1882 56.8078 22.6454 53.5671 15.6399C53.5671 15.6399 61.4924 23.0776 53.5203 35.3851C53.6105 35.3241 56.527 33.307 59.7175 26.2693C59.7175 26.2693 61.444 33.6833 56.3582 40.7142C56.3582 40.7142 54.0401 44.8653 48.5983 47.2637C48.5983 47.2637 51.839 47.8163 59.3381 41.8651Z" fill="white"/>
</g>
<defs>
<clipPath id="clip0_105805_1683">
<rect width="60" height="60" fill="white"/>
</clipPath>
</defs>
</svg>
