<svg width="60" height="60" viewBox="0 0 60 60" fill="none" xmlns="http://www.w3.org/2000/svg">
<path fill-rule="evenodd" clip-rule="evenodd" d="M11.8059 9.41536C11.0263 10.1446 10.898 10.6568 10.898 10.9267C10.898 11.1966 11.0263 11.7089 11.8059 12.4381C12.5895 13.1711 13.8564 13.9439 15.6263 14.6441C19.1517 16.0389 24.1894 16.9555 29.8777 16.9555C35.5661 16.9555 40.6038 16.0389 44.1292 14.6441C45.8991 13.9439 47.166 13.1711 47.9496 12.4381C48.7292 11.7089 48.8575 11.1966 48.8575 10.9267C48.8575 10.6568 48.7292 10.1446 47.9496 9.41536C47.166 8.68238 45.8991 7.90954 44.1292 7.20933C40.6038 5.81459 35.5661 4.898 29.8777 4.898C24.1894 4.898 19.1517 5.81459 15.6263 7.20933C13.8564 7.90954 12.5895 8.68238 11.8059 9.41536ZM13.8244 2.65481C18.0547 0.981212 23.7314 0 29.8777 0C36.0241 0 41.7008 0.981212 45.9311 2.65481C48.0391 3.48877 49.9104 4.54272 51.2954 5.83827C52.6846 7.13759 53.7555 8.85557 53.7555 10.9267C53.7555 12.9979 52.6846 14.7159 51.2954 16.0152C49.9104 17.3107 48.0391 18.3647 45.9311 19.1986C41.7008 20.8722 36.0241 21.8535 29.8777 21.8535C23.7314 21.8535 18.0547 20.8722 13.8244 19.1986C11.7164 18.3647 9.84512 17.3107 8.46004 16.0152C7.07093 14.7159 6 12.9979 6 10.9267C6 8.85557 7.07093 7.13759 8.46004 5.83827C9.84512 4.54272 11.7164 3.48877 13.8244 2.65481Z" fill="white"/>
<path fill-rule="evenodd" clip-rule="evenodd" d="M8.449 8.47823C9.80154 8.47823 10.898 9.57418 10.898 10.9267V23.6438C10.898 23.9139 11.0264 24.4262 11.8059 25.1554C12.5895 25.8884 13.8563 26.6612 15.6262 27.3614C19.1515 28.7561 24.1892 29.6726 29.8777 29.6726C35.5663 29.6726 40.604 28.7561 44.1293 27.3614C45.8992 26.6612 47.166 25.8884 47.9496 25.1554C48.7291 24.4262 48.8575 23.9139 48.8575 23.6438V10.9267C48.8575 9.57418 49.9539 8.47823 51.3065 8.47823C52.659 8.47823 53.7555 9.57418 53.7555 10.9267V23.6438C53.7555 25.715 52.6847 27.433 51.2955 28.7324C49.9104 30.028 48.0391 31.082 45.9312 31.9159C41.7009 33.5895 36.0242 34.5706 29.8777 34.5706C23.7313 34.5706 18.0546 33.5895 13.8243 31.9159C11.7164 31.082 9.84505 30.028 8.45998 28.7324C7.07083 27.433 6 25.715 6 23.6438V10.9267C6 9.57418 7.09645 8.47823 8.449 8.47823Z" fill="white"/>
<path fill-rule="evenodd" clip-rule="evenodd" d="M8.449 21.1948C9.80154 21.1948 10.898 22.2913 10.898 23.6438V36.3604C10.898 36.6305 11.0264 37.1428 11.8059 37.872C12.5895 38.605 13.8563 39.3778 15.6262 40.078C19.1515 41.4726 24.1892 42.3891 29.8777 42.3891C35.5663 42.3891 40.604 41.4726 44.1293 40.078C45.8992 39.3778 47.166 38.605 47.9496 37.872C48.7291 37.1428 48.8575 36.6305 48.8575 36.3604V23.6438C48.8575 22.2913 49.9539 21.1948 51.3065 21.1948C52.659 21.1948 53.7555 22.2913 53.7555 23.6438V36.3604C53.7555 38.4316 52.6847 40.1496 51.2955 41.449C49.9104 42.7446 48.0391 43.7986 45.9312 44.6325C41.7009 46.306 36.0242 47.2871 29.8777 47.2871C23.7313 47.2871 18.0546 46.306 13.8243 44.6325C11.7164 43.7986 9.84505 42.7446 8.45998 41.449C7.07083 40.1496 6 38.4316 6 36.3604V23.6438C6 22.2913 7.09645 21.1948 8.449 21.1948Z" fill="white"/>
<path fill-rule="evenodd" clip-rule="evenodd" d="M8.449 33.9077C9.80154 33.9077 10.898 35.0041 10.898 36.3567V49.0733C10.898 49.3433 11.0264 49.8557 11.8059 50.5848C12.5895 51.3178 13.8563 52.0906 15.6262 52.7908C19.1515 54.1855 24.1892 55.102 29.8777 55.102C35.5663 55.102 40.604 54.1855 44.1293 52.7908C45.8992 52.0906 47.166 51.3178 47.9496 50.5848C48.7291 49.8557 48.8575 49.3433 48.8575 49.0733V36.3567C48.8575 35.0041 49.9539 33.9077 51.3065 33.9077C52.659 33.9077 53.7555 35.0041 53.7555 36.3567V49.0733C53.7555 51.1445 52.6847 52.8625 51.2955 54.1619C49.9104 55.4575 48.0391 56.5114 45.9312 57.3453C41.7009 59.0189 36.0242 60 29.8777 60C23.7313 60 18.0546 59.0189 13.8243 57.3453C11.7164 56.5114 9.84505 55.4575 8.45998 54.1619C7.07083 52.8625 6 51.1445 6 49.0733V36.3567C6 35.0041 7.09645 33.9077 8.449 33.9077Z" fill="white"/>
</svg>
