<?xml version="1.0" encoding="utf-8"?>
<!-- Generator: Adobe Illustrator 26.1.0, SVG Export Plug-In . SVG Version: 6.00 Build 0)  -->
<svg version="1.1" id="Layer_1" xmlns="http://www.w3.org/2000/svg" xmlns:xlink="http://www.w3.org/1999/xlink" x="0px" y="0px"
	 viewBox="0 0 306.4 111.3" style="enable-background:new 0 0 306.4 111.3;" xml:space="preserve">
<style type="text/css">
	.st0{fill:#FEFCF8;}
</style>
<g id="Warstwa_1">
</g>
<g>
	<path class="st0" d="M47.4,60.6c-0.6,0-1.2,0-1.7-0.1V48.8c0.6,0.1,1.1,0.2,1.7,0.2h4.3v11.7H47.4z"/>
	<path class="st0" d="M47.4,57.8c-0.6,0-1.1,0-1.7-0.1v-6c0.6,0.1,1.1,0.1,1.7,0.1h4.3v6L47.4,57.8L47.4,57.8z"/>
	<path class="st0" d="M96.8,51.8h-42v6h42c7.2,0,13.2,5.9,13.2,13.2v0.7c0,7.2-5.9,13.2-13.2,13.2H48.6c-7.2,0-13.2-5.9-13.2-13.2
		v-6.7h-6v6.7c0,10.6,8.6,19.2,19.1,19.2h48.2c10.6,0,19.2-8.6,19.2-19.2v-0.7C115.9,60.4,107.3,51.8,96.8,51.8z"/>
	<path class="st0" d="M96.8,20.7H48.6c-10.6,0-19.1,8.6-19.1,19.2c0,8.2,5.5,15.1,13,17.2v-6.4c-4.1-1.9-7-6-7-10.9
		c0-7.3,5.9-13.2,13.2-13.2h48.2c7.2,0,13.2,5.9,13.2,13.2v5.9h6v-5.9C115.9,29.3,107.3,20.7,96.8,20.7z"/>
</g>
<g>
	<path class="st0" d="M92.5,66h6c0,5.2-4.2,9.4-9.4,9.4H52.3c-3.7,0-6.7-3-6.7-6.7V44.3c0-3.7,3-6.7,6.7-6.7h38
		c4.5,0,8.2,3.7,8.2,8.2h-6c0-1.2-1-2.2-2.2-2.2h-38c-0.4,0-0.7,0.3-0.7,0.7v24.4c0,0.4,0.3,0.7,0.7,0.7h36.8
		C91,69.4,92.5,67.9,92.5,66z"/>
</g>
<g>
	<path class="st0" d="M146.7,52.5c-1.5,0-2.9-0.2-4.3-0.7s-2.4-1.1-3.2-1.9l0.8-1.6c0.7,0.7,1.7,1.3,2.9,1.8s2.5,0.7,3.8,0.7
		c1.3,0,2.3-0.2,3.1-0.5c0.8-0.3,1.4-0.8,1.8-1.3s0.6-1.1,0.6-1.8c0-0.8-0.2-1.4-0.7-1.9s-1.1-0.9-1.8-1.1s-1.6-0.5-2.4-0.7
		s-1.8-0.4-2.7-0.7c-0.9-0.2-1.7-0.6-2.4-1c-0.7-0.4-1.3-0.9-1.8-1.6c-0.4-0.7-0.7-1.5-0.7-2.6c0-1,0.3-1.9,0.8-2.8
		c0.5-0.8,1.4-1.5,2.4-2c1.1-0.5,2.5-0.8,4.2-0.8c1.1,0,2.3,0.2,3.4,0.5c1.1,0.3,2.1,0.8,2.9,1.3l-0.7,1.7c-0.9-0.6-1.8-1-2.8-1.3
		c-1-0.3-1.9-0.4-2.8-0.4c-1.2,0-2.2,0.2-3,0.5c-0.8,0.3-1.4,0.8-1.8,1.3c-0.4,0.6-0.6,1.2-0.6,1.9c0,0.8,0.2,1.4,0.7,1.9
		s1.1,0.9,1.8,1.1c0.7,0.3,1.6,0.5,2.4,0.7s1.8,0.4,2.6,0.7c0.9,0.2,1.7,0.6,2.4,1c0.7,0.4,1.3,0.9,1.8,1.6c0.4,0.7,0.7,1.5,0.7,2.6
		c0,1-0.3,1.9-0.8,2.7s-1.4,1.5-2.5,2C149.9,52.2,148.5,52.5,146.7,52.5z"/>
	<path class="st0" d="M163,52.3V33.9h-7.1V32h16.4v1.9h-7.1v18.4H163z"/>
	<path class="st0" d="M175.3,52.3V32h7.6c2.6,0,4.6,0.6,6.1,1.8s2.2,2.9,2.2,5.1c0,1.4-0.3,2.7-1,3.7c-0.7,1-1.6,1.8-2.9,2.4
		c-1.2,0.5-2.7,0.8-4.4,0.8h-6.4l1-1v7.4H175.3z M177.4,45.1l-1-1h6.4c2,0,3.6-0.4,4.6-1.3c1.1-0.9,1.6-2.1,1.6-3.7
		c0-1.6-0.5-2.9-1.6-3.8s-2.6-1.3-4.6-1.3h-6.4l1-1V45.1z M189.1,52.3l-5.2-7.4h2.3l5.2,7.4H189.1z"/>
	<path class="st0" d="M195.7,52.3V32h13.9v1.9h-11.8v16.6H210v1.9L195.7,52.3L195.7,52.3z M197.6,42.9v-1.8h10.7v1.8H197.6z"/>
	<path class="st0" d="M213.8,52.3V32h8.8c2.3,0,4,0.4,5.3,1.4c1.2,0.9,1.9,2.2,1.9,3.9c0,1.1-0.3,2-0.8,2.8
		c-0.5,0.8-1.2,1.3-2.1,1.7s-1.8,0.6-2.9,0.6l0.5-0.7c1.3,0,2.4,0.2,3.4,0.6c0.9,0.4,1.7,1,2.2,1.8s0.8,1.8,0.8,2.9
		c0,1.7-0.6,3-1.9,4s-3.2,1.4-5.7,1.4L213.8,52.3L213.8,52.3z M215.9,50.6h7.2c1.8,0,3.1-0.3,4.1-0.9s1.4-1.6,1.4-2.9
		c0-1.3-0.5-2.3-1.4-2.9s-2.3-0.9-4.1-0.9h-7.4v-1.8h6.7c1.6,0,2.9-0.3,3.8-0.9c0.9-0.6,1.4-1.5,1.4-2.8c0-1.2-0.5-2.2-1.4-2.8
		s-2.2-0.9-3.8-0.9h-6.5L215.9,50.6L215.9,50.6z"/>
	<path class="st0" d="M235.1,52.3V32h13.9v1.9h-11.8v16.6h12.2v1.9L235.1,52.3L235.1,52.3z M237.1,42.9v-1.8h10.7v1.8H237.1z"/>
	<path class="st0" d="M253.3,52.3V32h2.1v18.4h11.4v1.9L253.3,52.3L253.3,52.3z"/>
	<path class="st0" d="M149.9,79.7c-1.5,0-2.9-0.3-4.2-0.8c-1.3-0.5-2.4-1.2-3.4-2.2c-0.9-0.9-1.7-2-2.2-3.3s-0.8-2.6-0.8-4.1
		s0.3-2.9,0.8-4.1c0.5-1.3,1.3-2.4,2.2-3.3c1-0.9,2.1-1.6,3.4-2.2c1.3-0.5,2.7-0.8,4.2-0.8c1.5,0,2.9,0.2,4.1,0.7
		c1.3,0.5,2.4,1.2,3.3,2.2l-1.4,1.4c-0.8-0.9-1.8-1.5-2.8-1.8c-1-0.4-2.1-0.6-3.2-0.6c-1.2,0-2.4,0.2-3.4,0.6c-1,0.4-1.9,1-2.7,1.8
		c-0.8,0.8-1.4,1.6-1.8,2.7s-0.6,2.1-0.6,3.4s0.2,2.3,0.6,3.4c0.4,1,1,1.9,1.8,2.7c0.8,0.8,1.7,1.4,2.7,1.8s2.2,0.6,3.4,0.6
		c1.2,0,2.2-0.2,3.2-0.6c1-0.4,1.9-1,2.8-1.9l1.4,1.4c-0.9,1-2,1.7-3.3,2.2C152.8,79.4,151.4,79.7,149.9,79.7z"/>
	<path class="st0" d="M169.7,79.7c-1.5,0-2.9-0.3-4.2-0.8c-1.3-0.5-2.4-1.2-3.4-2.2c-1-0.9-1.7-2-2.2-3.3s-0.8-2.6-0.8-4.1
		s0.3-2.9,0.8-4.1c0.5-1.3,1.3-2.3,2.2-3.3s2.1-1.7,3.4-2.2c1.3-0.5,2.7-0.8,4.3-0.8c1.5,0,2.9,0.3,4.2,0.8c1.3,0.5,2.4,1.2,3.4,2.2
		s1.7,2,2.2,3.3c0.5,1.3,0.8,2.6,0.8,4.1s-0.3,2.9-0.8,4.1s-1.3,2.4-2.2,3.3c-1,0.9-2.1,1.6-3.4,2.2
		C172.6,79.4,171.2,79.7,169.7,79.7z M169.7,77.8c1.2,0,2.3-0.2,3.4-0.6s1.9-1,2.7-1.8c0.8-0.8,1.4-1.6,1.8-2.7
		c0.4-1,0.6-2.1,0.6-3.4S178,67,177.5,66c-0.4-1-1-1.9-1.8-2.7c-0.8-0.8-1.7-1.4-2.7-1.8c-1-0.4-2.2-0.6-3.4-0.6s-2.4,0.2-3.4,0.6
		c-1,0.4-1.9,1-2.7,1.8c-0.8,0.8-1.4,1.6-1.8,2.7c-0.4,1-0.6,2.1-0.6,3.4c0,1.2,0.2,2.3,0.6,3.3c0.4,1,1,1.9,1.8,2.7
		s1.7,1.4,2.7,1.8S168.5,77.8,169.7,77.8z"/>
	<path class="st0" d="M184.6,79.5V59.2h1.8l9.3,15.8h-0.9l9.2-15.8h1.8v20.3h-2.1V62.4h0.5l-8.5,14.5h-1l-8.5-14.5h0.6v17.1H184.6z"
		/>
	<path class="st0" d="M211.4,79.5V59.2h7.6c1.7,0,3.2,0.3,4.4,0.8s2.2,1.3,2.9,2.4c0.7,1,1,2.3,1,3.8c0,1.4-0.3,2.7-1,3.7
		c-0.7,1-1.6,1.8-2.9,2.4c-1.2,0.6-2.7,0.8-4.4,0.8h-6.4l1-1v7.4L211.4,79.5L211.4,79.5z M213.6,72.2l-1-1h6.3c2,0,3.6-0.4,4.6-1.3
		s1.6-2.1,1.6-3.7c0-1.6-0.5-2.9-1.6-3.8s-2.6-1.3-4.6-1.3h-6.4l1-1L213.6,72.2L213.6,72.2z"/>
	<path class="st0" d="M227,79.5l9.3-20.3h2.1l9.3,20.3h-2.3l-8.5-19h0.9l-8.5,19H227z M230.6,74.1l0.6-1.7h11.8l0.6,1.7H230.6z"/>
	<path class="st0" d="M250.6,79.5V59.2h1.8l14,17.6h-0.9V59.2h2.1v20.3h-1.8l-14-17.6h0.9v17.6H250.6z"/>
	<path class="st0" d="M278.6,79.5V72l0.5,1.3l-8.6-14.1h2.3l7.6,12.4h-1.2l7.6-12.4h2.1l-8.6,14.1l0.5-1.3v7.5H278.6z"/>
</g>
</svg>
