<svg width="88" height="100" viewBox="0 0 88 100" fill="none" xmlns="http://www.w3.org/2000/svg">
<path d="M44.0001 23L66.32 30.968L62.9168 60.512L44.0001 71L25.0833 60.512L21.6801 30.968L44.0001 23ZM44.0001 28.304L30.0465 59.624H35.2497L38.0553 52.616H49.8968L52.7048 59.624H57.9057L44.0001 28.304ZM48.0753 48.296H39.9249L44.0001 38.48L48.0753 48.296Z" fill="white"/>
<path d="M21.8307 94.264H18.1627L17.5747 96H15.0687L18.6247 86.172H21.3967L24.9527 96H22.4187L21.8307 94.264ZM21.2147 92.416L19.9967 88.818L18.7927 92.416H21.2147ZM30.795 88.104C31.7097 88.104 32.4377 88.4027 32.979 89C33.5297 89.588 33.805 90.4 33.805 91.436V96H31.425V91.758C31.425 91.2353 31.2897 90.8293 31.019 90.54C30.7483 90.2507 30.3843 90.106 29.927 90.106C29.4697 90.106 29.1057 90.2507 28.835 90.54C28.5643 90.8293 28.429 91.2353 28.429 91.758V96H26.035V88.188H28.429V89.224C28.6717 88.8787 28.9983 88.608 29.409 88.412C29.8197 88.2067 30.2817 88.104 30.795 88.104ZM38.4366 88.076C38.9873 88.076 39.4679 88.188 39.8786 88.412C40.2986 88.636 40.6206 88.93 40.8446 89.294V88.188H43.2386V95.986C43.2386 96.7047 43.0939 97.3533 42.8046 97.932C42.5246 98.52 42.0906 98.9867 41.5026 99.332C40.9239 99.6773 40.2006 99.85 39.3326 99.85C38.1753 99.85 37.2373 99.5747 36.5186 99.024C35.7999 98.4827 35.3893 97.7453 35.2866 96.812H37.6526C37.7273 97.1107 37.9046 97.344 38.1846 97.512C38.4646 97.6893 38.8099 97.778 39.2206 97.778C39.7153 97.778 40.1073 97.6333 40.3966 97.344C40.6953 97.064 40.8446 96.6113 40.8446 95.986V94.88C40.6113 95.244 40.2893 95.5427 39.8786 95.776C39.4679 96 38.9873 96.112 38.4366 96.112C37.7926 96.112 37.2093 95.9487 36.6866 95.622C36.1639 95.286 35.7486 94.8147 35.4406 94.208C35.1419 93.592 34.9926 92.8827 34.9926 92.08C34.9926 91.2773 35.1419 90.5727 35.4406 89.966C35.7486 89.3593 36.1639 88.8927 36.6866 88.566C37.2093 88.2393 37.7926 88.076 38.4366 88.076ZM40.8446 92.094C40.8446 91.4967 40.6766 91.0253 40.3406 90.68C40.0139 90.3347 39.6126 90.162 39.1366 90.162C38.6606 90.162 38.2546 90.3347 37.9186 90.68C37.5919 91.016 37.4286 91.4827 37.4286 92.08C37.4286 92.6773 37.5919 93.1533 37.9186 93.508C38.2546 93.8533 38.6606 94.026 39.1366 94.026C39.6126 94.026 40.0139 93.8533 40.3406 93.508C40.6766 93.1627 40.8446 92.6913 40.8446 92.094ZM52.6845 88.188V96H50.2905V94.936C50.0479 95.2813 49.7165 95.5613 49.2965 95.776C48.8859 95.9813 48.4285 96.084 47.9245 96.084C47.3272 96.084 46.7999 95.9533 46.3425 95.692C45.8852 95.4213 45.5305 95.034 45.2785 94.53C45.0265 94.026 44.9005 93.4333 44.9005 92.752V88.188H47.2805V92.43C47.2805 92.9527 47.4159 93.3587 47.6865 93.648C47.9572 93.9373 48.3212 94.082 48.7785 94.082C49.2452 94.082 49.6139 93.9373 49.8845 93.648C50.1552 93.3587 50.2905 92.9527 50.2905 92.43V88.188H52.6845ZM56.7981 85.64V96H54.4041V85.64H56.7981ZM58.057 92.08C58.057 91.2773 58.2064 90.5727 58.505 89.966C58.813 89.3593 59.2284 88.8927 59.751 88.566C60.2737 88.2393 60.857 88.076 61.501 88.076C62.0517 88.076 62.5324 88.188 62.943 88.412C63.363 88.636 63.685 88.93 63.909 89.294V88.188H66.303V96H63.909V94.894C63.6757 95.258 63.349 95.552 62.929 95.776C62.5184 96 62.0377 96.112 61.487 96.112C60.8524 96.112 60.2737 95.9487 59.751 95.622C59.2284 95.286 58.813 94.8147 58.505 94.208C58.2064 93.592 58.057 92.8827 58.057 92.08ZM63.909 92.094C63.909 91.4967 63.741 91.0253 63.405 90.68C63.0784 90.3347 62.677 90.162 62.201 90.162C61.725 90.162 61.319 90.3347 60.983 90.68C60.6564 91.016 60.493 91.4827 60.493 92.08C60.493 92.6773 60.6564 93.1533 60.983 93.508C61.319 93.8533 61.725 94.026 62.201 94.026C62.677 94.026 63.0784 93.8533 63.405 93.508C63.741 93.1627 63.909 92.6913 63.909 92.094ZM70.429 89.49C70.709 89.0607 71.059 88.7247 71.479 88.482C71.899 88.23 72.3657 88.104 72.879 88.104V90.638H72.221C71.6237 90.638 71.1757 90.7687 70.877 91.03C70.5783 91.282 70.429 91.73 70.429 92.374V96H68.035V88.188H70.429V89.49Z" fill="white"/>
</svg>
