<svg width="88" height="100" viewBox="0 0 88 100" fill="none" xmlns="http://www.w3.org/2000/svg">
<path d="M38.1805 66.9134C34.9458 66.0036 32.101 64.3285 29.6173 61.9892C28.8375 62.2635 28.0433 62.5379 27.2346 62.7978C26.8592 62.9134 26.4837 62.87 26.0938 62.7256C25.4007 62.4657 24.9819 61.9603 24.6787 61.3394C24.2599 60.5162 23.7256 59.7653 23.3068 58.9422C22.9314 58.1769 22.3826 57.5126 22.0649 56.7184C21.9061 56.3285 21.4873 56.0686 21.4873 55.5776C21.1119 54.9711 21.4729 54.4368 21.6895 53.9025C21.7473 53.7581 21.8195 53.5704 21.9494 53.5126C22.4693 53.2816 22.7292 52.7617 23.1624 52.444C23.3646 52.2996 23.5812 52.1408 23.8122 51.9675C23.4801 50.3069 23.1913 48.6462 23.1913 46.9422C23.1913 45.2527 23.4945 43.6209 23.8122 42.0036C23.2491 41.4838 22.7292 40.9783 22.1805 40.5018C21.6173 40.0108 21.2852 39.4043 21.3574 38.769C21.4007 38.4224 21.5018 38.0469 21.6751 37.7581C22.2093 36.9061 22.7003 36.0108 23.2202 35.1444C23.639 34.4513 24 33.7292 24.4621 33.0505C24.7075 32.704 24.8519 32.2996 25.0974 31.9386C25.574 31.2599 26.527 30.9278 27.3068 31.1588C28 31.361 28.6498 31.6643 29.3574 31.7942C29.4296 31.8087 29.4873 31.9097 29.5595 31.9819C32.0577 29.657 34.9025 27.9964 38.166 27.0289C38.296 26.639 38.3249 26.2202 38.4837 25.8159C38.5992 25.5126 38.5704 25.1372 38.6281 24.8051C38.787 23.9386 39.3213 23.4332 40.0866 23.1733C40.361 23.0866 40.6353 23 40.9675 23C42.9891 23.0289 45.0108 23.0289 47.0325 23C47.6101 23 48.101 23.231 48.5631 23.491C48.9819 23.7076 49.213 24.1697 49.3285 24.6029C49.5306 25.3971 49.6462 26.2058 49.805 27.0433C53.0541 27.9675 55.8989 29.6282 58.3826 31.9675C59.1624 31.6931 59.9566 31.4188 60.7653 31.1588C61.1408 31.0433 61.5162 31.0866 61.9061 31.231C62.5992 31.491 63.018 31.9964 63.3213 32.6173C63.74 33.4404 64.2743 34.1913 64.6931 35.0144C65.0685 35.7798 65.6173 36.444 65.935 37.2383C66.0938 37.6282 66.5126 37.8881 66.5126 38.3791C66.888 38.9856 66.527 39.5199 66.3104 40.0542C66.2527 40.1986 66.1805 40.3863 66.0505 40.444C65.5306 40.6751 65.2707 41.1949 64.8375 41.5126C64.6353 41.657 64.4187 41.8159 64.1877 41.9892C64.5198 43.6498 64.8086 45.3105 64.8086 47.0144C64.8086 48.704 64.5487 50.3357 64.1877 51.9531C64.7509 52.4729 65.2707 52.9783 65.8195 53.4549C66.3826 53.9458 66.7148 54.5523 66.6426 55.1877C66.5992 55.5343 66.5126 55.9097 66.3249 56.1986C65.805 57.0361 65.314 57.9025 64.8086 58.7545C64.1732 59.8087 63.6534 60.9495 62.9169 61.9458C62.787 62.4946 62.2671 62.5379 61.8917 62.7401C61.4873 62.9567 61.083 62.8989 60.6353 62.769C59.9711 62.5812 59.3357 62.2491 58.6426 62.1625C58.5704 62.148 58.5126 62.0469 58.4404 61.9747C55.9422 64.3285 53.1119 66.0036 49.805 66.9422C49.6462 67.722 49.5018 68.5307 49.3285 69.3249C49.1552 70.1047 48.6353 70.5957 47.8989 70.8267C47.6245 70.9134 47.3357 71 47.018 71C44.9963 70.9711 42.9747 70.9711 40.953 71C40.3754 71 39.8844 70.769 39.4223 70.509C39.0036 70.2924 38.7581 69.8303 38.6714 69.3971C38.5126 68.5451 38.3538 67.7509 38.1805 66.9134ZM39.1191 54.1913C39.4079 54.0325 39.74 53.9314 39.7545 53.5848C39.7834 53.065 39.8556 52.5307 39.74 52.0397C39.5379 51.2022 39.1769 50.3935 38.9602 49.556C38.8158 49.0217 38.4982 48.5162 38.5126 47.9386C38.0505 46.7978 37.7617 45.5993 37.3718 44.444C37.0541 43.491 36.8231 42.509 36.4765 41.5704C36.2888 41.0505 36.2454 40.4729 35.8989 40.0108C35.87 39.9675 35.8556 39.9386 35.8556 39.9386C35.4657 39.6787 35.0613 39.7653 34.7148 39.7653C34.5126 39.9531 34.3393 40.1119 34.1805 40.2563C34.166 40.7184 33.8339 41.0794 33.8917 41.5271C33.3862 42.6534 33.1696 43.8664 32.7509 45.0217C32.5343 45.6137 32.4043 46.2202 32.231 46.8267C32.0722 47.4332 31.7256 47.982 31.7256 48.6318C31.1769 49.8592 30.9025 51.1733 30.4982 52.4585C30.3971 52.7762 30.3393 53.0794 30.5415 53.3827C30.5992 53.4693 30.5704 53.5993 30.5704 53.5848C30.8014 53.8303 30.9747 54.0036 31.1191 54.1769C31.3935 54.1769 31.6823 54.1769 31.9855 54.1769C32.1877 53.917 32.3899 53.6715 32.5776 53.426C32.5343 52.6029 32.7075 52.0542 33.083 51.1733C34.4982 51.1733 35.9133 51.1733 37.3285 51.1733C37.444 51.6354 37.5018 52.083 37.6606 52.5018C37.7328 52.6751 37.805 52.8484 37.7761 53.0217C37.7328 53.556 37.9061 53.9747 38.5126 54.1769C38.657 54.1913 38.8736 54.1913 39.1191 54.1913ZM42.4982 54.1913C42.888 54.1625 43.3357 54.278 43.6534 53.9603C43.7689 53.8159 43.87 53.6715 44.0144 53.4693C44.0144 52.0253 44.0144 50.509 44.0144 48.9928C45.0686 48.9928 46.1083 48.9495 47.1335 49.0072C47.7545 49.0361 48.2599 48.8484 48.7509 48.5451C48.9819 48.4007 49.1841 48.1841 49.3862 47.982C49.9205 47.4621 50.1805 46.8267 50.1949 46.0758C50.1949 44.8917 50.1949 43.722 50.1949 42.5379C50.1949 42.3646 50.1516 42.1769 50.1083 42.0036C49.9494 41.3827 49.6173 40.9206 49.1696 40.5162C48.6498 40.0397 48.0433 39.7509 47.3213 39.7509C45.7039 39.7509 44.101 39.7509 42.4693 39.7509C42.3104 39.9242 42.1516 40.0975 41.9639 40.2708C41.9639 44.7184 41.9639 49.1949 41.9639 53.6859C42.1516 53.8448 42.3249 54.0181 42.4982 54.1913ZM52.8953 54.1913C53.8917 54.1913 54.9025 54.1913 55.8989 54.1913C56.0722 54.0181 56.2454 53.8448 56.4187 53.6859C56.4187 53.4116 56.4187 53.1516 56.4187 52.8773C56.4187 52.8484 56.4187 52.8339 56.4187 52.8195C56.2021 52.4152 55.87 52.1697 55.4368 52.1264C55.4368 48.6751 55.4368 45.2383 55.4368 41.8736C55.7545 41.7148 56.0288 41.5704 56.3465 41.3971C56.3899 41.0217 56.4187 40.6318 56.4476 40.3574C56.2166 40.0975 56.0577 39.9097 55.9278 39.7653C54.888 39.7653 53.8772 39.7653 52.9819 39.7653C52.7364 39.9819 52.5631 40.1408 52.3465 40.343C52.3898 40.6895 52.4476 41.0794 52.4909 41.4116C52.8375 41.5848 53.1119 41.7292 53.3574 41.8592C53.3574 45.296 53.3574 48.7329 53.3574 52.1408C53.213 52.1697 53.0541 52.1408 52.9963 52.213C52.7942 52.4152 52.4476 52.4729 52.3754 52.8051C52.3754 53.0939 52.3754 53.3827 52.3754 53.6715C52.5487 53.8448 52.722 54.0181 52.8953 54.1913Z" fill="white"/>
<path d="M36.5632 48.9642C35.7112 48.9931 34.8159 49.0075 33.9206 49.0364C33.8917 49.0364 33.8484 49.0941 33.7617 49.1663C33.7762 48.271 34.2816 47.549 34.3393 46.7259C34.7725 46.0039 34.8159 45.1519 35.1047 44.3432C35.1913 44.4299 35.3213 44.5165 35.3213 44.5887C35.3357 45.2097 35.6967 45.744 35.8123 46.336C35.8989 46.7403 36.13 47.1302 36.1877 47.5346C36.2455 48.0544 36.592 48.4443 36.5632 48.9642Z" fill="white"/>
<path d="M48.1878 46.1635C48.0867 46.3223 48 46.4812 47.8845 46.6256C47.6824 46.8566 47.4224 46.9866 47.0903 46.9722C46.0795 46.9577 45.0686 46.9722 44.0289 46.9722C44.0289 45.2538 44.0289 43.5353 44.0289 41.7736C45.0831 41.7736 46.1661 41.7592 47.2347 41.7736C47.7401 41.788 48.1733 42.3079 48.1878 42.8566C48.1878 43.7664 48.1878 44.6761 48.1878 45.5859C48.1878 45.788 48.1878 45.9758 48.1878 46.1635Z" fill="white"/>
<path d="M20.7931 96L18.7491 92.29H18.1751V96H15.7811V86.172H19.7991C20.5738 86.172 21.2318 86.3073 21.7731 86.578C22.3238 86.8487 22.7344 87.222 23.0051 87.698C23.2758 88.1647 23.4111 88.6873 23.4111 89.266C23.4111 89.9193 23.2244 90.5027 22.8511 91.016C22.4871 91.5293 21.9458 91.8933 21.2271 92.108L23.4951 96H20.7931ZM18.1751 90.596H19.6591C20.0978 90.596 20.4244 90.4887 20.6391 90.274C20.8631 90.0593 20.9751 89.756 20.9751 89.364C20.9751 88.9907 20.8631 88.6967 20.6391 88.482C20.4244 88.2673 20.0978 88.16 19.6591 88.16H18.1751V90.596ZM32.2779 91.968C32.2779 92.192 32.2639 92.4253 32.2359 92.668H26.8179C26.8552 93.1533 27.0092 93.5267 27.2799 93.788C27.5599 94.04 27.9006 94.166 28.3019 94.166C28.8992 94.166 29.3146 93.914 29.5479 93.41H32.0959C31.9652 93.9233 31.7272 94.3853 31.3819 94.796C31.0459 95.2067 30.6212 95.5287 30.1079 95.762C29.5946 95.9953 29.0206 96.112 28.3859 96.112C27.6206 96.112 26.9392 95.9487 26.3419 95.622C25.7446 95.2953 25.2779 94.8287 24.9419 94.222C24.6059 93.6153 24.4379 92.906 24.4379 92.094C24.4379 91.282 24.6012 90.5727 24.9279 89.966C25.2639 89.3593 25.7306 88.8927 26.3279 88.566C26.9252 88.2393 27.6112 88.076 28.3859 88.076C29.1419 88.076 29.8139 88.2347 30.4019 88.552C30.9899 88.8693 31.4472 89.322 31.7739 89.91C32.1099 90.498 32.2779 91.184 32.2779 91.968ZM29.8279 91.338C29.8279 90.9273 29.6879 90.6007 29.4079 90.358C29.1279 90.1153 28.7779 89.994 28.3579 89.994C27.9566 89.994 27.6159 90.1107 27.3359 90.344C27.0652 90.5773 26.8972 90.9087 26.8319 91.338H29.8279ZM36.7189 96.112C36.0375 96.112 35.4309 95.9953 34.8989 95.762C34.3669 95.5287 33.9469 95.2113 33.6389 94.81C33.3309 94.3993 33.1582 93.942 33.1209 93.438H35.4869C35.5149 93.7087 35.6409 93.928 35.8649 94.096C36.0889 94.264 36.3642 94.348 36.6909 94.348C36.9895 94.348 37.2182 94.292 37.3769 94.18C37.5449 94.0587 37.6289 93.9047 37.6289 93.718C37.6289 93.494 37.5122 93.3307 37.2789 93.228C37.0455 93.116 36.6675 92.9947 36.1449 92.864C35.5849 92.7333 35.1182 92.598 34.7449 92.458C34.3715 92.3087 34.0495 92.08 33.7789 91.772C33.5082 91.4547 33.3729 91.03 33.3729 90.498C33.3729 90.05 33.4942 89.644 33.7369 89.28C33.9889 88.9067 34.3529 88.6127 34.8289 88.398C35.3142 88.1833 35.8882 88.076 36.5509 88.076C37.5309 88.076 38.3009 88.3187 38.8609 88.804C39.4302 89.2893 39.7569 89.9333 39.8409 90.736H37.6289C37.5915 90.4653 37.4702 90.2507 37.2649 90.092C37.0689 89.9333 36.8075 89.854 36.4809 89.854C36.2009 89.854 35.9862 89.91 35.8369 90.022C35.6875 90.1247 35.6129 90.2693 35.6129 90.456C35.6129 90.68 35.7295 90.848 35.9629 90.96C36.2055 91.072 36.5789 91.184 37.0829 91.296C37.6615 91.4453 38.1329 91.5947 38.4969 91.744C38.8609 91.884 39.1782 92.1173 39.4489 92.444C39.7289 92.7613 39.8735 93.1907 39.8829 93.732C39.8829 94.1893 39.7522 94.6 39.4909 94.964C39.2389 95.3187 38.8702 95.5987 38.3849 95.804C37.9089 96.0093 37.3535 96.112 36.7189 96.112ZM45.7015 93.97V96H44.4835C43.6155 96 42.9388 95.79 42.4535 95.37C41.9682 94.9407 41.7255 94.2453 41.7255 93.284V90.176H40.7735V88.188H41.7255V86.284H44.1195V88.188H45.6875V90.176H44.1195V93.312C44.1195 93.5453 44.1755 93.7133 44.2875 93.816C44.3995 93.9187 44.5862 93.97 44.8475 93.97H45.7015ZM56.1198 94.264H52.4518L51.8638 96H49.3578L52.9138 86.172H55.6858L59.2418 96H56.7078L56.1198 94.264ZM55.5038 92.416L54.2858 88.818L53.0818 92.416H55.5038ZM62.7181 89.294C62.9514 88.93 63.2734 88.636 63.6841 88.412C64.0947 88.188 64.5754 88.076 65.1261 88.076C65.7701 88.076 66.3534 88.2393 66.8761 88.566C67.3987 88.8927 67.8094 89.3593 68.1081 89.966C68.4161 90.5727 68.5701 91.2773 68.5701 92.08C68.5701 92.8827 68.4161 93.592 68.1081 94.208C67.8094 94.8147 67.3987 95.286 66.8761 95.622C66.3534 95.9487 65.7701 96.112 65.1261 96.112C64.5847 96.112 64.1041 96 63.6841 95.776C63.2734 95.552 62.9514 95.2627 62.7181 94.908V99.724H60.3241V88.188H62.7181V89.294ZM66.1341 92.08C66.1341 91.4827 65.9661 91.016 65.6301 90.68C65.3034 90.3347 64.8974 90.162 64.4121 90.162C63.9361 90.162 63.5301 90.3347 63.1941 90.68C62.8674 91.0253 62.7041 91.4967 62.7041 92.094C62.7041 92.6913 62.8674 93.1627 63.1941 93.508C63.5301 93.8533 63.9361 94.026 64.4121 94.026C64.8881 94.026 65.2941 93.8533 65.6301 93.508C65.9661 93.1533 66.1341 92.6773 66.1341 92.08ZM71.03 87.376C70.61 87.376 70.2647 87.2547 69.994 87.012C69.7327 86.76 69.602 86.452 69.602 86.088C69.602 85.7147 69.7327 85.4067 69.994 85.164C70.2647 84.912 70.61 84.786 71.03 84.786C71.4407 84.786 71.7767 84.912 72.038 85.164C72.3087 85.4067 72.444 85.7147 72.444 86.088C72.444 86.452 72.3087 86.76 72.038 87.012C71.7767 87.2547 71.4407 87.376 71.03 87.376ZM72.22 88.188V96H69.826V88.188H72.22Z" fill="white"/>
</svg>
