<svg width="89" height="100" viewBox="0 0 89 100" fill="none" xmlns="http://www.w3.org/2000/svg">
<g clip-path="url(#clip0_105153_5236)">
<path d="M60.363 23.196L44.9923 31.9513C44.7156 32.1141 44.3739 32.1141 44.0891 31.9513L28.7183 23.196C28.1162 22.8542 28.1162 21.9836 28.7183 21.6337L44.0891 12.8783C44.3657 12.7155 44.7075 12.7155 44.9923 12.8783L60.363 21.6337C60.9651 21.9754 60.9651 22.8461 60.363 23.196Z" fill="#9747FF"/>
<path d="M57.7023 26.1415V33.359C57.7023 33.6845 57.5314 33.9775 57.2466 34.1402L44.9923 41.1217C44.7156 41.2845 44.3739 41.2845 44.0891 41.1217L31.8348 34.1402C31.55 33.9775 31.3792 33.6845 31.3792 33.359V26.1415L38.1735 30.0066L44.0891 33.3835C44.3658 33.5462 44.7075 33.5462 44.9923 33.3835L50.9079 30.0066L57.7023 26.1415Z" fill="#9747FF"/>
<path d="M64.8627 14.229L65.2859 13.9361C65.7985 13.5781 65.7334 12.8051 65.1719 12.5365L61.8032 10.9335C61.2336 10.665 60.5908 11.1126 60.6396 11.7391L60.9651 15.4577C61.0221 16.0761 61.73 16.4097 62.2426 16.0517L62.8448 15.6367C68.1989 24.2619 66.7586 35.7513 59.2726 42.7491C51.9087 49.633 40.5576 50.4711 32.2823 44.7427C31.729 44.3602 30.9641 44.4986 30.5817 45.0519C30.1992 45.6052 30.3376 46.3701 30.8909 46.7525C34.9838 49.5842 39.7439 50.9756 44.4959 50.9756C50.444 50.9756 56.3759 48.7949 60.9407 44.5311C69.2974 36.7115 70.9085 23.8469 64.8627 14.229Z" fill="#9747FF"/>
<path d="M58.1905 7.24766C48.9795 0.868273 36.3427 1.80403 28.1407 9.46905C19.5724 17.484 18.0346 30.2916 24.4221 40.0722L23.8281 40.4791C23.3154 40.8371 23.3805 41.6101 23.942 41.8786L27.3107 43.4816C27.8803 43.7501 28.5231 43.3026 28.4743 42.676L28.1488 38.9574C28.0918 38.339 27.3839 38.0054 26.8713 38.3634L26.4319 38.6726C20.7523 29.8929 22.1274 18.4279 29.8088 11.251C37.1727 4.36717 48.5238 3.52093 56.7991 9.25749C57.3524 9.63993 58.1173 9.5016 58.4997 8.94829C58.8822 8.39497 58.7438 7.6301 58.1905 7.24766Z" fill="#9747FF"/>
</g>
<path d="M2.81161 71.072C2.81161 70.1013 3.02161 69.238 3.44161 68.482C3.86161 67.7167 4.44494 67.124 5.19161 66.704C5.94761 66.2747 6.80161 66.06 7.75361 66.06C8.92028 66.06 9.91894 66.368 10.7496 66.984C11.5803 67.6 12.1356 68.44 12.4156 69.504H9.78361C9.58761 69.0933 9.30761 68.7807 8.94361 68.566C8.58894 68.3513 8.18294 68.244 7.72561 68.244C6.98828 68.244 6.39094 68.5007 5.93361 69.014C5.47628 69.5273 5.24761 70.2133 5.24761 71.072C5.24761 71.9307 5.47628 72.6167 5.93361 73.13C6.39094 73.6433 6.98828 73.9 7.72561 73.9C8.18294 73.9 8.58894 73.7927 8.94361 73.578C9.30761 73.3633 9.58761 73.0507 9.78361 72.64H12.4156C12.1356 73.704 11.5803 74.544 10.7496 75.16C9.91894 75.7667 8.92028 76.07 7.75361 76.07C6.80161 76.07 5.94761 75.86 5.19161 75.44C4.44494 75.0107 3.86161 74.418 3.44161 73.662C3.02161 72.906 2.81161 72.0427 2.81161 71.072ZM17.4377 76.112C16.6723 76.112 15.9817 75.9487 15.3657 75.622C14.759 75.2953 14.2783 74.8287 13.9237 74.222C13.5783 73.6153 13.4057 72.906 13.4057 72.094C13.4057 71.2913 13.583 70.5867 13.9377 69.98C14.2923 69.364 14.7777 68.8927 15.3937 68.566C16.0097 68.2393 16.7003 68.076 17.4657 68.076C18.231 68.076 18.9217 68.2393 19.5377 68.566C20.1537 68.8927 20.639 69.364 20.9937 69.98C21.3483 70.5867 21.5257 71.2913 21.5257 72.094C21.5257 72.8967 21.3437 73.606 20.9797 74.222C20.625 74.8287 20.135 75.2953 19.5097 75.622C18.8937 75.9487 18.203 76.112 17.4377 76.112ZM17.4377 74.04C17.895 74.04 18.2823 73.872 18.5997 73.536C18.9263 73.2 19.0897 72.7193 19.0897 72.094C19.0897 71.4687 18.931 70.988 18.6137 70.652C18.3057 70.316 17.923 70.148 17.4657 70.148C16.999 70.148 16.6117 70.316 16.3037 70.652C15.9957 70.9787 15.8417 71.4593 15.8417 72.094C15.8417 72.7193 15.991 73.2 16.2897 73.536C16.5977 73.872 16.9803 74.04 17.4377 74.04ZM27.5557 68.104C28.4704 68.104 29.1984 68.4027 29.7397 69C30.2904 69.588 30.5657 70.4 30.5657 71.436V76H28.1857V71.758C28.1857 71.2353 28.0504 70.8293 27.7797 70.54C27.5091 70.2507 27.1451 70.106 26.6877 70.106C26.2304 70.106 25.8664 70.2507 25.5957 70.54C25.3251 70.8293 25.1897 71.2353 25.1897 71.758V76H22.7957V68.188H25.1897V69.224C25.4324 68.8787 25.7591 68.608 26.1697 68.412C26.5804 68.2067 27.0424 68.104 27.5557 68.104ZM36.5833 73.97V76H35.3653C34.4973 76 33.8207 75.79 33.3353 75.37C32.85 74.9407 32.6073 74.2453 32.6073 73.284V70.176H31.6553V68.188H32.6073V66.284H35.0013V68.188H36.5693V70.176H35.0013V73.312C35.0013 73.5453 35.0573 73.7133 35.1693 73.816C35.2813 73.9187 35.468 73.97 35.7293 73.97H36.5833ZM39.1208 67.376C38.7008 67.376 38.3555 67.2547 38.0848 67.012C37.8235 66.76 37.6928 66.452 37.6928 66.088C37.6928 65.7147 37.8235 65.4067 38.0848 65.164C38.3555 64.912 38.7008 64.786 39.1208 64.786C39.5315 64.786 39.8675 64.912 40.1288 65.164C40.3995 65.4067 40.5348 65.7147 40.5348 66.088C40.5348 66.452 40.3995 66.76 40.1288 67.012C39.8675 67.2547 39.5315 67.376 39.1208 67.376ZM40.3108 68.188V76H37.9168V68.188H40.3108ZM46.8057 68.104C47.7204 68.104 48.4484 68.4027 48.9897 69C49.5404 69.588 49.8157 70.4 49.8157 71.436V76H47.4357V71.758C47.4357 71.2353 47.3004 70.8293 47.0297 70.54C46.7591 70.2507 46.3951 70.106 45.9377 70.106C45.4804 70.106 45.1164 70.2507 44.8457 70.54C44.5751 70.8293 44.4397 71.2353 44.4397 71.758V76H42.0457V68.188H44.4397V69.224C44.6824 68.8787 45.0091 68.608 45.4197 68.412C45.8304 68.2067 46.2924 68.104 46.8057 68.104ZM59.1933 68.188V76H56.7993V74.936C56.5567 75.2813 56.2253 75.5613 55.8053 75.776C55.3947 75.9813 54.9373 76.084 54.4333 76.084C53.836 76.084 53.3087 75.9533 52.8513 75.692C52.394 75.4213 52.0393 75.034 51.7873 74.53C51.5353 74.026 51.4093 73.4333 51.4093 72.752V68.188H53.7893V72.43C53.7893 72.9527 53.9247 73.3587 54.1953 73.648C54.466 73.9373 54.83 74.082 55.2873 74.082C55.754 74.082 56.1227 73.9373 56.3933 73.648C56.664 73.3587 56.7993 72.9527 56.7993 72.43V68.188H59.1933ZM60.4369 72.08C60.4369 71.2773 60.5863 70.5727 60.8849 69.966C61.1929 69.3593 61.6083 68.8927 62.1309 68.566C62.6536 68.2393 63.2369 68.076 63.8809 68.076C64.4316 68.076 64.9123 68.188 65.3229 68.412C65.7429 68.636 66.0649 68.93 66.2889 69.294V68.188H68.6829V76H66.2889V74.894C66.0556 75.258 65.7289 75.552 65.3089 75.776C64.8983 76 64.4176 76.112 63.8669 76.112C63.2323 76.112 62.6536 75.9487 62.1309 75.622C61.6083 75.286 61.1929 74.8147 60.8849 74.208C60.5863 73.592 60.4369 72.8827 60.4369 72.08ZM66.2889 72.094C66.2889 71.4967 66.1209 71.0253 65.7849 70.68C65.4583 70.3347 65.0569 70.162 64.5809 70.162C64.1049 70.162 63.6989 70.3347 63.3629 70.68C63.0363 71.016 62.8729 71.4827 62.8729 72.08C62.8729 72.6773 63.0363 73.1533 63.3629 73.508C63.6989 73.8533 64.1049 74.026 64.5809 74.026C65.0569 74.026 65.4583 73.8533 65.7849 73.508C66.1209 73.1627 66.2889 72.6913 66.2889 72.094ZM72.8089 65.64V76H70.4149V65.64H72.8089ZM76.9378 65.64V76H74.5438V65.64H76.9378ZM86.6527 68.188L81.7527 79.71H79.1767L80.9687 75.734L77.7907 68.188H80.4647L82.2707 73.074L84.0627 68.188H86.6527ZM17.3899 82.64V93H14.9959V82.64H17.3899ZM26.4888 88.968C26.4888 89.192 26.4748 89.4253 26.4468 89.668H21.0288C21.0662 90.1533 21.2202 90.5267 21.4908 90.788C21.7708 91.04 22.1115 91.166 22.5128 91.166C23.1102 91.166 23.5255 90.914 23.7588 90.41H26.3068C26.1762 90.9233 25.9382 91.3853 25.5928 91.796C25.2568 92.2067 24.8322 92.5287 24.3188 92.762C23.8055 92.9953 23.2315 93.112 22.5968 93.112C21.8315 93.112 21.1502 92.9487 20.5528 92.622C19.9555 92.2953 19.4888 91.8287 19.1528 91.222C18.8168 90.6153 18.6488 89.906 18.6488 89.094C18.6488 88.282 18.8122 87.5727 19.1388 86.966C19.4748 86.3593 19.9415 85.8927 20.5388 85.566C21.1362 85.2393 21.8222 85.076 22.5968 85.076C23.3528 85.076 24.0248 85.2347 24.6128 85.552C25.2008 85.8693 25.6582 86.322 25.9848 86.91C26.3208 87.498 26.4888 88.184 26.4888 88.968ZM24.0388 88.338C24.0388 87.9273 23.8988 87.6007 23.6188 87.358C23.3388 87.1153 22.9888 86.994 22.5688 86.994C22.1675 86.994 21.8268 87.1107 21.5468 87.344C21.2762 87.5773 21.1082 87.9087 21.0428 88.338H24.0388ZM27.2758 89.08C27.2758 88.2773 27.4251 87.5727 27.7238 86.966C28.0318 86.3593 28.4471 85.8927 28.9698 85.566C29.4925 85.2393 30.0758 85.076 30.7198 85.076C31.2705 85.076 31.7511 85.188 32.1618 85.412C32.5818 85.636 32.9038 85.93 33.1278 86.294V85.188H35.5218V93H33.1278V91.894C32.8945 92.258 32.5678 92.552 32.1478 92.776C31.7371 93 31.2565 93.112 30.7058 93.112C30.0711 93.112 29.4925 92.9487 28.9698 92.622C28.4471 92.286 28.0318 91.8147 27.7238 91.208C27.4251 90.592 27.2758 89.8827 27.2758 89.08ZM33.1278 89.094C33.1278 88.4967 32.9598 88.0253 32.6238 87.68C32.2971 87.3347 31.8958 87.162 31.4198 87.162C30.9438 87.162 30.5378 87.3347 30.2018 87.68C29.8751 88.016 29.7118 88.4827 29.7118 89.08C29.7118 89.6773 29.8751 90.1533 30.2018 90.508C30.5378 90.8533 30.9438 91.026 31.4198 91.026C31.8958 91.026 32.2971 90.8533 32.6238 90.508C32.9598 90.1627 33.1278 89.6913 33.1278 89.094ZM39.6477 86.49C39.9277 86.0607 40.2777 85.7247 40.6977 85.482C41.1177 85.23 41.5844 85.104 42.0977 85.104V87.638H41.4397C40.8424 87.638 40.3944 87.7687 40.0957 88.03C39.7971 88.282 39.6477 88.73 39.6477 89.374V93H37.2537V85.188H39.6477V86.49ZM48.002 85.104C48.9167 85.104 49.6447 85.4027 50.186 86C50.7367 86.588 51.012 87.4 51.012 88.436V93H48.632V88.758C48.632 88.2353 48.4967 87.8293 48.226 87.54C47.9554 87.2507 47.5914 87.106 47.134 87.106C46.6767 87.106 46.3127 87.2507 46.042 87.54C45.7714 87.8293 45.636 88.2353 45.636 88.758V93H43.242V85.188H45.636V86.224C45.8787 85.8787 46.2054 85.608 46.616 85.412C47.0267 85.2067 47.4887 85.104 48.002 85.104ZM53.8796 84.376C53.4596 84.376 53.1143 84.2547 52.8436 84.012C52.5823 83.76 52.4516 83.452 52.4516 83.088C52.4516 82.7147 52.5823 82.4067 52.8436 82.164C53.1143 81.912 53.4596 81.786 53.8796 81.786C54.2903 81.786 54.6263 81.912 54.8876 82.164C55.1583 82.4067 55.2936 82.7147 55.2936 83.088C55.2936 83.452 55.1583 83.76 54.8876 84.012C54.6263 84.2547 54.2903 84.376 53.8796 84.376ZM55.0696 85.188V93H52.6756V85.188H55.0696ZM61.5645 85.104C62.4792 85.104 63.2072 85.4027 63.7485 86C64.2992 86.588 64.5745 87.4 64.5745 88.436V93H62.1945V88.758C62.1945 88.2353 62.0592 87.8293 61.7885 87.54C61.5179 87.2507 61.1539 87.106 60.6965 87.106C60.2392 87.106 59.8752 87.2507 59.6045 87.54C59.3339 87.8293 59.1985 88.2353 59.1985 88.758V93H56.8045V85.188H59.1985V86.224C59.4412 85.8787 59.7679 85.608 60.1785 85.412C60.5892 85.2067 61.0512 85.104 61.5645 85.104ZM69.2061 85.076C69.7568 85.076 70.2375 85.188 70.6481 85.412C71.0681 85.636 71.3901 85.93 71.6141 86.294V85.188H74.0081V92.986C74.0081 93.7047 73.8635 94.3533 73.5741 94.932C73.2941 95.52 72.8601 95.9867 72.2721 96.332C71.6935 96.6773 70.9701 96.85 70.1021 96.85C68.9448 96.85 68.0068 96.5747 67.2881 96.024C66.5695 95.4827 66.1588 94.7453 66.0561 93.812H68.4221C68.4968 94.1107 68.6741 94.344 68.9541 94.512C69.2341 94.6893 69.5795 94.778 69.9901 94.778C70.4848 94.778 70.8768 94.6333 71.1661 94.344C71.4648 94.064 71.6141 93.6113 71.6141 92.986V91.88C71.3808 92.244 71.0588 92.5427 70.6481 92.776C70.2375 93 69.7568 93.112 69.2061 93.112C68.5621 93.112 67.9788 92.9487 67.4561 92.622C66.9335 92.286 66.5181 91.8147 66.2101 91.208C65.9115 90.592 65.7621 89.8827 65.7621 89.08C65.7621 88.2773 65.9115 87.5727 66.2101 86.966C66.5181 86.3593 66.9335 85.8927 67.4561 85.566C67.9788 85.2393 68.5621 85.076 69.2061 85.076ZM71.6141 89.094C71.6141 88.4967 71.4461 88.0253 71.1101 87.68C70.7835 87.3347 70.3821 87.162 69.9061 87.162C69.4301 87.162 69.0241 87.3347 68.6881 87.68C68.3615 88.016 68.1981 88.4827 68.1981 89.08C68.1981 89.6773 68.3615 90.1533 68.6881 90.508C69.0241 90.8533 69.4301 91.026 69.9061 91.026C70.3821 91.026 70.7835 90.8533 71.1101 90.508C71.4461 90.1627 71.6141 89.6913 71.6141 89.094Z" fill="white"/>
<defs>
<clipPath id="clip0_105153_5236">
<rect width="48" height="47.9512" fill="white" transform="translate(20.5 3.02441)"/>
</clipPath>
</defs>
</svg>
