<svg width="97" height="121" viewBox="0 0 97 121" fill="none" xmlns="http://www.w3.org/2000/svg">
<g clip-path="url(#clip0_105102_3392)">
<path d="M67.8288 37.245L48.6154 48.1892C48.2695 48.3926 47.8423 48.3926 47.4863 48.1892L28.2729 37.245C27.5203 36.8178 27.5203 35.7294 28.2729 35.2921L47.4863 24.3479C47.8322 24.1444 48.2594 24.1444 48.6154 24.3479L67.8288 35.2921C68.5814 35.7193 68.5814 36.8076 67.8288 37.245Z" fill="#9747FF"/>
<path d="M64.5028 40.9269V49.9488C64.5028 50.3557 64.2892 50.7218 63.9332 50.9252L48.6154 59.6521C48.2695 59.8556 47.8423 59.8556 47.4863 59.6521L32.1685 50.9252C31.8125 50.7218 31.5989 50.3557 31.5989 49.9488V40.9269L40.0919 45.7583L47.4863 49.9793C47.8322 50.1827 48.2594 50.1827 48.6154 49.9793L56.0098 45.7583L64.5028 40.9269Z" fill="#9747FF"/>
<path d="M73.4535 26.0363L73.9824 25.6701C74.6232 25.2226 74.5418 24.2563 73.84 23.9207L69.6291 21.9169C68.9171 21.5813 68.1136 22.1407 68.1746 22.9239L68.5815 27.5721C68.6526 28.3451 69.5375 28.7622 70.1783 28.3146L70.931 27.7959C77.6237 38.5774 75.8234 52.9391 66.4658 61.6864C57.2609 70.2912 43.072 71.3389 32.7279 64.1783C32.0363 63.7003 31.0802 63.8732 30.6021 64.5648C30.1241 65.2565 30.297 66.2126 30.9886 66.6906C36.1048 70.2302 42.0549 71.9695 47.9949 71.9695C55.4301 71.9695 62.8449 69.2436 68.5509 63.9139C78.9968 54.1393 81.0107 38.0587 73.4535 26.0363Z" fill="#9747FF"/>
<path d="M65.1131 17.3094C53.5992 9.33513 37.8033 10.5048 27.5508 20.0861C16.8405 30.1047 14.9181 46.1142 22.9025 58.34L22.16 58.8486C21.5192 59.2961 21.6006 60.2624 22.3024 60.5981L26.5133 62.6018C27.2253 62.9374 28.0288 62.378 27.9678 61.5948L27.5609 56.9466C27.4897 56.1736 26.6048 55.7566 25.9641 56.2041L25.4148 56.5906C18.3153 45.6159 20.0342 31.2846 29.6359 22.3136C38.8408 13.7087 53.0297 12.6509 63.3738 19.8216C64.0654 20.2997 65.0215 20.1268 65.4996 19.4351C65.9776 18.7435 65.8047 17.7874 65.1131 17.3094Z" fill="#9747FF"/>
</g>
<path d="M0.356125 91.368C0.356125 90.2587 0.596125 89.272 1.07613 88.408C1.55613 87.5333 2.22279 86.856 3.07613 86.376C3.94013 85.8853 4.91613 85.64 6.00413 85.64C7.33746 85.64 8.47879 85.992 9.42813 86.696C10.3775 87.4 11.0121 88.36 11.3321 89.576H8.32413C8.10013 89.1067 7.78013 88.7493 7.36413 88.504C6.95879 88.2587 6.49479 88.136 5.97213 88.136C5.12946 88.136 4.44679 88.4293 3.92413 89.016C3.40146 89.6027 3.14013 90.3867 3.14013 91.368C3.14013 92.3493 3.40146 93.1333 3.92413 93.72C4.44679 94.3067 5.12946 94.6 5.97213 94.6C6.49479 94.6 6.95879 94.4773 7.36413 94.232C7.78013 93.9867 8.10013 93.6293 8.32413 93.16H11.3321C11.0121 94.376 10.3775 95.336 9.42813 96.04C8.47879 96.7333 7.33746 97.08 6.00413 97.08C4.91613 97.08 3.94013 96.84 3.07613 96.36C2.22279 95.8693 1.55613 95.192 1.07613 94.328C0.596125 93.464 0.356125 92.4773 0.356125 91.368ZM17.0716 97.128C16.197 97.128 15.4076 96.9413 14.7036 96.568C14.0103 96.1947 13.461 95.6613 13.0556 94.968C12.661 94.2747 12.4636 93.464 12.4636 92.536C12.4636 91.6187 12.6663 90.8133 13.0716 90.12C13.477 89.416 14.0316 88.8773 14.7356 88.504C15.4396 88.1307 16.229 87.944 17.1036 87.944C17.9783 87.944 18.7676 88.1307 19.4716 88.504C20.1756 88.8773 20.7303 89.416 21.1356 90.12C21.541 90.8133 21.7436 91.6187 21.7436 92.536C21.7436 93.4533 21.5356 94.264 21.1196 94.968C20.7143 95.6613 20.1543 96.1947 19.4396 96.568C18.7356 96.9413 17.9463 97.128 17.0716 97.128ZM17.0716 94.76C17.5943 94.76 18.037 94.568 18.3996 94.184C18.773 93.8 18.9596 93.2507 18.9596 92.536C18.9596 91.8213 18.7783 91.272 18.4156 90.888C18.0636 90.504 17.6263 90.312 17.1036 90.312C16.5703 90.312 16.1276 90.504 15.7756 90.888C15.4236 91.2613 15.2476 91.8107 15.2476 92.536C15.2476 93.2507 15.4183 93.8 15.7596 94.184C16.1116 94.568 16.549 94.76 17.0716 94.76ZM28.6351 87.976C29.6805 87.976 30.5125 88.3173 31.1311 89C31.7605 89.672 32.0751 90.6 32.0751 91.784V97H29.3551V92.152C29.3551 91.5547 29.2005 91.0907 28.8911 90.76C28.5818 90.4293 28.1658 90.264 27.6431 90.264C27.1205 90.264 26.7045 90.4293 26.3951 90.76C26.0858 91.0907 25.9311 91.5547 25.9311 92.152V97H23.1951V88.072H25.9311V89.256C26.2085 88.8613 26.5818 88.552 27.0511 88.328C27.5205 88.0933 28.0485 87.976 28.6351 87.976ZM38.9524 94.68V97H37.5604C36.5684 97 35.795 96.76 35.2404 96.28C34.6857 95.7893 34.4084 94.9947 34.4084 93.896V90.344H33.3204V88.072H34.4084V85.896H37.1444V88.072H38.9364V90.344H37.1444V93.928C37.1444 94.1947 37.2084 94.3867 37.3364 94.504C37.4644 94.6213 37.6777 94.68 37.9764 94.68H38.9524ZM41.8524 87.144C41.3724 87.144 40.9777 87.0053 40.6684 86.728C40.3697 86.44 40.2204 86.088 40.2204 85.672C40.2204 85.2453 40.3697 84.8933 40.6684 84.616C40.9777 84.328 41.3724 84.184 41.8524 84.184C42.3217 84.184 42.7057 84.328 43.0044 84.616C43.3137 84.8933 43.4684 85.2453 43.4684 85.672C43.4684 86.088 43.3137 86.44 43.0044 86.728C42.7057 87.0053 42.3217 87.144 41.8524 87.144ZM43.2124 88.072V97H40.4764V88.072H43.2124ZM50.6351 87.976C51.6805 87.976 52.5125 88.3173 53.1311 89C53.7605 89.672 54.0751 90.6 54.0751 91.784V97H51.3551V92.152C51.3551 91.5547 51.2005 91.0907 50.8911 90.76C50.5818 90.4293 50.1658 90.264 49.6431 90.264C49.1205 90.264 48.7045 90.4293 48.3951 90.76C48.0858 91.0907 47.9311 91.5547 47.9311 92.152V97H45.1951V88.072H47.9311V89.256C48.2085 88.8613 48.5818 88.552 49.0511 88.328C49.5205 88.0933 50.0485 87.976 50.6351 87.976ZM64.7924 88.072V97H62.0564V95.784C61.779 96.1787 61.4004 96.4987 60.9204 96.744C60.451 96.9787 59.9284 97.096 59.3524 97.096C58.6697 97.096 58.067 96.9467 57.5444 96.648C57.0217 96.3387 56.6164 95.896 56.3284 95.32C56.0404 94.744 55.8964 94.0667 55.8964 93.288V88.072H58.6164V92.92C58.6164 93.5173 58.771 93.9813 59.0804 94.312C59.3897 94.6427 59.8057 94.808 60.3284 94.808C60.8617 94.808 61.283 94.6427 61.5924 94.312C61.9017 93.9813 62.0564 93.5173 62.0564 92.92V88.072H64.7924ZM66.2136 92.52C66.2136 91.6027 66.3843 90.7973 66.7256 90.104C67.0776 89.4107 67.5523 88.8773 68.1496 88.504C68.747 88.1307 69.4136 87.944 70.1496 87.944C70.779 87.944 71.3283 88.072 71.7976 88.328C72.2776 88.584 72.6456 88.92 72.9016 89.336V88.072H75.6376V97H72.9016V95.736C72.635 96.152 72.2616 96.488 71.7816 96.744C71.3123 97 70.763 97.128 70.1336 97.128C69.4083 97.128 68.747 96.9413 68.1496 96.568C67.5523 96.184 67.0776 95.6453 66.7256 94.952C66.3843 94.248 66.2136 93.4373 66.2136 92.52ZM72.9016 92.536C72.9016 91.8533 72.7096 91.3147 72.3256 90.92C71.9523 90.5253 71.4936 90.328 70.9496 90.328C70.4056 90.328 69.9416 90.5253 69.5576 90.92C69.1843 91.304 68.9976 91.8373 68.9976 92.52C68.9976 93.2027 69.1843 93.7467 69.5576 94.152C69.9416 94.5467 70.4056 94.744 70.9496 94.744C71.4936 94.744 71.9523 94.5467 72.3256 94.152C72.7096 93.7573 72.9016 93.2187 72.9016 92.536ZM80.353 85.16V97H77.617V85.16H80.353ZM85.0718 85.16V97H82.3358V85.16H85.0718ZM96.1745 88.072L90.5745 101.24H87.6305L89.6785 96.696L86.0465 88.072H89.1025L91.1665 93.656L93.2145 88.072H96.1745ZM17.0171 104.16V116H14.2811V104.16H17.0171ZM27.4158 111.392C27.4158 111.648 27.3998 111.915 27.3678 112.192H21.1758C21.2185 112.747 21.3945 113.173 21.7038 113.472C22.0238 113.76 22.4131 113.904 22.8718 113.904C23.5545 113.904 24.0291 113.616 24.2958 113.04H27.2078C27.0585 113.627 26.7865 114.155 26.3918 114.624C26.0078 115.093 25.5225 115.461 24.9358 115.728C24.3491 115.995 23.6931 116.128 22.9678 116.128C22.0931 116.128 21.3145 115.941 20.6318 115.568C19.9491 115.195 19.4158 114.661 19.0318 113.968C18.6478 113.275 18.4558 112.464 18.4558 111.536C18.4558 110.608 18.6425 109.797 19.0158 109.104C19.3998 108.411 19.9331 107.877 20.6158 107.504C21.2985 107.131 22.0825 106.944 22.9678 106.944C23.8318 106.944 24.5998 107.125 25.2718 107.488C25.9438 107.851 26.4665 108.368 26.8398 109.04C27.2238 109.712 27.4158 110.496 27.4158 111.392ZM24.6158 110.672C24.6158 110.203 24.4558 109.829 24.1358 109.552C23.8158 109.275 23.4158 109.136 22.9358 109.136C22.4771 109.136 22.0878 109.269 21.7678 109.536C21.4585 109.803 21.2665 110.181 21.1918 110.672H24.6158ZM28.3152 111.52C28.3152 110.603 28.4859 109.797 28.8272 109.104C29.1792 108.411 29.6539 107.877 30.2512 107.504C30.8485 107.131 31.5152 106.944 32.2512 106.944C32.8805 106.944 33.4299 107.072 33.8992 107.328C34.3792 107.584 34.7472 107.92 35.0032 108.336V107.072H37.7392V116H35.0032V114.736C34.7365 115.152 34.3632 115.488 33.8832 115.744C33.4139 116 32.8645 116.128 32.2352 116.128C31.5099 116.128 30.8485 115.941 30.2512 115.568C29.6539 115.184 29.1792 114.645 28.8272 113.952C28.4859 113.248 28.3152 112.437 28.3152 111.52ZM35.0032 111.536C35.0032 110.853 34.8112 110.315 34.4272 109.92C34.0539 109.525 33.5952 109.328 33.0512 109.328C32.5072 109.328 32.0432 109.525 31.6592 109.92C31.2859 110.304 31.0992 110.837 31.0992 111.52C31.0992 112.203 31.2859 112.747 31.6592 113.152C32.0432 113.547 32.5072 113.744 33.0512 113.744C33.5952 113.744 34.0539 113.547 34.4272 113.152C34.8112 112.757 35.0032 112.219 35.0032 111.536ZM42.4546 108.56C42.7746 108.069 43.1746 107.685 43.6546 107.408C44.1346 107.12 44.6679 106.976 45.2546 106.976V109.872H44.5026C43.8199 109.872 43.3079 110.021 42.9666 110.32C42.6252 110.608 42.4546 111.12 42.4546 111.856V116H39.7186V107.072H42.4546V108.56ZM52.0023 106.976C53.0476 106.976 53.8796 107.317 54.4983 108C55.1276 108.672 55.4423 109.6 55.4423 110.784V116H52.7223V111.152C52.7223 110.555 52.5676 110.091 52.2583 109.76C51.949 109.429 51.533 109.264 51.0103 109.264C50.4876 109.264 50.0716 109.429 49.7623 109.76C49.453 110.091 49.2983 110.555 49.2983 111.152V116H46.5623V107.072H49.2983V108.256C49.5756 107.861 49.949 107.552 50.4183 107.328C50.8876 107.093 51.4156 106.976 52.0023 106.976ZM58.7196 106.144C58.2396 106.144 57.8449 106.005 57.5356 105.728C57.2369 105.44 57.0876 105.088 57.0876 104.672C57.0876 104.245 57.2369 103.893 57.5356 103.616C57.8449 103.328 58.2396 103.184 58.7196 103.184C59.1889 103.184 59.5729 103.328 59.8716 103.616C60.1809 103.893 60.3356 104.245 60.3356 104.672C60.3356 105.088 60.1809 105.44 59.8716 105.728C59.5729 106.005 59.1889 106.144 58.7196 106.144ZM60.0796 107.072V116H57.3436V107.072H60.0796ZM67.5023 106.976C68.5476 106.976 69.3796 107.317 69.9983 108C70.6276 108.672 70.9423 109.6 70.9423 110.784V116H68.2223V111.152C68.2223 110.555 68.0676 110.091 67.7583 109.76C67.449 109.429 67.033 109.264 66.5103 109.264C65.9876 109.264 65.5716 109.429 65.2623 109.76C64.953 110.091 64.7983 110.555 64.7983 111.152V116H62.0623V107.072H64.7983V108.256C65.0756 107.861 65.449 107.552 65.9183 107.328C66.3876 107.093 66.9156 106.976 67.5023 106.976ZM76.2356 106.944C76.8649 106.944 77.4142 107.072 77.8836 107.328C78.3636 107.584 78.7316 107.92 78.9876 108.336V107.072H81.7236V115.984C81.7236 116.805 81.5582 117.547 81.2276 118.208C80.9076 118.88 80.4116 119.413 79.7396 119.808C79.0782 120.203 78.2516 120.4 77.2596 120.4C75.9369 120.4 74.8649 120.085 74.0436 119.456C73.2222 118.837 72.7529 117.995 72.6356 116.928H75.3396C75.4249 117.269 75.6276 117.536 75.9476 117.728C76.2676 117.931 76.6622 118.032 77.1316 118.032C77.6969 118.032 78.1449 117.867 78.4756 117.536C78.8169 117.216 78.9876 116.699 78.9876 115.984V114.72C78.7209 115.136 78.3529 115.477 77.8836 115.744C77.4142 116 76.8649 116.128 76.2356 116.128C75.4996 116.128 74.8329 115.941 74.2356 115.568C73.6382 115.184 73.1636 114.645 72.8116 113.952C72.4702 113.248 72.2996 112.437 72.2996 111.52C72.2996 110.603 72.4702 109.797 72.8116 109.104C73.1636 108.411 73.6382 107.877 74.2356 107.504C74.8329 107.131 75.4996 106.944 76.2356 106.944ZM78.9876 111.536C78.9876 110.853 78.7956 110.315 78.4116 109.92C78.0382 109.525 77.5796 109.328 77.0356 109.328C76.4916 109.328 76.0276 109.525 75.6436 109.92C75.2702 110.304 75.0836 110.837 75.0836 111.52C75.0836 112.203 75.2702 112.747 75.6436 113.152C76.0276 113.547 76.4916 113.744 77.0356 113.744C77.5796 113.744 78.0382 113.547 78.4116 113.152C78.7956 112.757 78.9876 112.219 78.9876 111.536Z" fill="#9747FF"/>
<defs>
<clipPath id="clip0_105102_3392">
<rect width="60" height="59.939" fill="white" transform="translate(18 12.0305)"/>
</clipPath>
</defs>
</svg>
