<svg width="88" height="100" viewBox="0 0 88 100" fill="none" xmlns="http://www.w3.org/2000/svg">
<path d="M22.8093 23.0085C22.8093 23.1945 22.8008 23.3214 22.8093 23.4483C23.131 26.9668 23.4527 30.4854 23.7659 34.0124C24.2061 39.0026 24.6378 43.9929 25.078 48.9747C25.5774 54.5739 26.0853 60.1647 26.5679 65.7639C26.6017 66.1699 26.7456 66.3475 27.1266 66.449C32.5443 67.9377 37.9451 69.4347 43.3628 70.9149C43.7268 71.0164 44.167 71.0333 44.531 70.9318C49.9657 69.4432 55.3919 67.9292 60.8265 66.4321C61.2413 66.3137 61.3852 66.1276 61.4191 65.7047C61.5884 63.5902 61.7915 61.4672 61.9778 59.3527C62.291 55.8511 62.5957 52.3495 62.909 48.8478C63.273 44.7372 63.6454 40.635 64.0094 36.5244C64.2803 33.4626 64.5681 30.4093 64.839 27.3474C64.966 25.9096 65.076 24.4717 65.1946 23H22.8093V23.0085ZM57.0172 35.2219C56.7378 38.3175 56.4585 41.4216 56.1791 44.5173C55.8574 48.0781 55.5358 51.639 55.2141 55.1914C55.121 56.2148 54.9855 57.2382 54.9601 58.2701C54.9432 58.8199 54.7062 58.9637 54.2491 59.0905C50.9815 59.9702 47.7224 60.8752 44.4633 61.7717C44.3194 61.814 44.1839 61.8648 44.04 61.9071C43.9892 61.8817 43.9384 61.8648 43.8792 61.8394C40.3915 60.8921 36.9039 59.9363 33.4162 58.9721C33.2723 58.9298 33.0861 58.7015 33.0691 58.5408C32.8236 55.9018 32.6035 53.2629 32.3665 50.5733H37.6911C37.7842 51.6305 37.8858 52.7047 37.9705 53.7873C38.0467 54.7854 38.0382 54.7854 38.9778 55.0391C40.6624 55.4874 42.3554 55.9272 44.04 56.367L44.0231 56.3247C45.8685 55.8342 47.7139 55.3521 49.5593 54.8277C49.7286 54.7769 49.9233 54.5063 49.9487 54.3202C50.0588 53.5082 50.118 52.6878 50.1858 51.8758C50.2958 50.5648 50.4059 49.2538 50.5244 47.8836H44.0231L44.04 47.8498C43.9977 47.8498 43.9469 47.8498 43.9046 47.8498H32.121C31.9602 46.099 31.8078 44.3651 31.647 42.5804H43.913C43.9554 42.5804 44.0062 42.5804 44.0485 42.5804L44.0316 42.5466H50.9984C51.1593 40.7281 51.3201 38.9519 51.4809 37.1419H44.0231L44.04 37.108C43.9977 37.108 43.9469 37.108 43.9046 37.108C39.7312 37.1165 35.5579 37.1165 31.3846 37.125C31.3253 37.125 31.266 37.0996 31.156 37.0657C31.0036 35.3403 30.8428 33.6149 30.6904 31.8387H43.9046C43.9469 31.8387 43.9977 31.8387 44.04 31.8387L44.0231 31.8048H57.2965C57.2034 32.989 57.1103 34.1054 57.0172 35.2219Z" fill="white"/>
<path d="M30.5167 91.072C30.5167 90.1013 30.7267 89.238 31.1467 88.482C31.5667 87.7167 32.15 87.124 32.8967 86.704C33.6527 86.2747 34.5067 86.06 35.4587 86.06C36.6254 86.06 37.624 86.368 38.4547 86.984C39.2854 87.6 39.8407 88.44 40.1207 89.504H37.4887C37.2927 89.0933 37.0127 88.7807 36.6487 88.566C36.294 88.3513 35.888 88.244 35.4307 88.244C34.6934 88.244 34.096 88.5007 33.6387 89.014C33.1814 89.5273 32.9527 90.2133 32.9527 91.072C32.9527 91.9307 33.1814 92.6167 33.6387 93.13C34.096 93.6433 34.6934 93.9 35.4307 93.9C35.888 93.9 36.294 93.7927 36.6487 93.578C37.0127 93.3633 37.2927 93.0507 37.4887 92.64H40.1207C39.8407 93.704 39.2854 94.544 38.4547 95.16C37.624 95.7667 36.6254 96.07 35.4587 96.07C34.5067 96.07 33.6527 95.86 32.8967 95.44C32.15 95.0107 31.5667 94.418 31.1467 93.662C30.7267 92.906 30.5167 92.0427 30.5167 91.072ZM45.1428 96.098C44.4241 96.098 43.7801 95.9813 43.2108 95.748C42.6414 95.5147 42.1841 95.1693 41.8388 94.712C41.5028 94.2547 41.3254 93.704 41.3068 93.06H43.8548C43.8921 93.424 44.0181 93.704 44.2328 93.9C44.4474 94.0867 44.7274 94.18 45.0728 94.18C45.4274 94.18 45.7074 94.1007 45.9128 93.942C46.1181 93.774 46.2208 93.5453 46.2208 93.256C46.2208 93.0133 46.1368 92.8127 45.9688 92.654C45.8101 92.4953 45.6094 92.3647 45.3668 92.262C45.1334 92.1593 44.7974 92.0427 44.3588 91.912C43.7241 91.716 43.2061 91.52 42.8048 91.324C42.4034 91.128 42.0581 90.8387 41.7688 90.456C41.4794 90.0733 41.3348 89.574 41.3348 88.958C41.3348 88.0433 41.6661 87.3293 42.3288 86.816C42.9914 86.2933 43.8548 86.032 44.9188 86.032C46.0014 86.032 46.8741 86.2933 47.5368 86.816C48.1994 87.3293 48.5541 88.048 48.6008 88.972H46.0108C45.9921 88.6547 45.8754 88.4073 45.6608 88.23C45.4461 88.0433 45.1708 87.95 44.8347 87.95C44.5454 87.95 44.3121 88.0293 44.1348 88.188C43.9574 88.3373 43.8688 88.5567 43.8688 88.846C43.8688 89.1633 44.0181 89.4107 44.3167 89.588C44.6154 89.7653 45.0821 89.9567 45.7168 90.162C46.3514 90.3767 46.8648 90.582 47.2568 90.778C47.6581 90.974 48.0034 91.2587 48.2928 91.632C48.5821 92.0053 48.7268 92.486 48.7268 93.074C48.7268 93.634 48.5821 94.1427 48.2928 94.6C48.0128 95.0573 47.6021 95.4213 47.0608 95.692C46.5194 95.9627 45.8801 96.098 45.1428 96.098ZM53.756 96.098C53.0374 96.098 52.3934 95.9813 51.824 95.748C51.2547 95.5147 50.7974 95.1693 50.452 94.712C50.116 94.2547 49.9387 93.704 49.92 93.06H52.468C52.5054 93.424 52.6314 93.704 52.846 93.9C53.0607 94.0867 53.3407 94.18 53.686 94.18C54.0407 94.18 54.3207 94.1007 54.526 93.942C54.7314 93.774 54.834 93.5453 54.834 93.256C54.834 93.0133 54.75 92.8127 54.582 92.654C54.4234 92.4953 54.2227 92.3647 53.98 92.262C53.7467 92.1593 53.4107 92.0427 52.972 91.912C52.3374 91.716 51.8194 91.52 51.418 91.324C51.0167 91.128 50.6714 90.8387 50.382 90.456C50.0927 90.0733 49.948 89.574 49.948 88.958C49.948 88.0433 50.2794 87.3293 50.942 86.816C51.6047 86.2933 52.468 86.032 53.532 86.032C54.6147 86.032 55.4874 86.2933 56.15 86.816C56.8127 87.3293 57.1674 88.048 57.214 88.972H54.624C54.6054 88.6547 54.4887 88.4073 54.274 88.23C54.0594 88.0433 53.784 87.95 53.448 87.95C53.1587 87.95 52.9254 88.0293 52.748 88.188C52.5707 88.3373 52.482 88.5567 52.482 88.846C52.482 89.1633 52.6314 89.4107 52.93 89.588C53.2287 89.7653 53.6954 89.9567 54.33 90.162C54.9647 90.3767 55.478 90.582 55.87 90.778C56.2714 90.974 56.6167 91.2587 56.906 91.632C57.1954 92.0053 57.34 92.486 57.34 93.074C57.34 93.634 57.1954 94.1427 56.906 94.6C56.626 95.0573 56.2154 95.4213 55.674 95.692C55.1327 95.9627 54.4934 96.098 53.756 96.098Z" fill="white"/>
</svg>
