<svg width="88" height="100" viewBox="0 0 88 100" fill="none" xmlns="http://www.w3.org/2000/svg">
<path d="M27.7193 54.3375L32.4644 23.9306C32.628 22.8943 34.0188 22.6489 34.5097 23.5761L39.6093 33.1209L27.7193 54.3375ZM61.4533 61.7279L56.9263 33.7208C56.7899 32.8481 55.6991 32.4936 55.0719 33.1209L26.5466 61.7279L42.3364 70.5909C43.3182 71.1364 44.5454 71.1364 45.5271 70.5909L61.4533 61.7279ZM48.636 37.2933L44.9817 30.3392C44.5726 29.5484 43.4545 29.5484 43.0455 30.3392L26.983 58.9736L48.636 37.2933Z" fill="white"/>
<path d="M20.3471 86.172V88.09H16.3431V90.162H19.3391V92.024H16.3431V96H13.9491V86.172H20.3471ZM22.8093 87.376C22.3893 87.376 22.044 87.2547 21.7733 87.012C21.512 86.76 21.3813 86.452 21.3813 86.088C21.3813 85.7147 21.512 85.4067 21.7733 85.164C22.044 84.912 22.3893 84.786 22.8093 84.786C23.22 84.786 23.556 84.912 23.8173 85.164C24.088 85.4067 24.2233 85.7147 24.2233 86.088C24.2233 86.452 24.088 86.76 23.8173 87.012C23.556 87.2547 23.22 87.376 22.8093 87.376ZM23.9993 88.188V96H21.6053V88.188H23.9993ZM28.1282 89.49C28.4082 89.0607 28.7582 88.7247 29.1782 88.482C29.5982 88.23 30.0649 88.104 30.5782 88.104V90.638H29.9202C29.3229 90.638 28.8749 90.7687 28.5762 91.03C28.2775 91.282 28.1282 91.73 28.1282 92.374V96H25.7342V88.188H28.1282V89.49ZM39.0865 91.968C39.0865 92.192 39.0725 92.4253 39.0445 92.668H33.6265C33.6638 93.1533 33.8178 93.5267 34.0885 93.788C34.3685 94.04 34.7092 94.166 35.1105 94.166C35.7078 94.166 36.1232 93.914 36.3565 93.41H38.9045C38.7738 93.9233 38.5358 94.3853 38.1905 94.796C37.8545 95.2067 37.4298 95.5287 36.9165 95.762C36.4032 95.9953 35.8292 96.112 35.1945 96.112C34.4292 96.112 33.7478 95.9487 33.1505 95.622C32.5532 95.2953 32.0865 94.8287 31.7505 94.222C31.4145 93.6153 31.2465 92.906 31.2465 92.094C31.2465 91.282 31.4098 90.5727 31.7365 89.966C32.0725 89.3593 32.5392 88.8927 33.1365 88.566C33.7338 88.2393 34.4198 88.076 35.1945 88.076C35.9505 88.076 36.6225 88.2347 37.2105 88.552C37.7985 88.8693 38.2558 89.322 38.5825 89.91C38.9185 90.498 39.0865 91.184 39.0865 91.968ZM36.6365 91.338C36.6365 90.9273 36.4965 90.6007 36.2165 90.358C35.9365 90.1153 35.5865 89.994 35.1665 89.994C34.7652 89.994 34.4245 90.1107 34.1445 90.344C33.8738 90.5773 33.7058 90.9087 33.6405 91.338H36.6365ZM42.7434 89.294C42.9674 88.93 43.2894 88.636 43.7094 88.412C44.1294 88.188 44.6101 88.076 45.1514 88.076C45.7954 88.076 46.3788 88.2393 46.9014 88.566C47.4241 88.8927 47.8348 89.3593 48.1334 89.966C48.4414 90.5727 48.5954 91.2773 48.5954 92.08C48.5954 92.8827 48.4414 93.592 48.1334 94.208C47.8348 94.8147 47.4241 95.286 46.9014 95.622C46.3788 95.9487 45.7954 96.112 45.1514 96.112C44.6008 96.112 44.1201 96.0047 43.7094 95.79C43.2988 95.566 42.9768 95.272 42.7434 94.908V96H40.3494V85.64H42.7434V89.294ZM46.1594 92.08C46.1594 91.4827 45.9914 91.016 45.6554 90.68C45.3288 90.3347 44.9228 90.162 44.4374 90.162C43.9614 90.162 43.5554 90.3347 43.2194 90.68C42.8928 91.0253 42.7294 91.4967 42.7294 92.094C42.7294 92.6913 42.8928 93.1627 43.2194 93.508C43.5554 93.8533 43.9614 94.026 44.4374 94.026C44.9134 94.026 45.3194 93.8533 45.6554 93.508C45.9914 93.1533 46.1594 92.6773 46.1594 92.08ZM49.3754 92.08C49.3754 91.2773 49.5247 90.5727 49.8234 89.966C50.1314 89.3593 50.5467 88.8927 51.0694 88.566C51.5921 88.2393 52.1754 88.076 52.8194 88.076C53.3701 88.076 53.8507 88.188 54.2614 88.412C54.6814 88.636 55.0034 88.93 55.2274 89.294V88.188H57.6214V96H55.2274V94.894C54.9941 95.258 54.6674 95.552 54.2474 95.776C53.8367 96 53.3561 96.112 52.8054 96.112C52.1707 96.112 51.5921 95.9487 51.0694 95.622C50.5467 95.286 50.1314 94.8147 49.8234 94.208C49.5247 93.592 49.3754 92.8827 49.3754 92.08ZM55.2274 92.094C55.2274 91.4967 55.0594 91.0253 54.7234 90.68C54.3967 90.3347 53.9954 90.162 53.5194 90.162C53.0434 90.162 52.6374 90.3347 52.3014 90.68C51.9747 91.016 51.8114 91.4827 51.8114 92.08C51.8114 92.6773 51.9747 93.1533 52.3014 93.508C52.6374 93.8533 53.0434 94.026 53.5194 94.026C53.9954 94.026 54.3967 93.8533 54.7234 93.508C55.0594 93.1627 55.2274 92.6913 55.2274 92.094ZM62.5314 96.112C61.85 96.112 61.2434 95.9953 60.7114 95.762C60.1794 95.5287 59.7594 95.2113 59.4514 94.81C59.1434 94.3993 58.9707 93.942 58.9334 93.438H61.2994C61.3274 93.7087 61.4534 93.928 61.6774 94.096C61.9014 94.264 62.1767 94.348 62.5034 94.348C62.802 94.348 63.0307 94.292 63.1894 94.18C63.3574 94.0587 63.4414 93.9047 63.4414 93.718C63.4414 93.494 63.3247 93.3307 63.0914 93.228C62.858 93.116 62.48 92.9947 61.9574 92.864C61.3974 92.7333 60.9307 92.598 60.5574 92.458C60.184 92.3087 59.862 92.08 59.5914 91.772C59.3207 91.4547 59.1854 91.03 59.1854 90.498C59.1854 90.05 59.3067 89.644 59.5494 89.28C59.8014 88.9067 60.1654 88.6127 60.6414 88.398C61.1267 88.1833 61.7007 88.076 62.3634 88.076C63.3434 88.076 64.1134 88.3187 64.6734 88.804C65.2427 89.2893 65.5694 89.9333 65.6534 90.736H63.4414C63.404 90.4653 63.2827 90.2507 63.0774 90.092C62.8814 89.9333 62.62 89.854 62.2934 89.854C62.0134 89.854 61.7987 89.91 61.6494 90.022C61.5 90.1247 61.4254 90.2693 61.4254 90.456C61.4254 90.68 61.542 90.848 61.7754 90.96C62.018 91.072 62.3914 91.184 62.8954 91.296C63.474 91.4453 63.9454 91.5947 64.3094 91.744C64.6734 91.884 64.9907 92.1173 65.2614 92.444C65.5414 92.7613 65.686 93.1907 65.6954 93.732C65.6954 94.1893 65.5647 94.6 65.3034 94.964C65.0514 95.3187 64.6827 95.5987 64.1974 95.804C63.7214 96.0093 63.166 96.112 62.5314 96.112ZM74.524 91.968C74.524 92.192 74.51 92.4253 74.482 92.668H69.064C69.1013 93.1533 69.2553 93.5267 69.526 93.788C69.806 94.04 70.1467 94.166 70.548 94.166C71.1453 94.166 71.5607 93.914 71.794 93.41H74.342C74.2113 93.9233 73.9733 94.3853 73.628 94.796C73.292 95.2067 72.8673 95.5287 72.354 95.762C71.8407 95.9953 71.2667 96.112 70.632 96.112C69.8667 96.112 69.1853 95.9487 68.588 95.622C67.9907 95.2953 67.524 94.8287 67.188 94.222C66.852 93.6153 66.684 92.906 66.684 92.094C66.684 91.282 66.8473 90.5727 67.174 89.966C67.51 89.3593 67.9767 88.8927 68.574 88.566C69.1713 88.2393 69.8573 88.076 70.632 88.076C71.388 88.076 72.06 88.2347 72.648 88.552C73.236 88.8693 73.6933 89.322 74.02 89.91C74.356 90.498 74.524 91.184 74.524 91.968ZM72.074 91.338C72.074 90.9273 71.934 90.6007 71.654 90.358C71.374 90.1153 71.024 89.994 70.604 89.994C70.2027 89.994 69.862 90.1107 69.582 90.344C69.3113 90.5773 69.1433 90.9087 69.078 91.338H72.074Z" fill="white"/>
</svg>
