<svg width="88" height="100" viewBox="0 0 88 100" fill="none" xmlns="http://www.w3.org/2000/svg">
<path d="M67.1027 44.8858L46.1174 23.9005C44.9168 22.6998 42.9331 22.6998 41.7324 23.9005L37.3996 28.2333L42.9331 33.7667C44.2381 33.3491 45.6998 33.6101 46.6917 34.6542C47.7357 35.6982 47.9967 37.1599 47.5791 38.4649L52.9037 43.7896C54.2088 43.3719 55.6704 43.633 56.7145 44.677C58.1762 46.0865 58.1762 48.4356 56.7145 49.8972C55.2528 51.3589 52.9559 51.3589 51.4943 49.8972C50.398 48.801 50.137 47.2349 50.7112 45.8777L45.752 40.9184V53.969C46.1174 54.1256 46.4306 54.3866 46.7439 54.6476C48.2055 56.0571 48.2055 58.4062 46.7439 59.8679C45.2822 61.2773 42.9853 61.2773 41.5236 59.8679C40.062 58.4062 40.062 56.1093 41.5236 54.6476C41.889 54.2822 42.3067 54.0212 42.7243 53.8646V40.6574C42.3067 40.5008 41.889 40.1876 41.5236 39.8744C40.4274 38.7781 40.1664 37.2121 40.7406 35.8548L35.2594 30.4258L20.9037 44.7814C19.7031 45.9821 19.7031 47.9657 20.9037 49.1664L41.8368 70.0995C43.0375 71.3002 45.0212 71.3002 46.2218 70.0995L67.0505 49.2708C68.3034 48.0179 68.3034 46.0865 67.1027 44.8858Z" fill="white"/>
<path d="M41.1518 89.28C40.9744 88.9533 40.7178 88.706 40.3818 88.538C40.0551 88.3607 39.6678 88.272 39.2198 88.272C38.4451 88.272 37.8244 88.5287 37.3578 89.042C36.8911 89.546 36.6578 90.2227 36.6578 91.072C36.6578 91.9773 36.9004 92.6867 37.3858 93.2C37.8804 93.704 38.5571 93.956 39.4158 93.956C40.0038 93.956 40.4984 93.8067 40.8998 93.508C41.3104 93.2093 41.6091 92.78 41.7958 92.22H38.7578V90.456H43.9658V92.682C43.7884 93.2793 43.4851 93.8347 43.0558 94.348C42.6358 94.8613 42.0991 95.2767 41.4458 95.594C40.7924 95.9113 40.0551 96.07 39.2338 96.07C38.2631 96.07 37.3951 95.86 36.6298 95.44C35.8738 95.0107 35.2811 94.418 34.8518 93.662C34.4318 92.906 34.2218 92.0427 34.2218 91.072C34.2218 90.1013 34.4318 89.238 34.8518 88.482C35.2811 87.7167 35.8738 87.124 36.6298 86.704C37.3858 86.2747 38.2491 86.06 39.2198 86.06C40.3958 86.06 41.3851 86.3447 42.1878 86.914C42.9998 87.4833 43.5364 88.272 43.7978 89.28H41.1518ZM46.4958 87.376C46.0758 87.376 45.7305 87.2547 45.4598 87.012C45.1985 86.76 45.0678 86.452 45.0678 86.088C45.0678 85.7147 45.1985 85.4067 45.4598 85.164C45.7305 84.912 46.0758 84.786 46.4958 84.786C46.9065 84.786 47.2425 84.912 47.5038 85.164C47.7745 85.4067 47.9098 85.7147 47.9098 86.088C47.9098 86.452 47.7745 86.76 47.5038 87.012C47.2425 87.2547 46.9065 87.376 46.4958 87.376ZM47.6858 88.188V96H45.2918V88.188H47.6858ZM53.7747 93.97V96H52.5567C51.6887 96 51.0121 95.79 50.5267 95.37C50.0414 94.9407 49.7987 94.2453 49.7987 93.284V90.176H48.8467V88.188H49.7987V86.284H52.1927V88.188H53.7607V90.176H52.1927V93.312C52.1927 93.5453 52.2487 93.7133 52.3607 93.816C52.4727 93.9187 52.6594 93.97 52.9207 93.97H53.7747Z" fill="white"/>
</svg>
