<svg width="88" height="100" viewBox="0 0 88 100" fill="none" xmlns="http://www.w3.org/2000/svg">
<path d="M44 61.8272L55.088 58.8128L56.5832 42.5456H36.8624L36.3728 37.136H57.0752L57.62 31.8296H30.38L31.9064 47.8568H50.6744L50.048 54.7352L44 56.336L37.952 54.7352L37.5728 50.3096H32.1248L32.9144 58.8152L44 61.8272ZM22.4 23H65.6L61.7048 66.2L44 71L26.2952 66.2L22.4 23Z" fill="white"/>
<path d="M34.3624 86.172V96H31.9684V91.954H28.2444V96H25.8504V86.172H28.2444V90.022H31.9684V86.172H34.3624ZM43.1607 86.172V88.09H40.5567V96H38.1627V88.09H35.5587V86.172H43.1607ZM55.4921 86.172V96H53.0981V90.106L50.9001 96H48.9681L46.7561 90.092V96H44.3621V86.172H47.1901L49.9481 92.976L52.6781 86.172H55.4921ZM59.6077 94.152H62.7437V96H57.2137V86.172H59.6077V94.152Z" fill="white"/>
</svg>
