<svg width="94" height="111" viewBox="0 0 94 111" fill="none" xmlns="http://www.w3.org/2000/svg">
<g filter="url(#filter0_d_177_1058)">
<path d="M20 23C36.0108 23 51.9892 23 68 23C68 39.0108 68 55.0216 68 71C52.0216 71 36.0108 71 20 71C20 54.9568 20 38.9784 20 23ZM62.944 48.4099C61.9716 46.6597 60.6428 45.4605 58.7306 45.0392C57.3693 44.7151 56.0081 44.7151 54.6469 45.0068C50.239 45.9142 48.3592 51.2296 51.2113 54.7623C52.2161 55.9939 53.5449 56.7394 54.9385 57.3876C56.1702 57.971 57.4342 58.5219 58.6658 59.1377C59.5084 59.5591 59.8649 60.3369 59.7677 61.2768C59.6705 62.2167 59.0223 62.7353 58.212 63.027C56.397 63.6752 54.2903 63.0918 53.0587 61.5685C52.7995 61.2444 52.5402 60.8879 52.2809 60.5314C51.0493 61.2444 49.8501 61.925 48.6509 62.6381C49.3963 64.0966 50.4335 65.2633 51.8595 66.0412C54.2903 67.37 56.8508 67.5645 59.476 66.9163C61.1938 66.4949 62.6523 65.6199 63.5597 64.0317C65.2451 61.0176 64.2728 57.2579 61.291 55.4105C59.9622 54.6003 58.4713 54.0493 57.0776 53.3363C56.397 52.9797 55.684 52.6556 55.1006 52.2019C54.0635 51.3592 54.2579 49.6739 55.4247 49.0257C56.5591 48.3774 58.1472 48.7664 59.0223 49.9007C59.2167 50.1276 59.3464 50.3869 59.5408 50.6462C60.6428 49.9007 61.7772 49.1553 62.944 48.4099ZM32.6401 63.1242C33.2883 64.5179 34.2282 65.6199 35.5571 66.3329C37.2748 67.2728 39.1546 67.4348 41.0668 67.1431C42.7846 66.8839 44.2107 66.106 45.1506 64.5503C45.9284 63.2539 46.1553 61.8278 46.1553 60.3045C46.1553 55.3781 46.1553 50.4517 46.1553 45.5253C46.1553 45.3957 46.1553 45.2336 46.1553 45.0716C44.632 45.0716 43.1735 45.0716 41.6502 45.0716C41.6502 45.266 41.6502 45.4281 41.6502 45.6226C41.6502 50.4841 41.6502 55.3133 41.6502 60.1749C41.6502 60.6286 41.6178 61.1148 41.553 61.5685C41.4234 62.314 41.0344 62.865 40.289 63.0918C38.8953 63.5132 37.761 63.0918 36.9507 61.8926C36.7562 61.5685 36.5618 61.2444 36.3349 60.9203C35.0709 61.6658 33.8717 62.3788 32.6401 63.1242Z" fill="white"/>
<path d="M11.8991 86.172V92.864C11.8991 93.9 11.6051 94.698 11.0171 95.258C10.4384 95.818 9.65443 96.098 8.66509 96.098C7.62909 96.098 6.79843 95.804 6.17309 95.216C5.54776 94.628 5.23509 93.7927 5.23509 92.71H7.61509C7.61509 93.1207 7.69909 93.4333 7.86709 93.648C8.03509 93.8533 8.27776 93.956 8.59509 93.956C8.88443 93.956 9.10843 93.8627 9.26709 93.676C9.42576 93.4893 9.50509 93.2187 9.50509 92.864V86.172H11.8991ZM13.3568 92.08C13.3568 91.2773 13.5062 90.5727 13.8048 89.966C14.1128 89.3593 14.5282 88.8927 15.0508 88.566C15.5735 88.2393 16.1568 88.076 16.8008 88.076C17.3515 88.076 17.8322 88.188 18.2428 88.412C18.6628 88.636 18.9848 88.93 19.2088 89.294V88.188H21.6028V96H19.2088V94.894C18.9755 95.258 18.6488 95.552 18.2288 95.776C17.8182 96 17.3375 96.112 16.7868 96.112C16.1522 96.112 15.5735 95.9487 15.0508 95.622C14.5282 95.286 14.1128 94.8147 13.8048 94.208C13.5062 93.592 13.3568 92.8827 13.3568 92.08ZM19.2088 92.094C19.2088 91.4967 19.0408 91.0253 18.7048 90.68C18.3782 90.3347 17.9768 90.162 17.5008 90.162C17.0248 90.162 16.6188 90.3347 16.2828 90.68C15.9562 91.016 15.7928 91.4827 15.7928 92.08C15.7928 92.6773 15.9562 93.1533 16.2828 93.508C16.6188 93.8533 17.0248 94.026 17.5008 94.026C17.9768 94.026 18.3782 93.8533 18.7048 93.508C19.0408 93.1627 19.2088 92.6913 19.2088 92.094ZM26.8488 93.76L28.5428 88.188H31.0908L28.3188 96H25.3648L22.5928 88.188H25.1548L26.8488 93.76ZM31.6225 92.08C31.6225 91.2773 31.7718 90.5727 32.0705 89.966C32.3785 89.3593 32.7938 88.8927 33.3165 88.566C33.8391 88.2393 34.4225 88.076 35.0665 88.076C35.6171 88.076 36.0978 88.188 36.5085 88.412C36.9285 88.636 37.2505 88.93 37.4745 89.294V88.188H39.8685V96H37.4745V94.894C37.2411 95.258 36.9145 95.552 36.4945 95.776C36.0838 96 35.6031 96.112 35.0525 96.112C34.4178 96.112 33.8391 95.9487 33.3165 95.622C32.7938 95.286 32.3785 94.8147 32.0705 94.208C31.7718 93.592 31.6225 92.8827 31.6225 92.08ZM37.4745 92.094C37.4745 91.4967 37.3065 91.0253 36.9705 90.68C36.6438 90.3347 36.2425 90.162 35.7665 90.162C35.2905 90.162 34.8845 90.3347 34.5485 90.68C34.2218 91.016 34.0585 91.4827 34.0585 92.08C34.0585 92.6773 34.2218 93.1533 34.5485 93.508C34.8845 93.8533 35.2905 94.026 35.7665 94.026C36.2425 94.026 36.6438 93.8533 36.9705 93.508C37.3065 93.1627 37.4745 92.6913 37.4745 92.094ZM45.1564 96.098C44.4378 96.098 43.7938 95.9813 43.2244 95.748C42.6551 95.5147 42.1978 95.1693 41.8524 94.712C41.5164 94.2547 41.3391 93.704 41.3204 93.06H43.8684C43.9058 93.424 44.0318 93.704 44.2464 93.9C44.4611 94.0867 44.7411 94.18 45.0864 94.18C45.4411 94.18 45.7211 94.1007 45.9264 93.942C46.1318 93.774 46.2344 93.5453 46.2344 93.256C46.2344 93.0133 46.1504 92.8127 45.9824 92.654C45.8238 92.4953 45.6231 92.3647 45.3804 92.262C45.1471 92.1593 44.8111 92.0427 44.3724 91.912C43.7378 91.716 43.2198 91.52 42.8184 91.324C42.4171 91.128 42.0718 90.8387 41.7824 90.456C41.4931 90.0733 41.3484 89.574 41.3484 88.958C41.3484 88.0433 41.6798 87.3293 42.3424 86.816C43.0051 86.2933 43.8684 86.032 44.9324 86.032C46.0151 86.032 46.8878 86.2933 47.5504 86.816C48.2131 87.3293 48.5678 88.048 48.6144 88.972H46.0244C46.0058 88.6547 45.8891 88.4073 45.6744 88.23C45.4598 88.0433 45.1844 87.95 44.8484 87.95C44.5591 87.95 44.3258 88.0293 44.1484 88.188C43.9711 88.3373 43.8824 88.5567 43.8824 88.846C43.8824 89.1633 44.0318 89.4107 44.3304 89.588C44.6291 89.7653 45.0958 89.9567 45.7304 90.162C46.3651 90.3767 46.8784 90.582 47.2704 90.778C47.6718 90.974 48.0171 91.2587 48.3064 91.632C48.5958 92.0053 48.7404 92.486 48.7404 93.074C48.7404 93.634 48.5958 94.1427 48.3064 94.6C48.0264 95.0573 47.6158 95.4213 47.0744 95.692C46.5331 95.9627 45.8938 96.098 45.1564 96.098ZM49.7377 92.094C49.7377 91.282 49.901 90.5727 50.2277 89.966C50.5637 89.3593 51.0257 88.8927 51.6137 88.566C52.211 88.2393 52.8924 88.076 53.6577 88.076C54.6377 88.076 55.4544 88.3327 56.1077 88.846C56.7704 89.3593 57.2044 90.0827 57.4097 91.016H54.8617C54.647 90.4187 54.2317 90.12 53.6157 90.12C53.177 90.12 52.827 90.2927 52.5657 90.638C52.3044 90.974 52.1737 91.4593 52.1737 92.094C52.1737 92.7287 52.3044 93.2187 52.5657 93.564C52.827 93.9 53.177 94.068 53.6157 94.068C54.2317 94.068 54.647 93.7693 54.8617 93.172H57.4097C57.2044 94.0867 56.7704 94.8053 56.1077 95.328C55.445 95.8507 54.6284 96.112 53.6577 96.112C52.8924 96.112 52.211 95.9487 51.6137 95.622C51.0257 95.2953 50.5637 94.8287 50.2277 94.222C49.901 93.6153 49.7377 92.906 49.7377 92.094ZM61.0843 89.49C61.3643 89.0607 61.7143 88.7247 62.1343 88.482C62.5543 88.23 63.0209 88.104 63.5343 88.104V90.638H62.8763C62.2789 90.638 61.8309 90.7687 61.5323 91.03C61.2336 91.282 61.0843 91.73 61.0843 92.374V96H58.6903V88.188H61.0843V89.49ZM65.8825 87.376C65.4625 87.376 65.1172 87.2547 64.8465 87.012C64.5852 86.76 64.4545 86.452 64.4545 86.088C64.4545 85.7147 64.5852 85.4067 64.8465 85.164C65.1172 84.912 65.4625 84.786 65.8825 84.786C66.2932 84.786 66.6292 84.912 66.8905 85.164C67.1612 85.4067 67.2965 85.7147 67.2965 86.088C67.2965 86.452 67.1612 86.76 66.8905 87.012C66.6292 87.2547 66.2932 87.376 65.8825 87.376ZM67.0725 88.188V96H64.6785V88.188H67.0725ZM71.2015 89.294C71.4348 88.93 71.7568 88.636 72.1675 88.412C72.5781 88.188 73.0588 88.076 73.6095 88.076C74.2535 88.076 74.8368 88.2393 75.3595 88.566C75.8821 88.8927 76.2928 89.3593 76.5915 89.966C76.8995 90.5727 77.0535 91.2773 77.0535 92.08C77.0535 92.8827 76.8995 93.592 76.5915 94.208C76.2928 94.8147 75.8821 95.286 75.3595 95.622C74.8368 95.9487 74.2535 96.112 73.6095 96.112C73.0681 96.112 72.5875 96 72.1675 95.776C71.7568 95.552 71.4348 95.2627 71.2015 94.908V99.724H68.8075V88.188H71.2015V89.294ZM74.6175 92.08C74.6175 91.4827 74.4495 91.016 74.1135 90.68C73.7868 90.3347 73.3808 90.162 72.8955 90.162C72.4195 90.162 72.0135 90.3347 71.6775 90.68C71.3508 91.0253 71.1875 91.4967 71.1875 92.094C71.1875 92.6913 71.3508 93.1627 71.6775 93.508C72.0135 93.8533 72.4195 94.026 72.8955 94.026C73.3715 94.026 73.7775 93.8533 74.1135 93.508C74.4495 93.1533 74.6175 92.6773 74.6175 92.08ZM82.6634 93.97V96H81.4454C80.5774 96 79.9007 95.79 79.4154 95.37C78.9301 94.9407 78.6874 94.2453 78.6874 93.284V90.176H77.7354V88.188H78.6874V86.284H81.0814V88.188H82.6494V90.176H81.0814V93.312C81.0814 93.5453 81.1374 93.7133 81.2494 93.816C81.3614 93.9187 81.5481 93.97 81.8094 93.97H82.6634Z" fill="white"/>
</g>
<defs>
<filter id="filter0_d_177_1058" x="-1" y="-1" width="100" height="112" filterUnits="userSpaceOnUse" color-interpolation-filters="sRGB">
<feFlood flood-opacity="0" result="BackgroundImageFix"/>
<feColorMatrix in="SourceAlpha" type="matrix" values="0 0 0 0 0 0 0 0 0 0 0 0 0 0 0 0 0 0 127 0" result="hardAlpha"/>
<feOffset dx="5" dy="5"/>
<feGaussianBlur stdDeviation="3"/>
<feComposite in2="hardAlpha" operator="out"/>
<feColorMatrix type="matrix" values="0 0 0 0 0 0 0 0 0 0 0 0 0 0 0 0 0 0 0.25 0"/>
<feBlend mode="normal" in2="BackgroundImageFix" result="effect1_dropShadow_177_1058"/>
<feBlend mode="normal" in="SourceGraphic" in2="effect1_dropShadow_177_1058" result="shape"/>
</filter>
</defs>
</svg>
