<svg width="89" height="100" viewBox="0 0 89 100" fill="none" xmlns="http://www.w3.org/2000/svg">
<g clip-path="url(#clip0_193_521)">
<path d="M26.82 10.84V43.24C22.9 38.92 20.5 33.24 20.5 27C20.5 20.76 22.9 15.08 26.82 10.84Z" fill="white"/>
<path d="M29.38 14.36L43.22 42.12H29.38V14.36Z" fill="white"/>
<path d="M44.5 39L30.9 11.88H58.1L44.5 39Z" fill="white"/>
<path d="M44.5 3C50.74 3 56.42 5.4 60.66 9.32H28.34C32.58 5.4 38.26 3 44.5 3Z" fill="white"/>
<path d="M59.62 42.12H45.78L59.62 14.36V42.12Z" fill="white"/>
<path d="M60.66 44.68C56.42 48.6 50.74 51 44.5 51C38.26 51 32.58 48.6 28.34 44.68H60.66Z" fill="white"/>
<path d="M62.1801 43.16V10.84C66.1001 15.08 68.5001 20.76 68.5001 27C68.5001 33.24 66.1001 38.92 62.1801 43.16Z" fill="white"/>
<path d="M29.38 14.36L43.22 42.12H29.38V14.36Z" fill="white"/>
<path d="M44.5 39L30.9 11.88H58.1L44.5 39Z" fill="white"/>
<path d="M45.78 42.12L59.62 14.36V42.12H45.78Z" fill="white"/>
<path d="M30.9 11.88H58.1L44.5 39L30.9 11.88Z" fill="white"/>
</g>
<path d="M26.29 66.172V76H23.896V70.106L21.698 76H19.766L17.554 70.092V76H15.16V66.172H17.988L20.746 72.976L23.476 66.172H26.29ZM27.5356 72.08C27.5356 71.2773 27.6849 70.5727 27.9836 69.966C28.2916 69.3593 28.7069 68.8927 29.2296 68.566C29.7522 68.2393 30.3356 68.076 30.9796 68.076C31.5302 68.076 32.0109 68.188 32.4216 68.412C32.8416 68.636 33.1636 68.93 33.3876 69.294V68.188H35.7816V76H33.3876V74.894C33.1542 75.258 32.8276 75.552 32.4076 75.776C31.9969 76 31.5162 76.112 30.9656 76.112C30.3309 76.112 29.7522 75.9487 29.2296 75.622C28.7069 75.286 28.2916 74.8147 27.9836 74.208C27.6849 73.592 27.5356 72.8827 27.5356 72.08ZM33.3876 72.094C33.3876 71.4967 33.2196 71.0253 32.8836 70.68C32.5569 70.3347 32.1556 70.162 31.6796 70.162C31.2036 70.162 30.7976 70.3347 30.4616 70.68C30.1349 71.016 29.9716 71.4827 29.9716 72.08C29.9716 72.6773 30.1349 73.1533 30.4616 73.508C30.7976 73.8533 31.2036 74.026 31.6796 74.026C32.1556 74.026 32.5569 73.8533 32.8836 73.508C33.2196 73.1627 33.3876 72.6913 33.3876 72.094ZM41.8675 73.97V76H40.6495C39.7815 76 39.1048 75.79 38.6195 75.37C38.1342 74.9407 37.8915 74.2453 37.8915 73.284V70.176H36.9395V68.188H37.8915V66.284H40.2855V68.188H41.8535V70.176H40.2855V73.312C40.2855 73.5453 40.3415 73.7133 40.4535 73.816C40.5655 73.9187 40.7522 73.97 41.0135 73.97H41.8675ZM50.565 71.968C50.565 72.192 50.551 72.4253 50.523 72.668H45.105C45.1423 73.1533 45.2963 73.5267 45.567 73.788C45.847 74.04 46.1877 74.166 46.589 74.166C47.1863 74.166 47.6017 73.914 47.835 73.41H50.383C50.2523 73.9233 50.0143 74.3853 49.669 74.796C49.333 75.2067 48.9083 75.5287 48.395 75.762C47.8817 75.9953 47.3077 76.112 46.673 76.112C45.9077 76.112 45.2263 75.9487 44.629 75.622C44.0317 75.2953 43.565 74.8287 43.229 74.222C42.893 73.6153 42.725 72.906 42.725 72.094C42.725 71.282 42.8883 70.5727 43.215 69.966C43.551 69.3593 44.0177 68.8927 44.615 68.566C45.2123 68.2393 45.8983 68.076 46.673 68.076C47.429 68.076 48.101 68.2347 48.689 68.552C49.277 68.8693 49.7343 69.322 50.061 69.91C50.397 70.498 50.565 71.184 50.565 71.968ZM48.115 71.338C48.115 70.9273 47.975 70.6007 47.695 70.358C47.415 70.1153 47.065 69.994 46.645 69.994C46.2437 69.994 45.903 70.1107 45.623 70.344C45.3523 70.5773 45.1843 70.9087 45.119 71.338H48.115ZM54.222 69.49C54.502 69.0607 54.852 68.7247 55.272 68.482C55.692 68.23 56.1586 68.104 56.672 68.104V70.638H56.014C55.4166 70.638 54.9686 70.7687 54.67 71.03C54.3713 71.282 54.222 71.73 54.222 72.374V76H51.828V68.188H54.222V69.49ZM59.0202 67.376C58.6002 67.376 58.2549 67.2547 57.9842 67.012C57.7229 66.76 57.5922 66.452 57.5922 66.088C57.5922 65.7147 57.7229 65.4067 57.9842 65.164C58.2549 64.912 58.6002 64.786 59.0202 64.786C59.4309 64.786 59.7669 64.912 60.0282 65.164C60.2989 65.4067 60.4342 65.7147 60.4342 66.088C60.4342 66.452 60.2989 66.76 60.0282 67.012C59.7669 67.2547 59.4309 67.376 59.0202 67.376ZM60.2102 68.188V76H57.8162V68.188H60.2102ZM61.4691 72.08C61.4691 71.2773 61.6185 70.5727 61.9171 69.966C62.2251 69.3593 62.6405 68.8927 63.1631 68.566C63.6858 68.2393 64.2691 68.076 64.9131 68.076C65.4638 68.076 65.9445 68.188 66.3551 68.412C66.7751 68.636 67.0971 68.93 67.3211 69.294V68.188H69.7151V76H67.3211V74.894C67.0878 75.258 66.7611 75.552 66.3411 75.776C65.9305 76 65.4498 76.112 64.8991 76.112C64.2645 76.112 63.6858 75.9487 63.1631 75.622C62.6405 75.286 62.2251 74.8147 61.9171 74.208C61.6185 73.592 61.4691 72.8827 61.4691 72.08ZM67.3211 72.094C67.3211 71.4967 67.1531 71.0253 66.8171 70.68C66.4905 70.3347 66.0891 70.162 65.6131 70.162C65.1371 70.162 64.7311 70.3347 64.3951 70.68C64.0685 71.016 63.9051 71.4827 63.9051 72.08C63.9051 72.6773 64.0685 73.1533 64.3951 73.508C64.7311 73.8533 65.1371 74.026 65.6131 74.026C66.0891 74.026 66.4905 73.8533 66.8171 73.508C67.1531 73.1627 67.3211 72.6913 67.3211 72.094ZM73.8411 65.64V76H71.4471V65.64H73.8411ZM20.392 89.08C20.392 88.2773 20.5413 87.5727 20.84 86.966C21.148 86.3593 21.5633 85.8927 22.086 85.566C22.6087 85.2393 23.192 85.076 23.836 85.076C24.3493 85.076 24.816 85.1833 25.236 85.398C25.6653 85.6127 26.0013 85.902 26.244 86.266V82.64H28.638V93H26.244V91.88C26.02 92.2533 25.698 92.552 25.278 92.776C24.8673 93 24.3867 93.112 23.836 93.112C23.192 93.112 22.6087 92.9487 22.086 92.622C21.5633 92.286 21.148 91.8147 20.84 91.208C20.5413 90.592 20.392 89.8827 20.392 89.08ZM26.244 89.094C26.244 88.4967 26.076 88.0253 25.74 87.68C25.4133 87.3347 25.012 87.162 24.536 87.162C24.06 87.162 23.654 87.3347 23.318 87.68C22.9913 88.016 22.828 88.4827 22.828 89.08C22.828 89.6773 22.9913 90.1533 23.318 90.508C23.654 90.8533 24.06 91.026 24.536 91.026C25.012 91.026 25.4133 90.8533 25.74 90.508C26.076 90.1627 26.244 89.6913 26.244 89.094ZM37.734 88.968C37.734 89.192 37.72 89.4253 37.692 89.668H32.274C32.3113 90.1533 32.4653 90.5267 32.736 90.788C33.016 91.04 33.3566 91.166 33.758 91.166C34.3553 91.166 34.7706 90.914 35.004 90.41H37.552C37.4213 90.9233 37.1833 91.3853 36.838 91.796C36.502 92.2067 36.0773 92.5287 35.564 92.762C35.0506 92.9953 34.4766 93.112 33.842 93.112C33.0766 93.112 32.3953 92.9487 31.798 92.622C31.2006 92.2953 30.734 91.8287 30.398 91.222C30.062 90.6153 29.894 89.906 29.894 89.094C29.894 88.282 30.0573 87.5727 30.384 86.966C30.72 86.3593 31.1866 85.8927 31.784 85.566C32.3813 85.2393 33.0673 85.076 33.842 85.076C34.598 85.076 35.27 85.2347 35.858 85.552C36.446 85.8693 36.9033 86.322 37.23 86.91C37.566 87.498 37.734 88.184 37.734 88.968ZM35.284 88.338C35.284 87.9273 35.144 87.6007 34.864 87.358C34.584 87.1153 34.234 86.994 33.814 86.994C33.4126 86.994 33.072 87.1107 32.792 87.344C32.5213 87.5773 32.3533 87.9087 32.288 88.338H35.284ZM42.1749 93.112C41.4936 93.112 40.8869 92.9953 40.3549 92.762C39.8229 92.5287 39.4029 92.2113 39.0949 91.81C38.7869 91.3993 38.6142 90.942 38.5769 90.438H40.9429C40.9709 90.7087 41.0969 90.928 41.3209 91.096C41.5449 91.264 41.8202 91.348 42.1469 91.348C42.4456 91.348 42.6742 91.292 42.8329 91.18C43.0009 91.0587 43.0849 90.9047 43.0849 90.718C43.0849 90.494 42.9682 90.3307 42.7349 90.228C42.5016 90.116 42.1236 89.9947 41.6009 89.864C41.0409 89.7333 40.5742 89.598 40.2009 89.458C39.8276 89.3087 39.5056 89.08 39.2349 88.772C38.9642 88.4547 38.8289 88.03 38.8289 87.498C38.8289 87.05 38.9502 86.644 39.1929 86.28C39.4449 85.9067 39.8089 85.6127 40.2849 85.398C40.7702 85.1833 41.3442 85.076 42.0069 85.076C42.9869 85.076 43.7569 85.3187 44.3169 85.804C44.8862 86.2893 45.2129 86.9333 45.2969 87.736H43.0849C43.0476 87.4653 42.9262 87.2507 42.7209 87.092C42.5249 86.9333 42.2636 86.854 41.9369 86.854C41.6569 86.854 41.4422 86.91 41.2929 87.022C41.1436 87.1247 41.0689 87.2693 41.0689 87.456C41.0689 87.68 41.1856 87.848 41.4189 87.96C41.6616 88.072 42.0349 88.184 42.5389 88.296C43.1176 88.4453 43.5889 88.5947 43.9529 88.744C44.3169 88.884 44.6342 89.1173 44.9049 89.444C45.1849 89.7613 45.3296 90.1907 45.3389 90.732C45.3389 91.1893 45.2082 91.6 44.9469 91.964C44.6949 92.3187 44.3262 92.5987 43.8409 92.804C43.3649 93.0093 42.8096 93.112 42.1749 93.112ZM48.0075 84.376C47.5875 84.376 47.2422 84.2547 46.9715 84.012C46.7102 83.76 46.5795 83.452 46.5795 83.088C46.5795 82.7147 46.7102 82.4067 46.9715 82.164C47.2422 81.912 47.5875 81.786 48.0075 81.786C48.4182 81.786 48.7542 81.912 49.0155 82.164C49.2862 82.4067 49.4215 82.7147 49.4215 83.088C49.4215 83.452 49.2862 83.76 49.0155 84.012C48.7542 84.2547 48.4182 84.376 48.0075 84.376ZM49.1975 85.188V93H46.8035V85.188H49.1975ZM53.9005 85.076C54.4511 85.076 54.9318 85.188 55.3425 85.412C55.7625 85.636 56.0845 85.93 56.3085 86.294V85.188H58.7025V92.986C58.7025 93.7047 58.5578 94.3533 58.2685 94.932C57.9885 95.52 57.5545 95.9867 56.9665 96.332C56.3878 96.6773 55.6645 96.85 54.7965 96.85C53.6391 96.85 52.7011 96.5747 51.9825 96.024C51.2638 95.4827 50.8531 94.7453 50.7505 93.812H53.1165C53.1911 94.1107 53.3685 94.344 53.6485 94.512C53.9285 94.6893 54.2738 94.778 54.6845 94.778C55.1791 94.778 55.5711 94.6333 55.8605 94.344C56.1591 94.064 56.3085 93.6113 56.3085 92.986V91.88C56.0751 92.244 55.7531 92.5427 55.3425 92.776C54.9318 93 54.4511 93.112 53.9005 93.112C53.2565 93.112 52.6731 92.9487 52.1505 92.622C51.6278 92.286 51.2125 91.8147 50.9045 91.208C50.6058 90.592 50.4565 89.8827 50.4565 89.08C50.4565 88.2773 50.6058 87.5727 50.9045 86.966C51.2125 86.3593 51.6278 85.8927 52.1505 85.566C52.6731 85.2393 53.2565 85.076 53.9005 85.076ZM56.3085 89.094C56.3085 88.4967 56.1405 88.0253 55.8045 87.68C55.4778 87.3347 55.0765 87.162 54.6005 87.162C54.1245 87.162 53.7185 87.3347 53.3825 87.68C53.0558 88.016 52.8925 88.4827 52.8925 89.08C52.8925 89.6773 53.0558 90.1533 53.3825 90.508C53.7185 90.8533 54.1245 91.026 54.6005 91.026C55.0765 91.026 55.4778 90.8533 55.8045 90.508C56.1405 90.1627 56.3085 89.6913 56.3085 89.094ZM65.1944 85.104C66.1091 85.104 66.8371 85.4027 67.3784 86C67.9291 86.588 68.2044 87.4 68.2044 88.436V93H65.8244V88.758C65.8244 88.2353 65.6891 87.8293 65.4184 87.54C65.1477 87.2507 64.7837 87.106 64.3264 87.106C63.8691 87.106 63.5051 87.2507 63.2344 87.54C62.9637 87.8293 62.8284 88.2353 62.8284 88.758V93H60.4344V85.188H62.8284V86.224C63.0711 85.8787 63.3977 85.608 63.8084 85.412C64.2191 85.2067 64.6811 85.104 65.1944 85.104Z" fill="white"/>
<defs>
<clipPath id="clip0_193_521">
<rect width="48" height="48" fill="white" transform="translate(20.5 3)"/>
</clipPath>
</defs>
</svg>
