<svg width="88" height="100" viewBox="0 0 88 100" fill="none" xmlns="http://www.w3.org/2000/svg">
<g clip-path="url(#clip0_177_1066)">
<path fill-rule="evenodd" clip-rule="evenodd" d="M66.9705 36.3414L62.7175 42.2894L58.4645 36.3414H60.7834C60.6066 31.922 56.9567 28.3865 52.4957 28.3865C48.7314 28.3865 45.539 30.9133 44.5303 34.3553C43.3033 33.9601 42.0347 33.7106 40.7452 33.5962C40.8908 33.0451 41.078 32.4939 41.3068 31.9636C41.9203 30.5182 42.7938 29.2184 43.9064 28.1057C45.0191 26.9931 46.3189 26.1092 47.7643 25.5061C49.2617 24.8613 50.8527 24.539 52.4957 24.539C54.1386 24.539 55.7296 24.8613 57.227 25.4957C58.6724 26.1092 59.9723 26.9827 61.0849 28.0953C62.1976 29.208 63.0711 30.5078 63.6846 31.9532C64.2773 33.3466 64.5997 34.8232 64.6308 36.3414H66.9705Z" fill="white"/>
<path fill-rule="evenodd" clip-rule="evenodd" d="M61.0225 69.461V66.903H46.3605C46.4645 66.851 46.5684 66.8094 46.6724 66.7574C48.2634 65.9983 49.7296 65.0104 51.0399 63.8042C51.2166 63.6378 51.383 63.4818 51.539 63.3258C51.7158 63.1491 51.9029 62.9619 52.0797 62.7643C52.2877 62.5355 52.4957 62.2964 52.6828 62.0572H61.0225V59.4991L67.9896 64.4801L61.0225 69.461Z" fill="white"/>
<path fill-rule="evenodd" clip-rule="evenodd" d="M55.6153 50.9827C55.6153 53.1976 55.1785 55.3501 54.3258 57.3778C53.5979 59.104 52.5789 60.6846 51.3102 62.0676C51.1439 62.2444 50.9775 62.4211 50.8111 62.5979C50.6551 62.7539 50.4991 62.8995 50.3432 63.0555C49.1161 64.1889 47.7435 65.1144 46.2461 65.8319C46.0381 65.9359 45.8198 66.0295 45.6014 66.1231C45.591 66.1231 45.591 66.1334 45.5806 66.1334C44.3328 66.6638 42.9913 66.9237 41.6291 66.9237H20V62.0884H40.0797C46.1525 62.0884 51.1335 57.2322 51.2167 51.1594C51.2167 51.1075 51.2167 51.0555 51.2167 51.0035C51.2167 44.3691 45.8302 38.9827 39.1959 38.9827C32.5615 38.9619 27.175 44.338 27.175 50.9827H29.9619L24.9809 57.9497L20 50.9827H22.7868C22.7868 48.7678 23.2236 46.6152 24.0763 44.5875C24.9081 42.6326 26.0832 40.8752 27.591 39.3674C29.0988 37.8596 30.8562 36.6742 32.8111 35.8527C34.8388 35 36.9913 34.5633 39.2062 34.5633C39.6534 34.5633 40.0901 34.5841 40.5269 34.6152C41.8163 34.7192 43.0745 34.9688 44.3016 35.3743C44.7383 35.5199 45.1647 35.6759 45.591 35.8631C47.5459 36.695 49.3033 37.87 50.8111 39.3778C52.3189 40.8856 53.5043 42.643 54.3258 44.5979C55.1785 46.6152 55.6153 48.7678 55.6153 50.9827Z" fill="white"/>
</g>
<path d="M24.758 96.098C24.0393 96.098 23.3953 95.9813 22.826 95.748C22.2567 95.5147 21.7993 95.1693 21.454 94.712C21.118 94.2547 20.9407 93.704 20.922 93.06H23.47C23.5073 93.424 23.6333 93.704 23.848 93.9C24.0627 94.0867 24.3427 94.18 24.688 94.18C25.0427 94.18 25.3227 94.1007 25.528 93.942C25.7333 93.774 25.836 93.5453 25.836 93.256C25.836 93.0133 25.752 92.8127 25.584 92.654C25.4253 92.4953 25.2247 92.3647 24.982 92.262C24.7487 92.1593 24.4127 92.0427 23.974 91.912C23.3393 91.716 22.8213 91.52 22.42 91.324C22.0187 91.128 21.6733 90.8387 21.384 90.456C21.0947 90.0733 20.95 89.574 20.95 88.958C20.95 88.0433 21.2813 87.3293 21.944 86.816C22.6067 86.2933 23.47 86.032 24.534 86.032C25.6167 86.032 26.4893 86.2933 27.152 86.816C27.8147 87.3293 28.1693 88.048 28.216 88.972H25.626C25.6073 88.6547 25.4907 88.4073 25.276 88.23C25.0613 88.0433 24.786 87.95 24.45 87.95C24.1607 87.95 23.9273 88.0293 23.75 88.188C23.5727 88.3373 23.484 88.5567 23.484 88.846C23.484 89.1633 23.6333 89.4107 23.932 89.588C24.2307 89.7653 24.6973 89.9567 25.332 90.162C25.9667 90.3767 26.48 90.582 26.872 90.778C27.2733 90.974 27.6187 91.2587 27.908 91.632C28.1973 92.0053 28.342 92.486 28.342 93.074C28.342 93.634 28.1973 94.1427 27.908 94.6C27.628 95.0573 27.2173 95.4213 26.676 95.692C26.1347 95.9627 25.4953 96.098 24.758 96.098ZM29.3393 92.094C29.3393 91.282 29.5026 90.5727 29.8293 89.966C30.1653 89.3593 30.6273 88.8927 31.2153 88.566C31.8126 88.2393 32.4939 88.076 33.2593 88.076C34.2393 88.076 35.0559 88.3327 35.7093 88.846C36.3719 89.3593 36.8059 90.0827 37.0113 91.016H34.4633C34.2486 90.4187 33.8333 90.12 33.2173 90.12C32.7786 90.12 32.4286 90.2927 32.1673 90.638C31.9059 90.974 31.7753 91.4593 31.7753 92.094C31.7753 92.7287 31.9059 93.2187 32.1673 93.564C32.4286 93.9 32.7786 94.068 33.2173 94.068C33.8333 94.068 34.2486 93.7693 34.4633 93.172H37.0113C36.8059 94.0867 36.3719 94.8053 35.7093 95.328C35.0466 95.8507 34.2299 96.112 33.2593 96.112C32.4939 96.112 31.8126 95.9487 31.2153 95.622C30.6273 95.2953 30.1653 94.8287 29.8293 94.222C29.5026 93.6153 29.3393 92.906 29.3393 92.094ZM40.6858 89.49C40.9658 89.0607 41.3158 88.7247 41.7358 88.482C42.1558 88.23 42.6225 88.104 43.1358 88.104V90.638H42.4778C41.8805 90.638 41.4325 90.7687 41.1338 91.03C40.8352 91.282 40.6858 91.73 40.6858 92.374V96H38.2918V88.188H40.6858V89.49ZM51.9941 88.188V96H49.6001V94.936C49.3574 95.2813 49.0261 95.5613 48.6061 95.776C48.1954 95.9813 47.7381 96.084 47.2341 96.084C46.6368 96.084 46.1094 95.9533 45.6521 95.692C45.1948 95.4213 44.8401 95.034 44.5881 94.53C44.3361 94.026 44.2101 93.4333 44.2101 92.752V88.188H46.5901V92.43C46.5901 92.9527 46.7254 93.3587 46.9961 93.648C47.2668 93.9373 47.6308 94.082 48.0881 94.082C48.5548 94.082 48.9234 93.9373 49.1941 93.648C49.4648 93.3587 49.6001 92.9527 49.6001 92.43V88.188H51.9941ZM63.6817 88.104C64.6524 88.104 65.4224 88.398 65.9917 88.986C66.5704 89.574 66.8597 90.3907 66.8597 91.436V96H64.4797V91.758C64.4797 91.254 64.3444 90.8667 64.0737 90.596C63.8124 90.316 63.4484 90.176 62.9817 90.176C62.515 90.176 62.1464 90.316 61.8757 90.596C61.6144 90.8667 61.4837 91.254 61.4837 91.758V96H59.1037V91.758C59.1037 91.254 58.9684 90.8667 58.6977 90.596C58.4364 90.316 58.0724 90.176 57.6057 90.176C57.139 90.176 56.7704 90.316 56.4997 90.596C56.2384 90.8667 56.1077 91.254 56.1077 91.758V96H53.7137V88.188H56.1077V89.168C56.3504 88.8413 56.6677 88.5847 57.0597 88.398C57.4517 88.202 57.895 88.104 58.3897 88.104C58.9777 88.104 59.5004 88.23 59.9577 88.482C60.4244 88.734 60.7884 89.0933 61.0497 89.56C61.3204 89.1307 61.689 88.7807 62.1557 88.51C62.6224 88.2393 63.131 88.104 63.6817 88.104Z" fill="white"/>
<defs>
<clipPath id="clip0_177_1066">
<rect width="48" height="44.922" fill="white" transform="translate(20 24.539)"/>
</clipPath>
</defs>
</svg>
