<svg width="93" height="111" viewBox="0 0 93 111" fill="none" xmlns="http://www.w3.org/2000/svg">
<g filter="url(#filter0_d_177_1057)">
<path d="M67.9345 26.8199C67.5853 24.9864 66.1664 23.502 64.3547 23.1091C64.2674 23.0873 64.1801 23.0873 64.0709 23.0655C64.0491 23.0655 64.0273 23.0218 64.0055 23H23.9727C23.9509 23.0218 23.9291 23.0655 23.8854 23.0655C22.0737 23.3711 20.5457 24.8117 20.131 26.6453C20.1092 26.7108 20.0655 26.7981 20.0219 26.8854V67.0273C20.0437 67.0709 20.0873 67.0928 20.0873 67.1364C20.5239 69.1446 21.7463 70.3888 23.7326 70.8909C23.7981 70.9127 23.8418 70.9563 23.8854 71H64.0709C64.1146 70.9782 64.1364 70.9345 64.1801 70.9127C66.1664 70.4543 67.3888 69.2538 67.8909 67.2674C67.9127 67.2019 67.8909 67.1146 67.9127 67.0491C67.9127 67.0273 67.9563 67.0055 67.9782 66.9836V26.9509C67.9782 26.9072 67.9345 26.8854 67.9345 26.8199ZM47.8527 49.6085H47.6126C45.8008 49.6085 43.9673 49.6085 42.1555 49.6085C42.0682 49.6085 41.9809 49.6085 41.8936 49.6085C41.8936 49.6303 41.8718 49.6303 41.8718 49.6521C41.8718 49.7394 41.8718 49.8267 41.8718 49.9141V66.7435H37.0914V49.6303H31.0887V45.8104H47.8308V49.6085H47.8527ZM63.9618 61.0246C63.9182 61.7667 63.809 62.487 63.5034 63.1855C63.4161 63.4038 63.3506 63.6003 63.2415 63.8186C62.8486 64.648 62.1937 65.2374 61.4297 65.7176C60.5566 66.2633 59.5962 66.5689 58.5921 66.7654C57.4789 66.9836 56.3656 67.0491 55.2306 67.0055C54.6849 66.9836 54.1392 66.9836 53.5935 66.9181C52.3056 66.7654 51.0396 66.4816 49.8609 65.9141C49.7954 65.8922 49.7081 65.7831 49.7081 65.7176C49.7081 64.2988 49.7081 62.8799 49.7081 61.4611C49.7081 61.4393 49.7081 61.4175 49.7081 61.3738C50.0573 61.6139 50.4066 61.854 50.7558 62.0505C51.6071 62.5525 52.5457 62.9018 53.5061 63.1201C54.3356 63.3165 55.1651 63.3383 55.9946 63.2947C56.6276 63.2729 57.2606 63.1201 57.8281 62.8363C58.3302 62.5744 58.7449 62.2251 58.854 61.6357C58.9632 61.1119 58.9195 60.588 58.6139 60.1296C58.1774 59.4748 57.5662 59.06 56.8895 58.7108C56.1255 58.3397 55.3615 58.0123 54.5757 57.663C53.4188 57.1392 52.2838 56.5716 51.3452 55.6985C50.5812 54.9782 50.0137 54.1269 49.7517 53.101C49.5989 52.4898 49.5553 51.8786 49.5771 51.2674C49.5989 49.7613 50.1446 48.4734 51.2142 47.4038C52.0873 46.5307 53.1569 46.0068 54.3356 45.7012C55.1433 45.5048 55.9509 45.352 56.7804 45.3302C57.3697 45.3302 57.9591 45.2647 58.5266 45.2865C59.4216 45.3083 60.2947 45.352 61.1678 45.5703C61.7353 45.7231 62.3247 45.8759 62.8922 46.0068C63.0014 46.0287 63.045 46.0941 63.045 46.2251C63.045 47.5784 63.045 48.9536 63.045 50.307C63.045 50.3506 63.045 50.3943 63.0232 50.4598C62.8486 50.3506 62.6958 50.2633 62.543 50.176C61.8445 49.7831 61.1023 49.5211 60.3383 49.3247C59.487 49.1282 58.6357 48.9973 57.7626 49.0191C57.1733 49.0409 56.5621 49.1282 56.0164 49.3247C55.3397 49.5648 54.794 49.9577 54.5539 50.678C54.3574 51.2456 54.5102 51.7258 54.8595 52.1842C55.2961 52.7517 55.8854 53.1446 56.5184 53.4502C57.3697 53.8649 58.2428 54.2142 59.0723 54.6071C60.0327 55.0655 60.9932 55.5239 61.8008 56.2006C62.4993 56.7899 63.1323 57.4447 63.4816 58.3179C63.678 58.8417 63.8527 59.3874 63.8527 59.9768C63.94 60.3261 63.9836 60.6753 63.9618 61.0246Z" fill="white"/>
<path d="M13.52 86.172V88.09H10.916V96H8.52203V88.09H5.91803V86.172H13.52ZM22.7015 88.188L17.8015 99.71H15.2255L17.0175 95.734L13.8395 88.188H16.5135L18.3195 93.074L20.1115 88.188H22.7015ZM25.9612 89.294C26.1946 88.93 26.5166 88.636 26.9272 88.412C27.3379 88.188 27.8186 88.076 28.3692 88.076C29.0132 88.076 29.5966 88.2393 30.1192 88.566C30.6419 88.8927 31.0526 89.3593 31.3512 89.966C31.6592 90.5727 31.8132 91.2773 31.8132 92.08C31.8132 92.8827 31.6592 93.592 31.3512 94.208C31.0526 94.8147 30.6419 95.286 30.1192 95.622C29.5966 95.9487 29.0132 96.112 28.3692 96.112C27.8279 96.112 27.3472 96 26.9272 95.776C26.5166 95.552 26.1946 95.2627 25.9612 94.908V99.724H23.5672V88.188H25.9612V89.294ZM29.3772 92.08C29.3772 91.4827 29.2092 91.016 28.8732 90.68C28.5466 90.3347 28.1406 90.162 27.6552 90.162C27.1792 90.162 26.7732 90.3347 26.4372 90.68C26.1106 91.0253 25.9472 91.4967 25.9472 92.094C25.9472 92.6913 26.1106 93.1627 26.4372 93.508C26.7732 93.8533 27.1792 94.026 27.6552 94.026C28.1312 94.026 28.5372 93.8533 28.8732 93.508C29.2092 93.1533 29.3772 92.6773 29.3772 92.08ZM40.4332 91.968C40.4332 92.192 40.4192 92.4253 40.3912 92.668H34.9732C35.0105 93.1533 35.1645 93.5267 35.4352 93.788C35.7152 94.04 36.0558 94.166 36.4572 94.166C37.0545 94.166 37.4698 93.914 37.7032 93.41H40.2512C40.1205 93.9233 39.8825 94.3853 39.5372 94.796C39.2012 95.2067 38.7765 95.5287 38.2632 95.762C37.7498 95.9953 37.1758 96.112 36.5412 96.112C35.7758 96.112 35.0945 95.9487 34.4972 95.622C33.8998 95.2953 33.4332 94.8287 33.0972 94.222C32.7612 93.6153 32.5932 92.906 32.5932 92.094C32.5932 91.282 32.7565 90.5727 33.0832 89.966C33.4192 89.3593 33.8858 88.8927 34.4832 88.566C35.0805 88.2393 35.7665 88.076 36.5412 88.076C37.2972 88.076 37.9692 88.2347 38.5572 88.552C39.1452 88.8693 39.6025 89.322 39.9292 89.91C40.2652 90.498 40.4332 91.184 40.4332 91.968ZM37.9832 91.338C37.9832 90.9273 37.8432 90.6007 37.5632 90.358C37.2832 90.1153 36.9332 89.994 36.5132 89.994C36.1118 89.994 35.7712 90.1107 35.4912 90.344C35.2205 90.5773 35.0525 90.9087 34.9872 91.338H37.9832ZM44.8741 96.112C44.1928 96.112 43.5861 95.9953 43.0541 95.762C42.5221 95.5287 42.1021 95.2113 41.7941 94.81C41.4861 94.3993 41.3135 93.942 41.2761 93.438H43.6421C43.6701 93.7087 43.7961 93.928 44.0201 94.096C44.2441 94.264 44.5195 94.348 44.8461 94.348C45.1448 94.348 45.3735 94.292 45.5321 94.18C45.7001 94.0587 45.7841 93.9047 45.7841 93.718C45.7841 93.494 45.6675 93.3307 45.4341 93.228C45.2008 93.116 44.8228 92.9947 44.3001 92.864C43.7401 92.7333 43.2735 92.598 42.9001 92.458C42.5268 92.3087 42.2048 92.08 41.9341 91.772C41.6635 91.4547 41.5281 91.03 41.5281 90.498C41.5281 90.05 41.6495 89.644 41.8921 89.28C42.1441 88.9067 42.5081 88.6127 42.9841 88.398C43.4695 88.1833 44.0435 88.076 44.7061 88.076C45.6861 88.076 46.4561 88.3187 47.0161 88.804C47.5855 89.2893 47.9121 89.9333 47.9961 90.736H45.7841C45.7468 90.4653 45.6255 90.2507 45.4201 90.092C45.2241 89.9333 44.9628 89.854 44.6361 89.854C44.3561 89.854 44.1415 89.91 43.9921 90.022C43.8428 90.1247 43.7681 90.2693 43.7681 90.456C43.7681 90.68 43.8848 90.848 44.1181 90.96C44.3608 91.072 44.7341 91.184 45.2381 91.296C45.8168 91.4453 46.2881 91.5947 46.6521 91.744C47.0161 91.884 47.3335 92.1173 47.6041 92.444C47.8841 92.7613 48.0288 93.1907 48.0381 93.732C48.0381 94.1893 47.9075 94.6 47.6461 94.964C47.3941 95.3187 47.0255 95.5987 46.5401 95.804C46.0641 96.0093 45.5088 96.112 44.8741 96.112ZM49.0268 92.094C49.0268 91.282 49.1901 90.5727 49.5168 89.966C49.8528 89.3593 50.3148 88.8927 50.9028 88.566C51.5001 88.2393 52.1814 88.076 52.9468 88.076C53.9268 88.076 54.7434 88.3327 55.3968 88.846C56.0594 89.3593 56.4934 90.0827 56.6988 91.016H54.1508C53.9361 90.4187 53.5208 90.12 52.9048 90.12C52.4661 90.12 52.1161 90.2927 51.8548 90.638C51.5934 90.974 51.4628 91.4593 51.4628 92.094C51.4628 92.7287 51.5934 93.2187 51.8548 93.564C52.1161 93.9 52.4661 94.068 52.9048 94.068C53.5208 94.068 53.9361 93.7693 54.1508 93.172H56.6988C56.4934 94.0867 56.0594 94.8053 55.3968 95.328C54.7341 95.8507 53.9174 96.112 52.9468 96.112C52.1814 96.112 51.5001 95.9487 50.9028 95.622C50.3148 95.2953 49.8528 94.8287 49.5168 94.222C49.1901 93.6153 49.0268 92.906 49.0268 92.094ZM60.3733 89.49C60.6533 89.0607 61.0033 88.7247 61.4233 88.482C61.8433 88.23 62.31 88.104 62.8233 88.104V90.638H62.1653C61.568 90.638 61.12 90.7687 60.8213 91.03C60.5227 91.282 60.3733 91.73 60.3733 92.374V96H57.9793V88.188H60.3733V89.49ZM65.1716 87.376C64.7516 87.376 64.4063 87.2547 64.1356 87.012C63.8743 86.76 63.7436 86.452 63.7436 86.088C63.7436 85.7147 63.8743 85.4067 64.1356 85.164C64.4063 84.912 64.7516 84.786 65.1716 84.786C65.5823 84.786 65.9183 84.912 66.1796 85.164C66.4503 85.4067 66.5856 85.7147 66.5856 86.088C66.5856 86.452 66.4503 86.76 66.1796 87.012C65.9183 87.2547 65.5823 87.376 65.1716 87.376ZM66.3616 88.188V96H63.9676V88.188H66.3616ZM70.4905 89.294C70.7238 88.93 71.0458 88.636 71.4565 88.412C71.8672 88.188 72.3478 88.076 72.8985 88.076C73.5425 88.076 74.1258 88.2393 74.6485 88.566C75.1712 88.8927 75.5818 89.3593 75.8805 89.966C76.1885 90.5727 76.3425 91.2773 76.3425 92.08C76.3425 92.8827 76.1885 93.592 75.8805 94.208C75.5818 94.8147 75.1712 95.286 74.6485 95.622C74.1258 95.9487 73.5425 96.112 72.8985 96.112C72.3572 96.112 71.8765 96 71.4565 95.776C71.0458 95.552 70.7238 95.2627 70.4905 94.908V99.724H68.0965V88.188H70.4905V89.294ZM73.9065 92.08C73.9065 91.4827 73.7385 91.016 73.4025 90.68C73.0758 90.3347 72.6698 90.162 72.1845 90.162C71.7085 90.162 71.3025 90.3347 70.9665 90.68C70.6398 91.0253 70.4765 91.4967 70.4765 92.094C70.4765 92.6913 70.6398 93.1627 70.9665 93.508C71.3025 93.8533 71.7085 94.026 72.1845 94.026C72.6605 94.026 73.0665 93.8533 73.4025 93.508C73.7385 93.1533 73.9065 92.6773 73.9065 92.08ZM81.9525 93.97V96H80.7345C79.8665 96 79.1898 95.79 78.7045 95.37C78.2191 94.9407 77.9765 94.2453 77.9765 93.284V90.176H77.0245V88.188H77.9765V86.284H80.3705V88.188H81.9385V90.176H80.3705V93.312C80.3705 93.5453 80.4265 93.7133 80.5385 93.816C80.6505 93.9187 80.8371 93.97 81.0985 93.97H81.9525Z" fill="white"/>
</g>
<defs>
<filter id="filter0_d_177_1057" x="-1" y="-1" width="100" height="112" filterUnits="userSpaceOnUse" color-interpolation-filters="sRGB">
<feFlood flood-opacity="0" result="BackgroundImageFix"/>
<feColorMatrix in="SourceAlpha" type="matrix" values="0 0 0 0 0 0 0 0 0 0 0 0 0 0 0 0 0 0 127 0" result="hardAlpha"/>
<feOffset dx="5" dy="5"/>
<feGaussianBlur stdDeviation="3"/>
<feComposite in2="hardAlpha" operator="out"/>
<feColorMatrix type="matrix" values="0 0 0 0 0 0 0 0 0 0 0 0 0 0 0 0 0 0 0.25 0"/>
<feBlend mode="normal" in2="BackgroundImageFix" result="effect1_dropShadow_177_1057"/>
<feBlend mode="normal" in="SourceGraphic" in2="effect1_dropShadow_177_1057" result="shape"/>
</filter>
</defs>
</svg>
